<?xml version="1.0" encoding="utf-8"?>
<!-- Generator: Adobe Illustrator 23.0.1, SVG Export Plug-In . SVG Version: 6.00 Build 0)  -->
<svg version="1.1" id="Calque_1" xmlns:v="https://vecta.io/nano"
	 xmlns="http://www.w3.org/2000/svg" xmlns:xlink="http://www.w3.org/1999/xlink" x="0px" y="0px" viewBox="0 0 186 171"
	 style="enable-background:new 0 0 186 171;" xml:space="preserve">
<style type="text/css">
	.st0{fill:#FFFDFA;}
	.st1{fill:#E18B6A;}
	.st2{fill:#899DAA;}
	.st3{fill:#C4CED5;}
	.st4{fill:#9BAAB5;}
	.st5{fill:#5F7888;}
	.st6{fill:#FCFEFF;}
	.st7{fill:#FFCCB8;}
	.st8{fill:#CA7351;}
	.st9{fill:#CAD6DE;}
	.st10{fill:#2F3537;}
	.st11{fill:#F0B90B;}
	.st12{opacity:0.1;fill:none;stroke:#191326;stroke-width:3;enable-background:new    ;}
	.st13{fill-rule:evenodd;clip-rule:evenodd;fill:#FFFDFA;}
</style>
<path class="st0" d="M66.4,63.9l-4.4,4.5l-4.5-4.5l4.5-4.5L66.4,63.9z M77.2,53.1l7.6,7.6l4.5-4.5l-7.6-7.6l-4.5-4.5L65.1,56.3
	l4.5,4.5L77.2,53.1z M92.5,59.4L88,63.9l4.5,4.5l4.4-4.5L92.5,59.4z M77.2,74.7l-7.6-7.6l-4.4,4.5l12.1,12.1l12.1-12.1l-4.5-4.4
	L77.2,74.7z M77.2,68.4l4.5-4.5l-4.5-4.5l-4.5,4.5L77.2,68.4z"/>
<g>
	<path class="st1" d="M41.2,35.4c-1.2,0-2.2,0.5-3.1,1.2c-0.8,0.9-1.3,2-1.4,3.3c0,0.7,0,1.3,0.2,2c0.3,0.7,0.5,1.2,0.8,1.5
		c0.5,0.5,0.9,0.9,1.3,1.2c0.6,0.3,1.1,0.5,1.7,0.4c0.9-0.1,1.7-0.6,2.4-1.4c0.3-0.4,0.5-0.8,0.7-1.2c0.2-0.8,0.4-1.4,0.4-1.7
		l-1.8-5.3C42,35.4,41.6,35.4,41.2,35.4"/>
</g>
<g>
	<path class="st1" d="M104.6,34.5l-0.8,9.2c0.7-0.3,1.2-0.5,1.5-0.8c0.6-0.4,1.1-0.8,1.5-1.3c0.4-0.4,0.7-0.9,1.1-1.5
		c0.2-0.5,0.3-1,0.4-1.4c0-0.4,0-0.8-0.2-1.2c-0.2-0.5-0.5-1-0.9-1.4C106.4,35.3,105.6,34.8,104.6,34.5"/>
</g>
<g>
	<path class="st2" d="M102.5,32.9c-2.6-3.2-6.7-5.1-12.1-5.8c-2.4-0.2-8.5-0.2-18.2-0.1c-9.8,0.3-16.5,0.7-20.3,1.2
		c-2.6,0.4-4.9,1.2-6.9,2.2c-1.4,0.7-2.7,2-4,3.8l4.1,7.9c1.9,0.2,4,0.4,6.5,0.4l13.1,0.1l15.5-0.5L99.5,42c0.9,0,1.8-0.1,2.7-0.2
		c1.5-0.3,2.3-0.5,2.7-0.8c0.3-0.2,0.5-0.7,0.5-1.6C105.6,37.3,104.6,35.1,102.5,32.9"/>
</g>
<g>
	<path class="st3" d="M45.1,43.2L45,50.7c0-0.3,0-0.5,0-0.6l0-1.1l0-0.8c0-0.3,0-0.7,0-1c0-0.1,0-0.6,0-1.3c0-0.2,0-0.4,0-0.6l0-0.8
		c0-0.1,0-0.2,0-0.3C45.1,43.8,45.1,43.5,45.1,43.2L45.1,43.2"/>
</g>
<g>
	<path class="st3" d="M45.2,41C45.1,41,45,41,45,41.1c-0.1,0.7-0.3,1.7-0.5,2.9c0,0.3-0.1,0.5-0.1,0.8h0c-0.1,0.2-0.2,0.4-0.1,0.8
		l0,0c-0.1,1-0.2,2-0.2,3c0,1.2,0.1,2.4,0.3,3.6h0c-0.3,2.8-0.8,5.5-1.7,8.3c-0.6,1.9-1.4,3.8-2.4,5.8l-6.2,12
		c-1.8,4.4-2.8,7.2-2.9,8.4c-1,3.4-1.3,13.3-1,29.9c0.2,9.9,0.6,16.3,1.2,19.2c3,2.8,7.9,5.4,14.8,7.9c7.7,2.6,15.8,3.9,24.3,3.9
		c7.6,0,15.4-1.1,23.6-3.2c5.9-1.5,12.1-4.5,18.7-9c1-2.1,1.5-5.6,1.5-10.5c-0.2-13.5-0.9-26.8-2.3-39.7c-1.3-8-3.9-14.1-8-18.3
		l-0.5-0.2h0c-1.7-3-2.8-5.9-3.4-8.7c-0.7-2.6-0.8-7.6-0.2-15.1c-0.1-0.2-0.4-0.2-0.9-0.3c-1.2-0.1-2.5-0.2-3.8-0.3
		c-0.3,0-0.7,0-1.2,0c-1.2,0-3.1,0.1-5.5,0.2l-0.1,0c-1.4,0.1-2.7,0.2-4,0.3l-10.1,1.1c-0.6,0.1-3.5,0.3-8.7,0.6
		c-1.7,0.1-3.8,0.1-6.4,0.2l0,0l1.5-1.3c-4.5-0.2-7.4-0.4-8.7-0.6c-0.9-0.1-1.9-0.4-3.1-0.7c-0.8-0.2-1.8-0.5-2.9-0.9
		C45.5,41,45.4,41,45.2,41L45.2,41C45.2,41,45.2,41,45.2,41z"/>
</g>
<g>
	<path class="st1" d="M122.8,74.3c-1.5,0.1-5.5,0.3-11.9,0.5l-4,0.3c-2.4,0.2-4.9,0.4-7.7,0.6l-7.9,0.5c-3.8,0.3-8.4,1-13.7,1.9
		c-3.1,0.7-4.8,1.5-5.3,2.3c-1.3,1.9-1.5,3.6-0.6,5.1c0.5,1.1,1.6,2,3.2,2.7c0.5,0.1,1,0.2,1.7,0.2c3.6,0,5.3,0.1,5.2,0
		c0.6,0,2.5-0.1,5.7-0.4l7.8-1l6.2-0.7l4.1-0.3l6.9-0.4c0.5,0,1-0.1,1.5-0.1c1.7-0.2,3.5-0.4,5.2-0.6c0.4,0,1.6-0.2,3.5-0.6
		c2.4-0.7,3.6-1.6,3.5-2.9l-0.1-0.8L122.8,74.3"/>
</g>
<g>
	<path class="st2" d="M114.4,139l-2.8-2.3c-3.5,3.1-8.8,5.6-15.9,7.7c-7.4,1.9-16.2,2.9-26.4,3c-1.9,0-4.1-0.2-6.6-0.6
		c-2.8-0.4-5.7-1.1-8.8-2l-15.9-5.2c-2-0.7-3.9-1.6-5.7-2.7c-0.2-0.1-0.3,0-0.3,0.1c-2.2,6.6,1.4,12.6,10.9,18
		c2.4,1.3,4.4,2.3,6.2,2.8c3.3,1.2,6.3,2,9,2.4c1.9,0.4,3.7,0.6,5.4,0.7c2.8,0.2,7.4,0.4,13.7,0.6c8.4,0.1,16.8-2.5,25.4-7.8
		C108.1,150.4,112,145.5,114.4,139"/>
</g>
<g>
	<path class="st4" d="M99.8,42.7c-0.5,2.8-0.9,5.8-1.2,8.9c-0.2,2-0.4,4.2-0.5,6.4c-0.2,4.4,0.1,7.7,0.8,10c0.2,0.8,0.5,1.5,0.7,2.1
		c1.2,2.5,1.8,4,1.9,4.5c0,0.1,0.1,0.2,0.2,0.2c0.1,0.1,0.4,0.1,0.9,0.1l3.2-0.5c0.4-0.1,0.6-0.3,0.6-0.5c0-0.1,0-0.3-0.1-0.4
		c-2.4-5.3-3.6-8-3.6-8.2c-0.7-1.9-1.2-3.6-1.6-5.2c-0.3-1.6-0.5-3.7-0.5-6.2c0-1.8,0.2-3.8,0.6-5.8L99.8,42.7"/>
</g>
<g>
	<path class="st4" d="M105,86.6c0.4,2.6,0.7,5.9,1,9.7c0.1,1.4,0.2,4.6,0.3,9.5l0,7.6l0,9.1c0,0.9,0,1.7,0,2.6
		c0,0.8-0.2,3.7-0.5,8.8c-0.1,1.4-0.2,2.7-0.5,3.8c0,0.5,0.2,0.7,0.5,0.7c4-1,6.6-2.3,7.8-4c1-2.5,1.5-8,1.4-16.4l-0.1-2.8
		c-0.1-4.2-0.2-6.7-0.2-7.3c0-0.7-0.1-3.2-0.1-7.6c0-1,0-1.9-0.1-2.8c-0.2-3.2-0.5-6.7-0.9-10.6L105,86.6"/>
</g>
<g>
	<path class="st5" d="M113.2,136.2l-7.4,3.7c-0.4,2.2-1.2,4.5-2.6,6.7c-1.4,2.1-3.1,4-5,5.6c-3.3,2.7-7.2,4.9-11.7,6.6
		c0.9,0.1,2.9-0.3,6-1c1.2-0.3,2.8-0.8,4.9-1.6c2.3-0.8,4.8-2.2,7.4-4.3c2.6-2.2,4.6-4.5,5.8-6.9C111.9,143,112.7,140.1,113.2,136.2
		"/>
</g>
<g>
	<path class="st6" d="M48.6,43.8l-5,0.4l0.3,6.7c0,1.6,0,3,0,4.2c-0.1,2.2-0.4,4.3-1,6.1c-0.6,2.1-1.2,3.8-1.9,5.1
		c-0.1,0.5-1.8,3.4-4.9,8.8c-0.4,0.8-0.9,1.8-1.5,3c-1,2.3-1.7,4.4-2.1,6.3c-1.2,6.8-1.9,11.9-2,15.2c-0.2,3.9-0.3,12.5-0.1,25.8
		c0.1,3.3,0.4,5.5,1,6.4c0.6,1.2,1.2,2.1,1.6,2.6l2,2.1c0.3,0.2,0.4,0.2,0.5,0l-0.6-11.8c-0.1-2.4-0.1-4.1-0.1-5.2l0.6-22.2
		c0.2-4.1,0.3-6.3,0.4-6.7c0.3-2.3,1-4.6,2.1-6.7c0.3-0.6,0.7-1.3,1.1-1.9c3.4-5,5.6-8.3,6.4-9.8c2-3.3,2.9-5.3,3-5.9
		c0.3-0.8,0.5-2.4,0.5-5C48.9,60.2,48.8,54.3,48.6,43.8"/>
</g>
<g>
	<path class="st6" d="M31.6,136c-0.1,3.4,1,6.6,3.2,9.7c1.5,1.9,2.8,3.3,3.8,4.1c1.2,1.1,3.1,2.5,5.7,4l0.3,0.2
		c-0.7-0.4-1.3-0.9-1.9-1.5c-0.6-0.5-1-1-1.5-1.5c-1.1-1.2-1.8-2.3-2.3-3.3c-1.6-3.3-2.7-6.4-3-9.4L31.6,136 M44.6,154.1
		c0.9,0.6,2,1.2,3.3,1.7C47.1,155.4,46,154.9,44.6,154.1 M48,155.8C49.8,156.6,49.8,156.6,48,155.8 M49.4,156.4
		C52.2,157.4,52.2,157.4,49.4,156.4"/>
</g>
<g>
	<path class="st7" d="M123.3,75.1L110,75.5l-16.3,0.8c-2.9,0.1-4.8,0.1-6,0.1l-3.5,0.1c-2,0.1-3.6,0.4-4.9,0.8
		c-2.1,0.7-3.3,1.4-3.7,2.3c0,0.2,0,0.4,0.1,0.6c0.6,1.3,1,2.5,1.3,3.4l1,4.9c0.1,0.2,0.3,0,0.5-0.4c0.3-0.6,0.6-1.1,0.8-1.7
		c0.3-0.6,0.6-2,0.9-4c0.1-0.5,0.2-0.9,0.4-1.1c0.1-0.4,0.7-0.8,1.7-1.1c0.7-0.2,1.4-0.3,2.2-0.4l9.8-0.9c3-0.2,5.4-0.3,7.2-0.4
		c2.3,0,5.7-0.1,10.1-0.3l5.1-0.3l5.7-0.4c0.7,0,1.5-0.1,2.3-0.1l0.1,0L123.3,75.1"/>
</g>
<g>
	<path class="st7" d="M120.2,77.2l0.2,0c0,0-0.1,0-0.1,0l0,0C120.3,77.2,120.3,77.2,120.2,77.2"/>
</g>
<g>
	<path class="st7" d="M120.7,77.6c-0.1,0-0.2,0-0.2,0c-0.1,0-0.1,0-0.2,0L120.7,77.6"/>
</g>
<g>
	<path class="st8" d="M126.7,76.9l-5.6-2.7c1.2,1.7,1.4,3.3,0.7,4.7c-0.5,1.2-1.9,2.2-4.2,3c-0.6,0.2-1.5,0.4-2.6,0.5
		c-4.1,0.6-6.7,0.8-7.6,0.9l-5.6,0.4l-2.4,0.2c-1.2,0.2-2.6,0.3-4.2,0.5l-4.4,0.4c0,0-2,0.1-6,0.4l-4.3,0.3c-0.8,0-1.5,0.1-2.2,0.1
		c-0.6,0.1-1.1,0.8-1.4,1.9c0.1,0.5,1.4,0.7,4,0.6c1-0.1,1.9-0.2,2.7-0.3c2.1-0.3,4-0.6,5.8-0.9c1-0.2,1.9-0.3,2.5-0.3l13.4-1
		c2.1-0.2,4.7-0.3,7.9-0.5l2.3-0.2c1.1-0.1,2.8-0.3,5.1-0.8C124.7,83.4,126.8,81,126.7,76.9"/>
</g>
<g>
	<path class="st7" d="M40.6,35.1c-0.5,0-1,0.1-1.4,0.3c-0.3,0.1-0.6,0.3-1.1,0.8c-0.4,0.4-0.7,0.8-1,1.3c-0.2,0.4-0.4,0.8-0.4,1.3
		c0,0.7,0,1.2,0.1,1.5c0.2,0.6,0.4,1.1,0.6,1.4c0.3,0.5,0.7,1,1.2,1.3c0.3,0.3,0.7,0.5,1.2,0.6c0,0,0,0,0-0.1
		c-0.3-0.4-0.5-0.8-0.6-1.2c-0.1-0.3-0.1-0.7-0.2-1.1c0-0.6,0.1-1.1,0.3-1.5c0-0.1,0.1-0.1,0.2-0.1c0,0,0.1,0,0.4,0c0,0,0.1,0,0.1,0
		c0,0,0,0,0-0.1c-0.1-0.2-0.2-0.3-0.2-0.3c0-0.1-0.1-0.1-0.1-0.2c0,0,0-0.1,0-0.1c0-0.1,0.1-0.1,0.1-0.2c0.5-0.6,0.9-0.9,1.4-0.8
		c0.7,0,1.3,0.4,1.7,1.1L41,35.1C40.9,35.1,40.8,35.1,40.6,35.1"/>
</g>
<g>
	<path class="st7" d="M39,37.9l-0.4,1.8c0.4,0.1,0.8,0.1,1.2,0.2c0,0,0.1,0,0.1,0c0,0,0-0.1-0.1-0.3c0-0.1-0.1-0.2-0.2-0.4
		C39.7,39.1,39.4,38.7,39,37.9"/>
</g>
<g>
	<path class="st9" d="M102,31.8c-1.5-1.1-2.9-1.9-4.2-2.4c-1.2-0.4-3.1-0.8-5.7-1C89.6,28.2,87,28,84.4,28c-1.5,0-2.6,0-3.3,0
		c-3.6,0.1-6,0.1-7.3,0.2c-0.4,0-1.3,0-2.7,0l-9.4-0.3c-1.8-0.1-3.7-0.2-5.7-0.2c-2.1,0-3.5,0-4.3,0.1c-2.4,0.3-4.2,0.7-5.4,1.4
		c-1.8,0.9-3.4,2.3-5.1,4.1c-0.3,0.4-0.3,0.6-0.2,0.8c1.3,1.5,2.5,2.9,3.5,4.2c0.1,0,0.1,0,0.1-0.1c0-0.7,0-1.3,0.1-1.9
		c0.1-0.4,0.2-0.8,0.4-1.2c0.5-0.9,1.2-1.6,2.1-2.1c1-0.6,2.3-1,3.9-1.2c0.8-0.2,2.6-0.3,5.4-0.3c0.4,0,0.7,0,1,0l5.5,0.2
		c4.9,0,8,0,9.1,0l3.2,0l2.9-0.1l9.5-0.1l3.3-0.1c2.3,0,3.8,0.1,4.5,0.2c1.8,0.2,3.6,0.8,5.4,1.8c1.7,1.2,3,2.6,3.9,4.2l-1.5-5.1
		C103.1,32.6,102.6,32.2,102,31.8"/>
</g>
<g>
	<path class="st5" d="M103.4,31.4L97,29.6c1,0.7,1.9,1.5,2.7,2.6c0.4,0.6,0.6,1.2,0.4,2c-0.9,2.4-2.7,3.9-5.7,4.7
		c-2.4,0.6-5.2,1-8.3,1.2L67.4,41c-0.4,0-0.8,0-1.2,0.1c-0.1,0-0.1,0-0.1,0c1.3,0.7,3.2,1.2,5.7,1.8c1.1,0.3,3.2,0.5,6.3,0.6
		c1.9,0,3,0,3.4-0.1l10.4-0.8c2.7-0.2,5.3-0.6,7.9-1.1c1.4-0.4,2.3-0.8,2.9-1.3c0.7-0.4,1.2-1.2,1.7-2.3
		C105.1,36,104.8,33.8,103.4,31.4"/>
</g>
<g>
	<path class="st10" d="M74.3,26l0.4,0l0,0l-0.2,0h0C74.4,26,74.4,26,74.3,26L74.3,26C74.3,26,74.3,26,74.3,26L74.3,26z M70.8,26
		c0,0-0.1,0-0.1,0l0,0c0,0,0,0-0.1,0l0,0L70.8,26L70.8,26z M71.7,18.2c0.9,0,1.8,0.1,2.8,0.4c1.1,0.3,2.2,0.8,3.5,1.5
		c1.4,0.9,2.6,2,3.6,3.2c0.6,0.7,1,1.2,1.3,1.7c0.2,0.3,0.5,0.7,0.7,1.2h0c-0.2,0-0.3,0-0.4,0c0,0-0.1,0-0.1,0c0,0-0.1,0-0.1,0
		c-0.3,0-1.2,0-2.6,0L77.3,26l-0.8,0l-1.8,0l0,0l-0.2,0c0,0-0.1,0-0.1,0c0,0-0.1,0-0.2,0h0c-0.1,0-0.2,0-0.3,0l-1.2,0l0,0l-0.5,0
		l-0.5,0l-0.4,0l0,0l-1.3,0c-0.1,0-0.2,0-0.3,0l0,0c0,0,0,0,0,0c-0.1,0-0.1,0-0.1,0c-0.1,0-0.2,0-0.4,0h0l-1.8,0l-0.8,0l-3.1,0.1
		c-1.4,0-2.3,0-2.6,0c-0.1,0-0.1,0-0.1,0c0,0,0,0-0.1,0c-0.1,0-0.1,0-0.3,0l0,0c1.2-2.3,2.7-4.1,4.5-5.5c0.4-0.3,0.7-0.5,1.1-0.8h0
		c1.4-0.8,2.9-1.3,4.5-1.6h0c0.3,0,0.5-0.1,0.8-0.1C71.5,18.2,71.6,18.2,71.7,18.2z M90.6,29.2C90.6,29.2,90.6,29.2,90.6,29.2
		c-0.1,0-0.2,0-0.2,0c0,0-0.1,0-0.1,0h0L90.6,29.2L90.6,29.2z M90.4,29.2c0.4,0,0.7,0,1,0c1.1,0.1,1.6,0.1,1.7,0.1c0,0,0,0,0,0
		c0.3,0,0.6,0,0.8,0l0,0c0,0,0.1,0,0.1,0c1.3,0.2,2.5,0.6,3.6,1c1.2,0.6,2.3,1.2,3.2,2.1c1.1,1,1.9,2,2.4,3.1c0.7,1.5,0.6,2.8-0.2,4
		c-0.1,0.1-0.1,0.1-0.2,0.2c0,0,0,0,0,0h0c0,0,0,0-0.1,0.1c0,0,0,0,0,0h0c-0.2,0.2-0.5,0.4-0.8,0.5c0,0,0,0,0,0h0c0,0-0.1,0-0.1,0
		c-0.3,0.1-0.6,0.2-1,0.2h0c-0.1,0-0.1,0-0.2,0c-0.3,0-0.6,0-0.7,0c0,0,0,0,0,0c-0.2,0-0.3,0-0.5,0c0,0,0,0-0.1,0l0,0c0,0,0,0,0,0h0
		c-0.4,0-0.9,0-1.7,0.1c-1.3,0.1-3.2,0.2-5.8,0.3c-0.6,0-1.3,0.1-2.1,0.1c-0.4,0-1.2,0-2.5,0l-5,0l-4.2,0c-0.2,0-0.5,0-0.7,0
		c-0.9,0-1.7,0-2.4,0l0,0c-0.2,0-0.3,0-0.5,0c-0.6,0-1,0-1.2,0c0,0,0,0,0,0c0,0-0.1,0-0.1,0c0,0,0,0,0,0c-0.1,0-0.2,0-0.3,0l-0.6,0
		l-0.2,0l-0.4,0l-0.8,0l0,0c-1.1,0-2.5,0-4.2,0.1c-0.2,0-0.5,0-0.7,0l-4.2,0l-5,0c-1.2,0-2,0-2.5,0c-0.8,0-1.5,0-2.1-0.1
		c-2.7-0.1-4.7-0.2-6-0.3l0,0c0-0.2,0-0.4,0-0.6c-0.1-1.8-0.7-3.4-1.8-4.8c-0.7-0.8-1.5-1.3-2.3-1.6c0.4-0.5,0.8-0.9,1.2-1.3
		c0.9-0.8,2-1.5,3.2-2.1c1.1-0.5,2.3-0.8,3.6-1c0,0,0,0,0,0h0c0.7-0.1,1.2-0.1,1.4-0.1c0.2,0,0.3,0,0.4,0c0,0,0,0,0,0l1.4,0
		c0.5,0,0.9,0,1.3,0c0.2,0,0.3,0,0.5,0l0,0c0.8,0,1.8,0.1,2.9,0.1c1.5,0.1,2.2,0.1,2.3,0.1c0,0,0,0,0,0l0,0c0.1,0,0.3,0,0.8,0
		c0.6,0,1.4,0,2.6,0l3.7-0.1l1.1,0l3.6,0l0,0l-0.3,0h0c0,0,0,0,0,0c0.2,0,0.4,0,0.7,0l0,0h0c0.1,0,0.1,0,0.2,0l0.4,0l0,0l-1,0l0,0
		l3.6,0l1.1,0l3.7,0.1c1.2,0,2.1,0,2.6,0c0.5,0,0.7,0,0.8,0l0,0c0,0,0,0,0,0c0,0,0.4,0,1.1,0l0,0l1.4,0c0,0,0,0,0,0
		c0.2,0,0.3,0,0.5,0c0.2,0,0.4,0,0.5,0l1.3-0.1h0c0.2,0,0.4,0,0.6,0C89.5,29.2,89.9,29.2,90.4,29.2L90.4,29.2z M107,36.2
		c0.7,0.8,1,1.7,0.9,2.9c-0.2,1.4-0.9,2.4-1.9,3c-0.5,0.3-1,0.5-1.5,0.7c0.1,0,0.1-0.1,0.2-0.1h0c0,0,0,0,0,0h0
		c0.5-0.4,1-0.8,1.4-1.4c0.6-0.9,1-2,1.1-3.3C107.1,37.3,107.1,36.8,107,36.2L107,36.2z M40.1,36.9c0.7,0,1.3,0.4,1.9,1
		c0.3,0.4,0.6,0.9,0.7,1.4c-0.2-0.1-0.4-0.1-0.6-0.1l-0.1,0c-0.7,0-1.2,0.3-1.5,0.9c-0.3,0.6-0.3,1.1,0.1,1.8l0.8,1.1h0
		c0,0.1,0,0.2,0,0.4h0c-0.3,0.2-0.6,0.3-1,0.3c-0.7,0-1.3-0.4-1.9-1c-0.5-0.6-0.8-1.4-0.8-2.3c-0.1-0.9,0.1-1.7,0.6-2.3
		C38.8,37.3,39.4,37,40.1,36.9L40.1,36.9z M71.9,44.6L71.9,44.6L71.9,44.6l0.3,0l0,0c0,0-0.1,0-0.1,0C72.1,44.6,72,44.6,71.9,44.6
		L71.9,44.6L71.9,44.6z M101.9,46.4l0.8,1l18.2,24.9l0.7-0.1l-0.6,0l-11.8,0.9c-1.1-1.7-2.6-3.8-4.3-6.3c-0.9-1.5-1.5-2.8-1.8-3.9
		c-0.5-1.6-0.7-6.8-0.5-15.6l0,0L101.9,46.4L101.9,46.4z M99.4,44.1C99,54.5,99.1,60.8,99.6,63c0.3,1.6,1,3.4,2.1,5.1
		c0.3,0.5,1.4,2.3,3.5,5.4h0L73.5,76c-0.2,0-0.4,0.1-0.6,0.2h0c-0.8,0.2-1.4,0.6-2,1.3L46.6,44.3l0,0c1.4,0.1,3.2,0.2,5.4,0.3
		c1.3,0.1,2.8,0.1,4.6,0.1l5,0c2.3,0,4,0,5.2,0c0.4,0,0.8,0,1.1,0c1.2,0,2.1,0,2.6,0l1.4,0c0,0,0.1,0,0.1,0l0,0c0,0,0.1,0,0.1,0
		l1.4,0c0.5,0,1.4,0,2.6,0c0.3,0,0.7,0,1.1,0c1.2,0,3,0,5.2-0.1l5,0c1.7,0,3.3-0.1,4.6-0.1C95.6,44.3,98,44.2,99.4,44.1L99.4,44.1z
		 M121.6,75.6c0.8,0.1,1.4,0.4,1.9,1.1c0.8,1.2,1.1,2.5,0.9,3.9c-0.2,0.9-0.5,1.6-1.1,2.2c-0.3,0.2-0.5,0.4-0.8,0.6h0l-1.5,0.1
		l-0.3,0l-0.5,0l-5.7,0.5l-3.4,0.3l-32.4,2.8c0.4-1.1,0.5-2.3,0.5-3.7C79,81.8,78.7,80.3,78,79h0l31.2-2.4l2.1-0.2h0L121.6,75.6
		L121.6,75.6z M73.9,79.4c1.1,0.6,1.7,1.9,1.8,4c0,1-0.1,1.9-0.3,2.6c-0.3,0.8-0.7,1.3-1.1,1.5l0,0l0,0c-0.6-0.3-1-0.8-1.3-1.6h0
		c0.3,0.2,0.6,0.3,1,0.3c0.7,0,1.2-0.3,1.5-0.8c0.3-0.5,0.3-1.1,0-1.8L73,80.4h0C73.2,80,73.5,79.7,73.9,79.4L73.9,79.4z M44.5,47.1
		l0.5,0.7l24.3,33.3h0c-0.1,0.7-0.2,1.5-0.2,2.4c0.1,2.1,0.6,3.9,1.6,5.4c1,1.4,2.2,2.1,3.5,2.1h0c0.2,0,0.3,0,0.5,0l36.7-3.2l0,0
		l0,0c0,0.3,0.1,0.6,0.1,0.9c0.6,5.4,0.8,17.1,0.6,35.1c0,4.2-0.1,7.8-0.2,10.8h0c-0.1,0-0.2,0-0.4,0.1c-3.3,2.3-6,3.9-8.1,4.9
		c-2.6,1.2-5.8,2.3-9.4,3.2c-3,0.8-5.5,1.3-7.7,1.7c-2.7,0.4-5.1,0.8-7,1h0c0,0,0,0,0,0c0.1,0,0.1,0,0.2,0l0,0
		c-0.7,0.1-1.5,0.2-2.5,0.2c-0.4,0-0.6,0-0.9,0.1l0,0c0.7,0,1.3-0.1,2-0.2c0.4,0,0.8-0.1,1.2-0.1h0c0,0,0,0-0.1,0
		c-1.4,0.1-2.8,0.3-4.2,0.3c-0.4,0-0.7,0-1.1,0h0c-0.2,0-0.4,0-0.5,0l-2.3,0c0,0,0,0,0,0c-0.1,0-0.4,0-1,0l-1.3-0.1l-1.7-0.2
		l-2.2-0.2l-1.4-0.1c-0.3,0-0.6,0-0.8,0h0c-1.3-0.2-2.8-0.4-4.4-0.6c-2.2-0.4-4.8-1-7.7-1.7c-3.7-0.9-6.8-1.9-9.4-3.2
		c-2.2-0.9-4.9-2.6-8.1-4.9c0,0,0,0-0.1,0h0c0,0,0,0,0,0c0,0-0.1-0.1-0.1-0.1c0,0,0-0.1-0.1-0.1c0,0-0.1-0.1-0.1-0.1
		c0,0,0-0.1-0.1-0.1c0,0,0,0,0,0h0c-0.2-2.9-0.3-6.4-0.3-10.5c-0.2-18-0.1-29.7,0.5-35.1c0.3-3.4,0.9-6,1.8-7.8
		c0.6-1.2,1.3-2.5,2.1-3.8c3.6-5.1,5.5-8.1,5.9-8.8c1-1.8,1.7-3.5,2-5.2c0.5-2,0.6-7.1,0.3-15.3l0,0L44.5,47.1z M111.7,138.6
		c-0.1,1.2-0.3,2.3-0.5,3.1c-1.3,5.1-4.7,9-10.1,11.9c-8,4-17,6.2-27.2,6.5l-0.3,0c-0.1,0-0.1,0-0.2,0c-0.2,0-0.3,0-0.4,0
		c0,0,0,0,0,0l-0.7,0l-0.4,0c-10.6-0.2-20-2.3-28.3-6.4c-5.5-2.8-8.9-6.8-10.2-11.8c-0.2-0.8-0.3-1.8-0.5-2.9h0c0,0,0,0,0,0
		c0,0,0.1,0,0.1-0.1c0,0,0,0,0,0h0c1.1,0.8,2.4,1.6,3.8,2.4c3.5,2,7.8,3.6,12.9,4.8c4.3,1.1,7.3,1.7,8.9,1.9
		c1.5,0.2,2.9,0.4,4.1,0.6h0c0.4,0.1,0.7,0.1,1,0.2c0.1,0,0.2,0,0.2,0l1.1,0.1c0.5,0,1,0.1,1.5,0.2l1.1,0.1l1.6,0.1l1.4,0.1
		c0.2,0,0.4,0,0.5,0c0.5,0,0.9,0,1.1,0c0.1,0,0.2,0,0.3,0c0,0,0,0,0,0c0.1,0,0.4,0,0.8,0c0.6,0,0.9,0,0.9,0l0.7,0l1,0
		c0.2,0,0.5,0,0.7-0.1c1.1-0.1,1.6-0.2,1.6-0.2c0.7-0.1,1.3-0.2,1.9-0.3h0c1.6-0.2,3.5-0.5,5.7-0.8c1.6-0.2,4.5-0.9,8.8-1.9
		c5.1-1.3,9.4-2.9,12.9-4.9C109.2,140.2,110.5,139.4,111.7,138.6L111.7,138.6z M73.9,163.4L73.9,163.4c-0.5,0-1,0-1.5,0h0
		c0,0,0.1,0,0.1,0C72.9,163.4,73.4,163.4,73.9,163.4C73.9,163.4,73.9,163.4,73.9,163.4L73.9,163.4z M71.8,14.4
		c-1.5,0-2.9,0.2-4.2,0.7l0,0c-1.2,0.3-2.2,0.7-3.2,1.3c-1.6,0.7-3.2,2-4.8,3.8c-1.5,1.6-2.5,3.5-3.2,5.7l0,0c0,0-0.1,0-0.1,0
		c-0.1,0-0.1,0-0.2,0c-0.3,0-0.5,0-0.7,0l-0.8,0c0,0,0,0,0,0c0,0-0.1,0-0.2,0c0,0-0.1,0-0.1,0l0,0c-0.4,0-0.7,0-1,0
		c-0.1,0-0.2,0-0.3,0l0,0c-3.5,0.1-6.5,0.9-9.1,2.4c-2.6,1.6-4.5,3.6-5.6,5.8l0,0c-0.7,0.3-1.4,0.8-2,1.5c-1.1,1.3-1.7,2.9-1.7,4.8
		c0.1,1.8,0.7,3.4,1.8,4.8c1.2,1.3,2.6,2,4.2,2c0.4,0,0.8,0,1.2-0.1h0c0.3,9.2,0.2,14.7-0.4,16.3c-0.3,1.1-0.9,2.4-1.8,3.9
		C34.7,74,32.2,77.9,31.9,79c-1,1.8-1.8,4.5-2.2,8.2c-0.7,5.1-0.9,17.3-0.6,36.5c0.1,9.2,0.5,15.5,1.2,18.9
		c1.9,6.8,6.5,11.7,13.8,14.9c8.2,3.7,17.2,5.6,26.9,5.8l0,0c-0.1,0-0.2,0-0.2,0h0l0,0h0l0.5,0l0.8,0l0.3,0c-0.5,0-0.9,0-1.4,0h0
		c0,0,0.1,0,0.1,0c0.4,0,0.9,0,1.3,0h0l0.1,0l0.1,0h0l1.4,0c0.2,0,0.3,0,0.4,0l0,0c-0.1,0-0.2,0-0.3,0h0c9.7-0.2,18.6-2.2,26.8-5.9
		c7.3-3.2,11.8-8.2,13.7-15c0.7-3.4,1.1-9.7,1.1-18.9c0.2-18.8-0.1-30.8-0.7-36.2c0,0,0,0,0,0l7.2-0.6h0l3-0.3h0
		c0.5-0.3,1-0.7,1.4-1.3h0c0,0,0,0,0,0c0.1-0.1,0.2-0.2,0.2-0.3c0.9-1.5,1.4-3.3,1.3-5.4c0-0.3,0-0.5-0.1-0.8c0,0,0,0,0,0
		c0.1-0.1,0.1-0.2,0.2-0.3c0.3-0.5,0.3-1.1,0-1.8l-1.2-1.7c-0.2-0.3-0.3-0.6-0.5-0.9c-0.3-0.4-0.5-0.7-0.8-0.9c0,0,0,0,0,0
		l-19.9-27.2l0,0c1-0.3,1.9-0.8,2.7-1.5c1.5-1.2,2.5-2.9,2.8-5c0.2-2.1-0.4-3.8-1.6-5.3c-1.5-1.8-3.3-2.8-5.4-3.1l0,0
		c-1-1.1-2.2-2.1-3.7-3c-2.6-1.5-5.7-2.3-9.1-2.3l0,0c-0.1,0-0.2,0-0.3,0c-0.5,0-1,0-1.8,0.1l0,0l-0.2,0l-0.5,0L88,25.9
		c0,0-0.1,0-0.1,0l0,0c-0.7-2.2-1.7-4.1-3.2-5.7c-1.6-1.8-3.2-3.1-4.8-3.8c-1.6-0.9-3.4-1.4-5.4-1.6l0,0
		C73.6,14.5,72.7,14.5,71.8,14.4L71.8,14.4z"/>
</g>
<circle class="st11" cx="77.2" cy="63.9" r="29"/>
<circle class="st11" cx="125.8" cy="107.9" r="42.6"/>
<circle class="st12" cx="77.2" cy="63.9" r="27.5"/>
<path class="st13" d="M64.9,56.5l12.3-12.3l4.9,4.9L69.8,61.5C69.8,61.5,64.9,56.5,64.9,56.5z M64.9,71.3l19.7-19.7l4.9,4.9
	L69.8,76.2L64.9,71.3z M92,59L72.3,78.7l4.9,4.9l19.7-19.7L92,59L92,59z M57.5,63.9l4.9-4.9l4.9,4.9l-4.9,4.9L57.5,63.9z"/>
<circle class="st11" cx="126.7" cy="108.1" r="42.8"/>
<path class="st0" d="M110.8,108.1l-6.5,6.6l-6.6-6.6l6.6-6.6L110.8,108.1z M126.7,92.2l11.2,11.2l6.6-6.6l-11.2-11.2l-6.6-6.5
	l-17.9,17.9l6.6,6.6L126.7,92.2z M149.3,101.5l-6.6,6.6l6.6,6.6l6.5-6.6L149.3,101.5z M126.7,124l-11.2-11.2l-6.5,6.6l17.7,17.7
	l17.9-17.9l-6.6-6.5L126.7,124z M126.7,114.7l6.6-6.6l-6.6-6.6l-6.6,6.6L126.7,114.7z"/>
<circle class="st12" cx="126.7" cy="108.1" r="40.6"/>
</svg>
