<?xml version="1.0" encoding="utf-8"?>
<!-- Generator: Adobe Illustrator 23.0.1, SVG Export Plug-In . SVG Version: 6.00 Build 0)  -->
<svg version="1.1" id="Calque_1" xmlns:v="https://vecta.io/nano"
	 xmlns="http://www.w3.org/2000/svg" xmlns:xlink="http://www.w3.org/1999/xlink" x="0px" y="0px" viewBox="0 0 186 171"
	 style="enable-background:new 0 0 186 171;" xml:space="preserve">
<style type="text/css">
	.st0{display:none;fill:url(#SVGID_1_);}
	.st1{display:none;fill-rule:evenodd;clip-rule:evenodd;fill:#606063;}
	.st2{display:none;fill:#BEBEBE;}
	.st3{display:none;fill:#F5F3F3;}
	.st4{display:none;fill-rule:evenodd;clip-rule:evenodd;fill:#612F01;}
	.st5{display:none;fill:#FEDC90;}
	.st6{display:none;fill:#D1884F;}
	.st7{display:none;}
	.st8{display:inline;fill-rule:evenodd;clip-rule:evenodd;fill:url(#SVGID_2_);}
	.st9{display:inline;fill-rule:evenodd;clip-rule:evenodd;fill:#633001;}
	.st10{display:inline;}
	.st11{fill:#9E7200;}
	.st12{display:inline;fill:#9E7200;}
	.st13{display:inline;fill:#F0B90B;}
	.st14{display:none;fill:#9E7200;}
	.st15{display:none;fill-rule:evenodd;clip-rule:evenodd;fill:#633001;}
	.st16{display:none;opacity:0.2;fill:none;stroke:#191326;stroke-width:2.837;enable-background:new    ;}
	.st17{fill:#E18B6A;}
	.st18{fill:#899DAA;}
	.st19{fill:#C4CED5;}
	.st20{fill:#9BAAB5;}
	.st21{fill:#5F7888;}
	.st22{fill:#FCFEFF;}
	.st23{fill:#FFCCB8;}
	.st24{fill:#CA7351;}
	.st25{fill:#CAD6DE;}
	.st26{fill:#2F3537;}
	.st27{fill:#B7EAFF;stroke:#5DC4D9;stroke-width:4;stroke-miterlimit:10;}
	.st28{fill:#FFFFFF;fill-opacity:6.274510e-02;}
	.st29{fill:#FFFFFF;}
	.st30{fill:#F1F6F8;}
	.st31{fill:#FFFFFF;fill-opacity:0.451;}
	.st32{fill:#F1F6F8;fill-opacity:0.451;}
	.st33{fill:#FFFFFF;fill-opacity:0.2039;}
	.st34{fill:#FFFFFF;fill-opacity:0.3333;}
	.st35{fill:#5DC4D9;}
	.st36{fill:#4E5E6E;}
	.st37{fill:#FEA192;}
	.st38{fill:#FF738E;}
	.st39{fill:url(#SVGID_3_);}
	.st40{fill-rule:evenodd;clip-rule:evenodd;fill:#606063;}
	.st41{fill:#F5F3F3;}
	.st42{fill-rule:evenodd;clip-rule:evenodd;fill:#612F01;}
	.st43{fill:#D1884F;}
	.st44{fill:#FEDC90;}
	.st45{opacity:0.2;fill:none;stroke:#191326;stroke-width:2.837;enable-background:new    ;}
</style>
<linearGradient id="SVGID_1_" gradientUnits="userSpaceOnUse" x1="125.5" y1="-51" x2="125.5" y2="36" gradientTransform="matrix(1 0 0 1 0 80)">
	<stop  offset="0" style="stop-color:#54DADE"/>
	<stop  offset="0.762" style="stop-color:#24C7D6"/>
</linearGradient>
<circle class="st0" cx="125.5" cy="72.5" r="43.5"/>
<path class="st1" d="M97.2,77.3v0.5c0,0.6,0.1,1.2,0.2,1.8h-0.2v0.9c0,0.5,0,0.9,0.1,1.4c1.2,8.8,13.3,15.8,28.2,15.8
	s27-7,28.2-15.8c0.1-0.5,0.1-0.9,0.1-1.4v-0.9h-0.2c0.1-0.6,0.2-1.2,0.2-1.8c0-0.2,0-0.3,0-0.5c-0.4-9.3-12.9-16.7-28.3-16.7
	S97.7,68,97.2,77.3z M94.9,77.3c0.2-5.6,4-10.4,9.4-13.6c5.5-3.4,13-5.4,21.2-5.4s15.7,2,21.2,5.4c5.3,3.2,9.2,8,9.4,13.6l0,0v3.3
	c0,5.9-3.9,10.8-9.4,14.1c-5.5,3.4-13,5.4-21.2,5.4s-15.7-2-21.2-5.4c-5.5-3.3-9.4-8.3-9.4-14.1V77.3L94.9,77.3z"/>
<path class="st2" d="M153.8,80.5c0,9.5-12.7,17.2-28.3,17.2S97.2,90,97.2,80.5v-2.7h56.5v2.7H153.8z"/>
<path class="st3" d="M153.8,77.8c0,9.5-12.7,17.2-28.3,17.2s-28.3-7.7-28.3-17.2s12.7-17.2,28.3-17.2S153.8,68.3,153.8,77.8
	L153.8,77.8z"/>
<path class="st4" d="M101.6,72.9L101.6,72.9c0,0.8,0.1,1.6,0.3,2.3h-0.3v1c0,0.4,0,0.9,0.1,1.3c1.1,6.5,10.1,11.6,21.1,11.6
	s20-5.1,21.1-11.6c0.1-0.4,0.1-0.9,0.1-1.3v-1h-0.3c0.2-0.7,0.3-1.5,0.3-2.2v-0.1c0-7.1-9.5-12.9-21.2-12.9S101.6,65.8,101.6,72.9z
	 M99.3,72.9L99.3,72.9v3.3c0,4.7,3.1,8.6,7.3,11.1c4.3,2.6,10,4.1,16.2,4.1s11.9-1.5,16.2-4.1c4.2-2.6,7.3-6.4,7.3-11.1V73v-0.1
	c0-4.7-3.1-8.6-7.3-11.1c-4.3-2.6-10-4.1-16.2-4.1s-11.9,1.5-16.2,4.1C102.4,64.4,99.3,68.2,99.3,72.9L99.3,72.9z"/>
<path class="st5" d="M143.9,76.2c0,7.1-9.5,12.9-21.2,12.9s-21.2-5.8-21.2-12.9v-3h42.3L143.9,76.2L143.9,76.2z"/>
<path class="st6" d="M143.9,73c0,7.1-9.5,12.9-21.2,12.9s-21.2-5.8-21.2-12.9s9.6-13,21.2-13S143.9,65.8,143.9,73z"/>
<path class="st4" d="M108,66L108,66c0,0.8,0.1,1.6,0.3,2.3H108v1c0,0.4,0,0.9,0.1,1.3c1.1,6.5,10.1,11.6,21.1,11.6s20-5.1,21.1-11.6
	c0.1-0.4,0.1-0.9,0.1-1.3v-1H150c0.2-0.7,0.3-1.5,0.3-2.2V66c0-7.1-9.5-12.9-21.2-12.9S108,58.8,108,66z M105.6,66L105.6,66v3.3
	c0,4.7,3.1,8.6,7.3,11.1c4.3,2.6,10,4.1,16.2,4.1c6.2,0,11.9-1.5,16.2-4.1c4.2-2.6,7.3-6.4,7.3-11.1V66c0-4.7-3.1-8.6-7.3-11.1
	c-4.3-2.6-10-4.1-16.2-4.1s-11.9,1.5-16.2,4.1C108.8,57.4,105.7,61.3,105.6,66z"/>
<path class="st5" d="M150.3,69.3c0,7.1-9.5,12.9-21.2,12.9S108,76.4,108,69.3v-3h42.3V69.3z"/>
<path class="st6" d="M150.3,66c0,7.1-9.5,12.9-21.2,12.9S108,73.1,108,66s9.5-12.9,21.2-12.9S150.3,58.9,150.3,66z"/>
<path class="st4" d="M101.6,59L101.6,59c0,0.8,0.1,1.6,0.3,2.3h-0.3v1c0,0.4,0,0.9,0.1,1.3c1.1,6.5,10.1,11.6,21.1,11.6
	s20-5.1,21.1-11.6c0.1-0.4,0.1-0.9,0.1-1.3v-1h-0.3c0.2-0.7,0.3-1.5,0.3-2.2V59c0-7.1-9.5-12.9-21.2-12.9S101.6,51.9,101.6,59z
	 M99.3,59L99.3,59v3.3c0,4.7,3.1,8.6,7.3,11.1c4.3,2.6,10,4.1,16.2,4.1s11.9-1.5,16.2-4.1c4.2-2.6,7.3-6.4,7.3-11.1v-3.2V59
	c0-4.7-3.1-8.6-7.3-11.1c-4.3-2.6-10-4.1-16.2-4.1s-11.9,1.5-16.2,4.1C102.4,50.5,99.3,54.3,99.3,59L99.3,59z"/>
<path class="st5" d="M143.9,62.3c0,7.1-9.5,12.9-21.2,12.9s-21.2-5.8-21.2-12.9v-3h42.3C143.9,59.3,143.9,62.3,143.9,62.3z"/>
<path class="st6" d="M143.9,59c0,7.1-9.5,12.9-21.2,12.9s-21.2-5.8-21.2-12.9s9.5-12.9,21.2-12.9S143.9,51.9,143.9,59z"/>
<g class="st7">
	
		<linearGradient id="SVGID_2_" gradientUnits="userSpaceOnUse" x1="119.35" y1="-27.732" x2="119.35" y2="-0.835" gradientTransform="matrix(1 0 0 1 0 80)">
		<stop  offset="0" style="stop-color:#9F4A08"/>
		<stop  offset="0.37" style="stop-color:#7D3900"/>
		<stop  offset="1" style="stop-color:#8D4104"/>
	</linearGradient>
	<path class="st8" d="M106.6,59.8c0,2.4,1.7,4.5,4.5,6l-1.9,3.3l0,0l0,0v8.3c0,1.1,0.9,2,2,2s2-0.9,2-2v-6.6l2-3.5
		c1.3,0.3,2.7,0.4,4.2,0.4c7,0,12.7-3.5,12.7-7.8s-5.7-7.8-12.7-7.8S106.6,55.5,106.6,59.8z"/>
	<path class="st9" d="M111.1,65.8l-0.9-0.5c-2.2-1.4-3.6-3.3-3.6-5.5c0-4.3,5.7-7.8,12.7-7.8s12.7,3.5,12.7,7.8s-5.7,7.8-12.7,7.8
		c-1.4,0-2.8-0.1-4.2-0.4l-2,3.5v6.6c0,1.1-0.9,2-2,2s-2-0.9-2-2V69C109.2,69.1,111.1,65.8,111.1,65.8z M107.1,69.1v8.3
		c0,2.2,1.8,4,4,4s4-1.8,4-4v-6.1l1.1-1.8c1,0.1,2.1,0.2,3.1,0.2c3.8,0,7.4-1,10.1-2.6c2.6-1.6,4.7-4.1,4.7-7.3s-2.1-5.6-4.7-7.3
		c-2.7-1.6-6.2-2.6-10.1-2.6s-7.4,1-10.1,2.6c-2.6,1.6-4.7,4.1-4.7,7.3c0,2.7,1.6,5,3.8,6.6l-0.9,1.6c-0.1,0.1-0.2,0.3-0.2,0.5
		C107.2,68.7,107.1,68.9,107.1,69.1L107.1,69.1z"/>
</g>
<g class="st7">
	<g class="st10">
		<path id="F" class="st11" d="M110.6,56.5c0,2.2,2.9,4.1,6.4,4.1s6.4-1.8,6.4-4.1s-2.9-4.1-6.4-4.1S110.6,54.3,110.6,56.5z"/>
	</g>
	<path class="st12" d="M110.6,54.8h12.8v1.7h-12.8V54.8z"/>
</g>
<g class="st7">
	<path class="st13" d="M110.6,54.8c0,2.2,2.9,4.1,6.4,4.1s6.4-1.8,6.4-4.1s-2.9-4.1-6.4-4.1S110.6,52.6,110.6,54.8z"/>
</g>
<path class="st14" d="M114.5,54.3l1.8-1.1c0.4-0.2,0.9-0.2,1.2,0l1.8,1.1c0.3,0.2,0.3,0.5,0.2,0.8c0,0.1-0.1,0.1-0.2,0.2l-1.8,1.1
	c-0.4,0.2-0.9,0.2-1.2,0l-1.8-1.1c-0.3-0.2-0.3-0.5-0.2-0.8C114.4,54.4,114.5,54.4,114.5,54.3z"/>
<path class="st15" d="M111.3,50.2c1.5-1,3.5-1.5,5.6-1.5s4.1,0.5,5.6,1.5s2.8,2.5,2.8,4.6v1.7c0,2.1-1.3,3.6-2.8,4.6
	s-3.5,1.5-5.6,1.5s-4.1-0.5-5.6-1.5s-2.8-2.5-2.8-4.6v-1.7C108.5,52.7,109.8,51.2,111.3,50.2z M116.9,50.7c-3.5,0-6.4,1.8-6.4,4.1
	v1.7c0,2.2,2.9,4.1,6.4,4.1s6.4-1.8,6.4-4.1v-1.7C123.3,52.6,120.5,50.7,116.9,50.7z"/>
<circle class="st16" cx="125.5" cy="72.5" r="42.1"/>
<g>
	<path class="st17" d="M41.2,35.4c-1.2,0-2.2,0.5-3.1,1.2c-0.8,0.9-1.3,2-1.4,3.3c0,0.7,0,1.3,0.2,2c0.3,0.7,0.5,1.2,0.8,1.5
		c0.5,0.5,0.9,0.9,1.3,1.2c0.6,0.3,1.1,0.5,1.7,0.4c0.9-0.1,1.7-0.6,2.4-1.4c0.3-0.4,0.5-0.8,0.7-1.2c0.2-0.8,0.4-1.4,0.4-1.7
		l-1.8-5.3C42,35.4,41.6,35.4,41.2,35.4"/>
</g>
<g>
	<path class="st17" d="M104.6,34.5l-0.8,9.2c0.7-0.3,1.2-0.5,1.5-0.8c0.6-0.4,1.1-0.8,1.5-1.3c0.4-0.4,0.7-0.9,1.1-1.5
		c0.2-0.5,0.3-1,0.4-1.4c0-0.4,0-0.8-0.2-1.2c-0.2-0.5-0.5-1-0.9-1.4C106.4,35.3,105.6,34.8,104.6,34.5"/>
</g>
<g>
	<path class="st18" d="M102.5,32.9c-2.6-3.2-6.7-5.1-12.1-5.8c-2.4-0.2-8.5-0.2-18.2-0.1c-9.8,0.3-16.5,0.7-20.3,1.2
		c-2.6,0.4-4.9,1.2-6.9,2.2c-1.4,0.7-2.7,2-4,3.8l4.1,7.9c1.9,0.2,4,0.4,6.5,0.4l13.1,0.1l15.5-0.5L99.5,42c0.9,0,1.8-0.1,2.7-0.2
		c1.5-0.3,2.3-0.5,2.7-0.8c0.3-0.2,0.5-0.7,0.5-1.6C105.6,37.3,104.6,35.1,102.5,32.9"/>
</g>
<g>
	<path class="st19" d="M45.1,43.2L45,50.7c0-0.3,0-0.5,0-0.6l0-1.1l0-0.8c0-0.3,0-0.7,0-1c0-0.1,0-0.6,0-1.3c0-0.2,0-0.4,0-0.6
		l0-0.8c0-0.1,0-0.2,0-0.3C45.1,43.8,45.1,43.5,45.1,43.2L45.1,43.2"/>
</g>
<g>
	<path class="st19" d="M45.2,41C45.1,41,45,41,45,41.1c-0.1,0.7-0.3,1.7-0.5,2.9c0,0.3-0.1,0.5-0.1,0.8h0c-0.1,0.2-0.2,0.4-0.1,0.8
		l0,0c-0.1,1-0.2,2-0.2,3c0,1.2,0.1,2.4,0.3,3.6h0c-0.3,2.8-0.8,5.5-1.7,8.3c-0.6,1.9-1.4,3.8-2.4,5.8l-6.2,12
		c-1.8,4.4-2.8,7.2-2.9,8.4c-1,3.4-1.3,13.3-1,29.9c0.2,9.9,0.6,16.3,1.2,19.2c3,2.8,7.9,5.4,14.8,7.9c7.7,2.6,15.8,3.9,24.3,3.9
		c7.6,0,15.4-1.1,23.6-3.2c5.9-1.5,12.1-4.5,18.7-9c1-2.1,1.5-5.6,1.5-10.5c-0.2-13.5-0.9-26.8-2.3-39.7c-1.3-8-3.9-14.1-8-18.3
		l-0.5-0.2h0c-1.7-3-2.8-5.9-3.4-8.7c-0.7-2.6-0.8-7.6-0.2-15.1c-0.1-0.2-0.4-0.2-0.9-0.3c-1.2-0.1-2.5-0.2-3.8-0.3
		c-0.3,0-0.7,0-1.2,0c-1.2,0-3.1,0.1-5.5,0.2l-0.1,0c-1.4,0.1-2.7,0.2-4,0.3l-10.1,1.1c-0.6,0.1-3.5,0.3-8.7,0.6
		c-1.7,0.1-3.8,0.1-6.4,0.2l0,0l1.5-1.3c-4.5-0.2-7.4-0.4-8.7-0.6c-0.9-0.1-1.9-0.4-3.1-0.7c-0.8-0.2-1.8-0.5-2.9-0.9
		C45.5,41,45.4,41,45.2,41L45.2,41C45.2,41,45.2,41,45.2,41z"/>
</g>
<g>
	<path class="st17" d="M122.8,74.3c-1.5,0.1-5.5,0.3-11.9,0.5l-4,0.3c-2.4,0.2-4.9,0.4-7.7,0.6l-7.9,0.5c-3.8,0.3-8.4,1-13.7,1.9
		c-3.1,0.7-4.8,1.5-5.3,2.3c-1.3,1.9-1.5,3.6-0.6,5.1c0.5,1.1,1.6,2,3.2,2.7c0.5,0.1,1,0.2,1.7,0.2c3.6,0,5.3,0.1,5.2,0
		c0.6,0,2.5-0.1,5.7-0.4l7.8-1l6.2-0.7l4.1-0.3l6.9-0.4c0.5,0,1-0.1,1.5-0.1c1.7-0.2,3.5-0.4,5.2-0.6c0.4,0,1.6-0.2,3.5-0.6
		c2.4-0.7,3.6-1.6,3.5-2.9l-0.1-0.8L122.8,74.3"/>
</g>
<g>
	<path class="st18" d="M114.4,139l-2.8-2.3c-3.5,3.1-8.8,5.6-15.9,7.7c-7.4,1.9-16.2,2.9-26.4,3c-1.9,0-4.1-0.2-6.6-0.6
		c-2.8-0.4-5.7-1.1-8.8-2l-15.9-5.2c-2-0.7-3.9-1.6-5.7-2.7c-0.2-0.1-0.3,0-0.3,0.1c-2.2,6.6,1.4,12.6,10.9,18
		c2.4,1.3,4.4,2.3,6.2,2.8c3.3,1.2,6.3,2,9,2.4c1.9,0.4,3.7,0.6,5.4,0.7c2.8,0.2,7.4,0.4,13.7,0.6c8.4,0.1,16.8-2.5,25.4-7.8
		C108.1,150.4,112,145.5,114.4,139"/>
</g>
<g>
	<path class="st20" d="M99.8,42.7c-0.5,2.8-0.9,5.8-1.2,8.9c-0.2,2-0.4,4.2-0.5,6.4c-0.2,4.4,0.1,7.7,0.8,10
		c0.2,0.8,0.5,1.5,0.7,2.1c1.2,2.5,1.8,4,1.9,4.5c0,0.1,0.1,0.2,0.2,0.2c0.1,0.1,0.4,0.1,0.9,0.1l3.2-0.5c0.4-0.1,0.6-0.3,0.6-0.5
		c0-0.1,0-0.3-0.1-0.4c-2.4-5.3-3.6-8-3.6-8.2c-0.7-1.9-1.2-3.6-1.6-5.2c-0.3-1.6-0.5-3.7-0.5-6.2c0-1.8,0.2-3.8,0.6-5.8L99.8,42.7"
		/>
</g>
<g>
	<path class="st20" d="M105,86.6c0.4,2.6,0.7,5.9,1,9.7c0.1,1.4,0.2,4.6,0.3,9.5l0,7.6l0,9.1c0,0.9,0,1.7,0,2.6
		c0,0.8-0.2,3.7-0.5,8.8c-0.1,1.4-0.2,2.7-0.5,3.8c0,0.5,0.2,0.7,0.5,0.7c4-1,6.6-2.3,7.8-4c1-2.5,1.5-8,1.4-16.4l-0.1-2.8
		c-0.1-4.2-0.2-6.7-0.2-7.3c0-0.7-0.1-3.2-0.1-7.6c0-1,0-1.9-0.1-2.8c-0.2-3.2-0.5-6.7-0.9-10.6L105,86.6"/>
</g>
<g>
	<path class="st21" d="M113.2,136.2l-7.4,3.7c-0.4,2.2-1.2,4.5-2.6,6.7c-1.4,2.1-3.1,4-5,5.6c-3.3,2.7-7.2,4.9-11.7,6.6
		c0.9,0.1,2.9-0.3,6-1c1.2-0.3,2.8-0.8,4.9-1.6c2.3-0.8,4.8-2.2,7.4-4.3c2.6-2.2,4.6-4.5,5.8-6.9C111.9,143,112.7,140.1,113.2,136.2
		"/>
</g>
<g>
	<path class="st22" d="M48.6,43.8l-5,0.4l0.3,6.7c0,1.6,0,3,0,4.2c-0.1,2.2-0.4,4.3-1,6.1c-0.6,2.1-1.2,3.8-1.9,5.1
		c-0.1,0.5-1.8,3.4-4.9,8.8c-0.4,0.8-0.9,1.8-1.5,3c-1,2.3-1.7,4.4-2.1,6.3c-1.2,6.8-1.9,11.9-2,15.2c-0.2,3.9-0.3,12.5-0.1,25.8
		c0.1,3.3,0.4,5.5,1,6.4c0.6,1.2,1.2,2.1,1.6,2.6l2,2.1c0.3,0.2,0.4,0.2,0.5,0l-0.6-11.8c-0.1-2.4-0.1-4.1-0.1-5.2l0.6-22.2
		c0.2-4.1,0.3-6.3,0.4-6.7c0.3-2.3,1-4.6,2.1-6.7c0.3-0.6,0.7-1.3,1.1-1.9c3.4-5,5.6-8.3,6.4-9.8c2-3.3,2.9-5.3,3-5.9
		c0.3-0.8,0.5-2.4,0.5-5C48.9,60.2,48.8,54.3,48.6,43.8"/>
</g>
<g>
	<path class="st22" d="M31.6,136c-0.1,3.4,1,6.6,3.2,9.7c1.5,1.9,2.8,3.3,3.8,4.1c1.2,1.1,3.1,2.5,5.7,4l0.3,0.2
		c-0.7-0.4-1.3-0.9-1.9-1.5c-0.6-0.5-1-1-1.5-1.5c-1.1-1.2-1.8-2.3-2.3-3.3c-1.6-3.3-2.7-6.4-3-9.4L31.6,136 M44.6,154.1
		c0.9,0.6,2,1.2,3.3,1.7C47.1,155.4,46,154.9,44.6,154.1 M48,155.8C49.8,156.6,49.8,156.6,48,155.8 M49.4,156.4
		C52.2,157.4,52.2,157.4,49.4,156.4"/>
</g>
<g>
	<path class="st23" d="M123.3,75.1L110,75.5l-16.3,0.8c-2.9,0.1-4.8,0.1-6,0.1l-3.5,0.1c-2,0.1-3.6,0.4-4.9,0.8
		c-2.1,0.7-3.3,1.4-3.7,2.3c0,0.2,0,0.4,0.1,0.6c0.6,1.3,1,2.5,1.3,3.4l1,4.9c0.1,0.2,0.3,0,0.5-0.4c0.3-0.6,0.6-1.1,0.8-1.7
		c0.3-0.6,0.6-2,0.9-4c0.1-0.5,0.2-0.9,0.4-1.1c0.1-0.4,0.7-0.8,1.7-1.1c0.7-0.2,1.4-0.3,2.2-0.4l9.8-0.9c3-0.2,5.4-0.3,7.2-0.4
		c2.3,0,5.7-0.1,10.1-0.3l5.1-0.3l5.7-0.4c0.7,0,1.5-0.1,2.3-0.1l0.1,0L123.3,75.1"/>
</g>
<g>
	<path class="st23" d="M120.2,77.2l0.2,0c0,0-0.1,0-0.1,0l0,0C120.3,77.2,120.3,77.2,120.2,77.2"/>
</g>
<g>
	<path class="st23" d="M120.7,77.6c-0.1,0-0.2,0-0.2,0c-0.1,0-0.1,0-0.2,0L120.7,77.6"/>
</g>
<g>
	<path class="st24" d="M126.7,76.9l-5.6-2.7c1.2,1.7,1.4,3.3,0.7,4.7c-0.5,1.2-1.9,2.2-4.2,3c-0.6,0.2-1.5,0.4-2.6,0.5
		c-4.1,0.6-6.7,0.8-7.6,0.9l-5.6,0.4l-2.4,0.2c-1.2,0.2-2.6,0.3-4.2,0.5l-4.4,0.4c0,0-2,0.1-6,0.4l-4.3,0.3c-0.8,0-1.5,0.1-2.2,0.1
		c-0.6,0.1-1.1,0.8-1.4,1.9c0.1,0.5,1.4,0.7,4,0.6c1-0.1,1.9-0.2,2.7-0.3c2.1-0.3,4-0.6,5.8-0.9c1-0.2,1.9-0.3,2.5-0.3l13.4-1
		c2.1-0.2,4.7-0.3,7.9-0.5l2.3-0.2c1.1-0.1,2.8-0.3,5.1-0.8C124.7,83.4,126.8,81,126.7,76.9"/>
</g>
<g>
	<path class="st23" d="M40.6,35.1c-0.5,0-1,0.1-1.4,0.3c-0.3,0.1-0.6,0.3-1.1,0.8c-0.4,0.4-0.7,0.8-1,1.3c-0.2,0.4-0.4,0.8-0.4,1.3
		c0,0.7,0,1.2,0.1,1.5c0.2,0.6,0.4,1.1,0.6,1.4c0.3,0.5,0.7,1,1.2,1.3c0.3,0.3,0.7,0.5,1.2,0.6c0,0,0,0,0-0.1
		c-0.3-0.4-0.5-0.8-0.6-1.2c-0.1-0.3-0.1-0.7-0.2-1.1c0-0.6,0.1-1.1,0.3-1.5c0-0.1,0.1-0.1,0.2-0.1c0,0,0.1,0,0.4,0c0,0,0.1,0,0.1,0
		c0,0,0,0,0-0.1c-0.1-0.2-0.2-0.3-0.2-0.3c0-0.1-0.1-0.1-0.1-0.2c0,0,0-0.1,0-0.1c0-0.1,0.1-0.1,0.1-0.2c0.5-0.6,0.9-0.9,1.4-0.8
		c0.7,0,1.3,0.4,1.7,1.1L41,35.1C40.9,35.1,40.8,35.1,40.6,35.1"/>
</g>
<g>
	<path class="st23" d="M39,37.9l-0.4,1.8c0.4,0.1,0.8,0.1,1.2,0.2c0,0,0.1,0,0.1,0c0,0,0-0.1-0.1-0.3c0-0.1-0.1-0.2-0.2-0.4
		C39.7,39.1,39.4,38.7,39,37.9"/>
</g>
<g>
	<path class="st25" d="M102,31.8c-1.5-1.1-2.9-1.9-4.2-2.4c-1.2-0.4-3.1-0.8-5.7-1C89.6,28.2,87,28,84.4,28c-1.5,0-2.6,0-3.3,0
		c-3.6,0.1-6,0.1-7.3,0.2c-0.4,0-1.3,0-2.7,0l-9.4-0.3c-1.8-0.1-3.7-0.2-5.7-0.2c-2.1,0-3.5,0-4.3,0.1c-2.4,0.3-4.2,0.7-5.4,1.4
		c-1.8,0.9-3.4,2.3-5.1,4.1c-0.3,0.4-0.3,0.6-0.2,0.8c1.3,1.5,2.5,2.9,3.5,4.2c0.1,0,0.1,0,0.1-0.1c0-0.7,0-1.3,0.1-1.9
		c0.1-0.4,0.2-0.8,0.4-1.2c0.5-0.9,1.2-1.6,2.1-2.1c1-0.6,2.3-1,3.9-1.2c0.8-0.2,2.6-0.3,5.4-0.3c0.4,0,0.7,0,1,0l5.5,0.2
		c4.9,0,8,0,9.1,0l3.2,0l2.9-0.1l9.5-0.1l3.3-0.1c2.3,0,3.8,0.1,4.5,0.2c1.8,0.2,3.6,0.8,5.4,1.8c1.7,1.2,3,2.6,3.9,4.2l-1.5-5.1
		C103.1,32.6,102.6,32.2,102,31.8"/>
</g>
<g>
	<path class="st21" d="M103.4,31.4L97,29.6c1,0.7,1.9,1.5,2.7,2.6c0.4,0.6,0.6,1.2,0.4,2c-0.9,2.4-2.7,3.9-5.7,4.7
		c-2.4,0.6-5.2,1-8.3,1.2L67.4,41c-0.4,0-0.8,0-1.2,0.1c-0.1,0-0.1,0-0.1,0c1.3,0.7,3.2,1.2,5.7,1.8c1.1,0.3,3.2,0.5,6.3,0.6
		c1.9,0,3,0,3.4-0.1l10.4-0.8c2.7-0.2,5.3-0.6,7.9-1.1c1.4-0.4,2.3-0.8,2.9-1.3c0.7-0.4,1.2-1.2,1.7-2.3
		C105.1,36,104.8,33.8,103.4,31.4"/>
</g>
<g>
	<path class="st26" d="M74.3,26l0.4,0l0,0l-0.2,0h0C74.4,26,74.4,26,74.3,26L74.3,26C74.3,26,74.3,26,74.3,26L74.3,26z M70.8,26
		c0,0-0.1,0-0.1,0l0,0c0,0,0,0-0.1,0l0,0L70.8,26L70.8,26z M71.7,18.2c0.9,0,1.8,0.1,2.8,0.4c1.1,0.3,2.2,0.8,3.5,1.5
		c1.4,0.9,2.6,2,3.6,3.2c0.6,0.7,1,1.2,1.3,1.7c0.2,0.3,0.5,0.7,0.7,1.2h0c-0.2,0-0.3,0-0.4,0c0,0-0.1,0-0.1,0c0,0-0.1,0-0.1,0
		c-0.3,0-1.2,0-2.6,0L77.3,26l-0.8,0l-1.8,0l0,0l-0.2,0c0,0-0.1,0-0.1,0c0,0-0.1,0-0.2,0h0c-0.1,0-0.2,0-0.3,0l-1.2,0l0,0l-0.5,0
		l-0.5,0l-0.4,0l0,0l-1.3,0c-0.1,0-0.2,0-0.3,0l0,0c0,0,0,0,0,0c-0.1,0-0.1,0-0.1,0c-0.1,0-0.2,0-0.4,0h0l-1.8,0l-0.8,0l-3.1,0.1
		c-1.4,0-2.3,0-2.6,0c-0.1,0-0.1,0-0.1,0c0,0,0,0-0.1,0c-0.1,0-0.1,0-0.3,0l0,0c1.2-2.3,2.7-4.1,4.5-5.5c0.4-0.3,0.7-0.5,1.1-0.8h0
		c1.4-0.8,2.9-1.3,4.5-1.6h0c0.3,0,0.5-0.1,0.8-0.1C71.5,18.2,71.6,18.2,71.7,18.2z M90.6,29.2C90.6,29.2,90.6,29.2,90.6,29.2
		c-0.1,0-0.2,0-0.2,0c0,0-0.1,0-0.1,0h0L90.6,29.2L90.6,29.2z M90.4,29.2c0.4,0,0.7,0,1,0c1.1,0.1,1.6,0.1,1.7,0.1c0,0,0,0,0,0
		c0.3,0,0.6,0,0.8,0l0,0c0,0,0.1,0,0.1,0c1.3,0.2,2.5,0.6,3.6,1c1.2,0.6,2.3,1.2,3.2,2.1c1.1,1,1.9,2,2.4,3.1c0.7,1.5,0.6,2.8-0.2,4
		c-0.1,0.1-0.1,0.1-0.2,0.2c0,0,0,0,0,0h0c0,0,0,0-0.1,0.1c0,0,0,0,0,0h0c-0.2,0.2-0.5,0.4-0.8,0.5c0,0,0,0,0,0h0c0,0-0.1,0-0.1,0
		c-0.3,0.1-0.6,0.2-1,0.2h0c-0.1,0-0.1,0-0.2,0c-0.3,0-0.6,0-0.7,0c0,0,0,0,0,0c-0.2,0-0.3,0-0.5,0c0,0,0,0-0.1,0l0,0c0,0,0,0,0,0h0
		c-0.4,0-0.9,0-1.7,0.1c-1.3,0.1-3.2,0.2-5.8,0.3c-0.6,0-1.3,0.1-2.1,0.1c-0.4,0-1.2,0-2.5,0l-5,0l-4.2,0c-0.2,0-0.5,0-0.7,0
		c-0.9,0-1.7,0-2.4,0l0,0c-0.2,0-0.3,0-0.5,0c-0.6,0-1,0-1.2,0c0,0,0,0,0,0c0,0-0.1,0-0.1,0c0,0,0,0,0,0c-0.1,0-0.2,0-0.3,0l-0.6,0
		l-0.2,0l-0.4,0l-0.8,0l0,0c-1.1,0-2.5,0-4.2,0.1c-0.2,0-0.5,0-0.7,0l-4.2,0l-5,0c-1.2,0-2,0-2.5,0c-0.8,0-1.5,0-2.1-0.1
		c-2.7-0.1-4.7-0.2-6-0.3l0,0c0-0.2,0-0.4,0-0.6c-0.1-1.8-0.7-3.4-1.8-4.8c-0.7-0.8-1.5-1.3-2.3-1.6c0.4-0.5,0.8-0.9,1.2-1.3
		c0.9-0.8,2-1.5,3.2-2.1c1.1-0.5,2.3-0.8,3.6-1c0,0,0,0,0,0h0c0.7-0.1,1.2-0.1,1.4-0.1c0.2,0,0.3,0,0.4,0c0,0,0,0,0,0l1.4,0
		c0.5,0,0.9,0,1.3,0c0.2,0,0.3,0,0.5,0l0,0c0.8,0,1.8,0.1,2.9,0.1c1.5,0.1,2.2,0.1,2.3,0.1c0,0,0,0,0,0l0,0c0.1,0,0.3,0,0.8,0
		c0.6,0,1.4,0,2.6,0l3.7-0.1l1.1,0l3.6,0l0,0l-0.3,0h0c0,0,0,0,0,0c0.2,0,0.4,0,0.7,0l0,0h0c0.1,0,0.1,0,0.2,0l0.4,0l0,0l-1,0l0,0
		l3.6,0l1.1,0l3.7,0.1c1.2,0,2.1,0,2.6,0c0.5,0,0.7,0,0.8,0l0,0c0,0,0,0,0,0c0,0,0.4,0,1.1,0l0,0l1.4,0c0,0,0,0,0,0
		c0.2,0,0.3,0,0.5,0c0.2,0,0.4,0,0.5,0l1.3-0.1h0c0.2,0,0.4,0,0.6,0C89.5,29.2,89.9,29.2,90.4,29.2L90.4,29.2z M107,36.2
		c0.7,0.8,1,1.7,0.9,2.9c-0.2,1.4-0.9,2.4-1.9,3c-0.5,0.3-1,0.5-1.5,0.7c0.1,0,0.1-0.1,0.2-0.1h0c0,0,0,0,0,0h0
		c0.5-0.4,1-0.8,1.4-1.4c0.6-0.9,1-2,1.1-3.3C107.1,37.3,107.1,36.8,107,36.2L107,36.2z M40.1,36.9c0.7,0,1.3,0.4,1.9,1
		c0.3,0.4,0.6,0.9,0.7,1.4c-0.2-0.1-0.4-0.1-0.6-0.1l-0.1,0c-0.7,0-1.2,0.3-1.5,0.9c-0.3,0.6-0.3,1.1,0.1,1.8l0.8,1.1h0
		c0,0.1,0,0.2,0,0.4h0c-0.3,0.2-0.6,0.3-1,0.3c-0.7,0-1.3-0.4-1.9-1c-0.5-0.6-0.8-1.4-0.8-2.3c-0.1-0.9,0.1-1.7,0.6-2.3
		C38.8,37.3,39.4,37,40.1,36.9L40.1,36.9z M71.9,44.6L71.9,44.6L71.9,44.6l0.3,0l0,0c0,0-0.1,0-0.1,0C72.1,44.6,72,44.6,71.9,44.6
		L71.9,44.6L71.9,44.6z M101.9,46.4l0.8,1l18.2,24.9l0.7-0.1l-0.6,0l-11.8,0.9c-1.1-1.7-2.6-3.8-4.3-6.3c-0.9-1.5-1.5-2.8-1.8-3.9
		c-0.5-1.6-0.7-6.8-0.5-15.6l0,0L101.9,46.4L101.9,46.4z M99.4,44.1C99,54.5,99.1,60.8,99.6,63c0.3,1.6,1,3.4,2.1,5.1
		c0.3,0.5,1.4,2.3,3.5,5.4h0L73.5,76c-0.2,0-0.4,0.1-0.6,0.2h0c-0.8,0.2-1.4,0.6-2,1.3L46.6,44.3l0,0c1.4,0.1,3.2,0.2,5.4,0.3
		c1.3,0.1,2.8,0.1,4.6,0.1l5,0c2.3,0,4,0,5.2,0c0.4,0,0.8,0,1.1,0c1.2,0,2.1,0,2.6,0l1.4,0c0,0,0.1,0,0.1,0l0,0c0,0,0.1,0,0.1,0
		l1.4,0c0.5,0,1.4,0,2.6,0c0.3,0,0.7,0,1.1,0c1.2,0,3,0,5.2-0.1l5,0c1.7,0,3.3-0.1,4.6-0.1C95.6,44.3,98,44.2,99.4,44.1L99.4,44.1z
		 M121.6,75.6c0.8,0.1,1.4,0.4,1.9,1.1c0.8,1.2,1.1,2.5,0.9,3.9c-0.2,0.9-0.5,1.6-1.1,2.2c-0.3,0.2-0.5,0.4-0.8,0.6h0l-1.5,0.1
		l-0.3,0l-0.5,0l-5.7,0.5l-3.4,0.3l-32.4,2.8c0.4-1.1,0.5-2.3,0.5-3.7C79,81.8,78.7,80.3,78,79h0l31.2-2.4l2.1-0.2h0L121.6,75.6
		L121.6,75.6z M73.9,79.4c1.1,0.6,1.7,1.9,1.8,4c0,1-0.1,1.9-0.3,2.6c-0.3,0.8-0.7,1.3-1.1,1.5l0,0l0,0c-0.6-0.3-1-0.8-1.3-1.6h0
		c0.3,0.2,0.6,0.3,1,0.3c0.7,0,1.2-0.3,1.5-0.8c0.3-0.5,0.3-1.1,0-1.8L73,80.4h0C73.2,80,73.5,79.7,73.9,79.4L73.9,79.4z M44.5,47.1
		l0.5,0.7l24.3,33.3h0c-0.1,0.7-0.2,1.5-0.2,2.4c0.1,2.1,0.6,3.9,1.6,5.4c1,1.4,2.2,2.1,3.5,2.1h0c0.2,0,0.3,0,0.5,0l36.7-3.2l0,0
		l0,0c0,0.3,0.1,0.6,0.1,0.9c0.6,5.4,0.8,17.1,0.6,35.1c0,4.2-0.1,7.8-0.2,10.8h0c-0.1,0-0.2,0-0.4,0.1c-3.3,2.3-6,3.9-8.1,4.9
		c-2.6,1.2-5.8,2.3-9.4,3.2c-3,0.8-5.5,1.3-7.7,1.7c-2.7,0.4-5.1,0.8-7,1h0c0,0,0,0,0,0c0.1,0,0.1,0,0.2,0l0,0
		c-0.7,0.1-1.5,0.2-2.5,0.2c-0.4,0-0.6,0-0.9,0.1l0,0c0.7,0,1.3-0.1,2-0.2c0.4,0,0.8-0.1,1.2-0.1h0c0,0,0,0-0.1,0
		c-1.4,0.1-2.8,0.3-4.2,0.3c-0.4,0-0.7,0-1.1,0h0c-0.2,0-0.4,0-0.5,0l-2.3,0c0,0,0,0,0,0c-0.1,0-0.4,0-1,0l-1.3-0.1l-1.7-0.2
		l-2.2-0.2l-1.4-0.1c-0.3,0-0.6,0-0.8,0h0c-1.3-0.2-2.8-0.4-4.4-0.6c-2.2-0.4-4.8-1-7.7-1.7c-3.7-0.9-6.8-1.9-9.4-3.2
		c-2.2-0.9-4.9-2.6-8.1-4.9c0,0,0,0-0.1,0h0c0,0,0,0,0,0c0,0-0.1-0.1-0.1-0.1c0,0,0-0.1-0.1-0.1c0,0-0.1-0.1-0.1-0.1
		c0,0,0-0.1-0.1-0.1c0,0,0,0,0,0h0c-0.2-2.9-0.3-6.4-0.3-10.5c-0.2-18-0.1-29.7,0.5-35.1c0.3-3.4,0.9-6,1.8-7.8
		c0.6-1.2,1.3-2.5,2.1-3.8c3.6-5.1,5.5-8.1,5.9-8.8c1-1.8,1.7-3.5,2-5.2c0.5-2,0.6-7.1,0.3-15.3l0,0L44.5,47.1z M111.7,138.6
		c-0.1,1.2-0.3,2.3-0.5,3.1c-1.3,5.1-4.7,9-10.1,11.9c-8,4-17,6.2-27.2,6.5l-0.3,0c-0.1,0-0.1,0-0.2,0c-0.2,0-0.3,0-0.4,0
		c0,0,0,0,0,0l-0.7,0l-0.4,0c-10.6-0.2-20-2.3-28.3-6.4c-5.5-2.8-8.9-6.8-10.2-11.8c-0.2-0.8-0.3-1.8-0.5-2.9h0c0,0,0,0,0,0
		c0,0,0.1,0,0.1-0.1c0,0,0,0,0,0h0c1.1,0.8,2.4,1.6,3.8,2.4c3.5,2,7.8,3.6,12.9,4.8c4.3,1.1,7.3,1.7,8.9,1.9
		c1.5,0.2,2.9,0.4,4.1,0.6h0c0.4,0.1,0.7,0.1,1,0.2c0.1,0,0.2,0,0.2,0l1.1,0.1c0.5,0,1,0.1,1.5,0.2l1.1,0.1l1.6,0.1l1.4,0.1
		c0.2,0,0.4,0,0.5,0c0.5,0,0.9,0,1.1,0c0.1,0,0.2,0,0.3,0c0,0,0,0,0,0c0.1,0,0.4,0,0.8,0c0.6,0,0.9,0,0.9,0l0.7,0l1,0
		c0.2,0,0.5,0,0.7-0.1c1.1-0.1,1.6-0.2,1.6-0.2c0.7-0.1,1.3-0.2,1.9-0.3h0c1.6-0.2,3.5-0.5,5.7-0.8c1.6-0.2,4.5-0.9,8.8-1.9
		c5.1-1.3,9.4-2.9,12.9-4.9C109.2,140.2,110.5,139.4,111.7,138.6L111.7,138.6z M73.9,163.4L73.9,163.4c-0.5,0-1,0-1.5,0h0
		c0,0,0.1,0,0.1,0C72.9,163.4,73.4,163.4,73.9,163.4C73.9,163.4,73.9,163.4,73.9,163.4L73.9,163.4z M71.8,14.4
		c-1.5,0-2.9,0.2-4.2,0.7l0,0c-1.2,0.3-2.2,0.7-3.2,1.3c-1.6,0.7-3.2,2-4.8,3.8c-1.5,1.6-2.5,3.5-3.2,5.7l0,0c0,0-0.1,0-0.1,0
		c-0.1,0-0.1,0-0.2,0c-0.3,0-0.5,0-0.7,0l-0.8,0c0,0,0,0,0,0c0,0-0.1,0-0.2,0c0,0-0.1,0-0.1,0l0,0c-0.4,0-0.7,0-1,0
		c-0.1,0-0.2,0-0.3,0l0,0c-3.5,0.1-6.5,0.9-9.1,2.4c-2.6,1.6-4.5,3.6-5.6,5.8l0,0c-0.7,0.3-1.4,0.8-2,1.5c-1.1,1.3-1.7,2.9-1.7,4.8
		c0.1,1.8,0.7,3.4,1.8,4.8c1.2,1.3,2.6,2,4.2,2c0.4,0,0.8,0,1.2-0.1h0c0.3,9.2,0.2,14.7-0.4,16.3c-0.3,1.1-0.9,2.4-1.8,3.9
		C34.7,74,32.2,77.9,31.9,79c-1,1.8-1.8,4.5-2.2,8.2c-0.7,5.1-0.9,17.3-0.6,36.5c0.1,9.2,0.5,15.5,1.2,18.9
		c1.9,6.8,6.5,11.7,13.8,14.9c8.2,3.7,17.2,5.6,26.9,5.8l0,0c-0.1,0-0.2,0-0.2,0h0l0,0h0l0.5,0l0.8,0l0.3,0c-0.5,0-0.9,0-1.4,0h0
		c0,0,0.1,0,0.1,0c0.4,0,0.9,0,1.3,0h0l0.1,0l0.1,0h0l1.4,0c0.2,0,0.3,0,0.4,0l0,0c-0.1,0-0.2,0-0.3,0h0c9.7-0.2,18.6-2.2,26.8-5.9
		c7.3-3.2,11.8-8.2,13.7-15c0.7-3.4,1.1-9.7,1.1-18.9c0.2-18.8-0.1-30.8-0.7-36.2c0,0,0,0,0,0l7.2-0.6h0l3-0.3h0
		c0.5-0.3,1-0.7,1.4-1.3h0c0,0,0,0,0,0c0.1-0.1,0.2-0.2,0.2-0.3c0.9-1.5,1.4-3.3,1.3-5.4c0-0.3,0-0.5-0.1-0.8c0,0,0,0,0,0
		c0.1-0.1,0.1-0.2,0.2-0.3c0.3-0.5,0.3-1.1,0-1.8l-1.2-1.7c-0.2-0.3-0.3-0.6-0.5-0.9c-0.3-0.4-0.5-0.7-0.8-0.9c0,0,0,0,0,0
		l-19.9-27.2l0,0c1-0.3,1.9-0.8,2.7-1.5c1.5-1.2,2.5-2.9,2.8-5c0.2-2.1-0.4-3.8-1.6-5.3c-1.5-1.8-3.3-2.8-5.4-3.1l0,0
		c-1-1.1-2.2-2.1-3.7-3c-2.6-1.5-5.7-2.3-9.1-2.3l0,0c-0.1,0-0.2,0-0.3,0c-0.5,0-1,0-1.8,0.1l0,0l-0.2,0l-0.5,0L88,25.9
		c0,0-0.1,0-0.1,0l0,0c-0.7-2.2-1.7-4.1-3.2-5.7c-1.6-1.8-3.2-3.1-4.8-3.8c-1.6-0.9-3.4-1.4-5.4-1.6l0,0
		C73.6,14.5,72.7,14.5,71.8,14.4L71.8,14.4z"/>
</g>
<g>
	<circle class="st27" cx="125.8" cy="107.9" r="42.6"/>
	<g>
		<g>
			<path class="st28" d="M113.9,81c-4.4,0-7.7,0.6-9.8,1.6c-1.5,1.1-2.6,3.4-3.3,6.9c-0.8,4.8-0.8,12,0.2,21.5
				c0.3,5.3,1.6,11.2,3.9,17.8l33.5-12.1c0.1-4.5,0.4-8.5,0.9-12c0.2-1.4,0.4-2.4,0.5-2.9c1.3-5,1.9-7.9,2-8.8
				c0.2-1.8-0.1-3.2-1-4.3c-1.9-2.5-5-4.3-9.4-5.5C126.4,82,120.6,81.2,113.9,81"/>
		</g>
		<g>
			<path class="st29" d="M118,101c-0.1,0-0.2,0-0.3,0c-0.1,0-0.3,0-0.6,0c-0.2,0-0.5,0-0.6,0s-0.4,0-0.6,0s-0.4,0-0.6,0
				s-0.3,0-0.5,0c-0.1,0-0.3,0-0.4,0c-0.2,0-0.3,0-0.5,0s-0.3,0-0.5,0s-0.3,0-0.5,0.1c-0.2,0-0.4,0-0.5,0.1s-0.3,0-0.4,0.1
				c-0.1,0-0.3,0-0.4,0.1s-0.3,0.1-0.4,0.1c-0.2,0-0.4,0.1-0.6,0.1s-0.5,0.1-0.7,0.2s-0.4,0.1-0.6,0.1s-0.3,0.1-0.5,0.1
				s-0.3,0.1-0.5,0.1c-0.2,0.1-0.3,0.1-0.5,0.2c-0.1,0-0.3,0.1-0.4,0.1s-0.3,0.1-0.4,0.1s-0.3,0.1-0.4,0.2s-0.3,0.1-0.4,0.2
				s-0.3,0.1-0.4,0.2s-0.3,0.1-0.5,0.2s-0.3,0.2-0.5,0.2c-0.2,0.1-0.3,0.2-0.4,0.2c-0.1,0.1-0.3,0.2-0.4,0.3
				c-0.1,0.1-0.3,0.2-0.4,0.2c-0.1,0.1-0.2,0.2-0.4,0.3c-0.2,0.1-0.3,0.2-0.4,0.3c-0.1,0.1-0.3,0.2-0.4,0.3
				c-0.1,0.1-0.2,0.2-0.3,0.3c-0.1,0.1-0.2,0.2-0.3,0.3s-0.2,0.2-0.3,0.3c-0.1,0.1-0.2,0.2-0.3,0.3c-0.1,0.1-0.2,0.2-0.3,0.3
				c-0.1,0.1-0.2,0.2-0.2,0.4s-0.1,0.3-0.2,0.4c0,0.1-0.1,0.3-0.1,0.4s-0.1,0.3-0.1,0.4s0,0.3-0.1,0.5c0,0.2,0,0.3,0,0.5
				c0,0.1,0,0.3,0,0.5s0,0.3,0,0.4s0,0.3,0,0.4s0,0.3,0,0.4s0,0.3,0,0.4s0,0.3,0.1,0.5c0,0.2,0.1,0.4,0.1,0.5c0,0.2,0.1,0.3,0.1,0.5
				s0.1,0.3,0.1,0.5s0.1,0.4,0.1,0.6s0.1,0.3,0.1,0.5c0,0.1,0.1,0.3,0.1,0.4s0.1,0.3,0.1,0.5s0.1,0.3,0.1,0.5c0,0.1,0.1,0.3,0.1,0.4
				s0.1,0.3,0.1,0.5s0.1,0.4,0.1,0.6s0.1,0.4,0.1,0.5c0,0.2,0.1,0.3,0.1,0.5c0,0.1,0.1,0.3,0.1,0.4s0.1,0.3,0.1,0.5s0.1,0.3,0.1,0.5
				s0.1,0.3,0.1,0.5s0.1,0.4,0.1,0.6s0.1,0.4,0.1,0.5c0,0.2,0.1,0.3,0.1,0.5s0.1,0.3,0.1,0.5s0.1,0.3,0.1,0.5c0,0.1,0.1,0.3,0.1,0.5
				s0.1,0.3,0.1,0.5s0.1,0.4,0.1,0.6s0.1,0.4,0.1,0.6s0.1,0.3,0.1,0.5s0.1,0.3,0.1,0.5s0.1,0.3,0.1,0.5c0,0.1,0.1,0.3,0.1,0.4
				s0.1,0.3,0.1,0.5s0.1,0.3,0.2,0.6c0.1,0.2,0.1,0.4,0.2,0.5c0,0.1,0.1,0.3,0.1,0.4c0,0.1,0.1,0.3,0.2,0.5c0.1,0.2,0.1,0.3,0.2,0.5
				c0.1,0.2,0.1,0.3,0.2,0.4s0.1,0.3,0.2,0.5s0.2,0.4,0.3,0.5c0.1,0.2,0.2,0.3,0.3,0.5c0.1,0.2,0.2,0.3,0.3,0.5
				c0.1,0.2,0.2,0.3,0.3,0.5c0.1,0.2,0.2,0.3,0.3,0.5c0.1,0.1,0.2,0.3,0.3,0.4c0.1,0.1,0.2,0.3,0.3,0.4c0.1,0.1,0.2,0.3,0.3,0.4
				c0.1,0.1,0.2,0.3,0.3,0.4c0.1,0.2,0.2,0.3,0.3,0.5c0.1,0.2,0.2,0.3,0.3,0.5c0.1,0.1,0.2,0.3,0.3,0.4c0.1,0.1,0.2,0.2,0.3,0.4
				c0.1,0.1,0.2,0.3,0.3,0.4c0.1,0.1,0.2,0.3,0.3,0.4c0.1,0.1,0.2,0.2,0.3,0.3c0.1,0.1,0.2,0.2,0.3,0.3c0.1,0.1,0.2,0.2,0.3,0.3
				c0.1,0.1,0.2,0.2,0.4,0.3c0.1,0.1,0.2,0.2,0.3,0.3s0.2,0.2,0.4,0.3c0.1,0.1,0.3,0.2,0.4,0.3c0.1,0.1,0.2,0.2,0.3,0.3
				s0.3,0.2,0.4,0.3s0.3,0.2,0.4,0.3s0.3,0.2,0.4,0.2c0.1,0.1,0.3,0.1,0.4,0.2c0.2,0.1,0.3,0.1,0.5,0.2s0.3,0.1,0.5,0.2
				c0.1,0,0.3,0.1,0.4,0.1c0.2,0,0.3,0.1,0.5,0.1s0.3,0.1,0.5,0.1s0.4,0.1,0.5,0.1s0.4,0,0.6,0s0.4,0,0.5,0s0.3,0,0.4,0l0,0
				c0.2,0,0.3,0,0.5,0s0.3,0,0.5,0s0.3,0,0.5,0c0.1,0,0.3,0,0.5,0s0.3,0,0.4,0s0.3,0,0.4,0s0.3,0,0.4-0.1c0.2,0,0.3,0,0.5-0.1
				c0.2,0,0.3,0,0.5-0.1c0.2,0,0.3,0,0.5-0.1c0.2,0,0.3-0.1,0.5-0.1c0.1,0,0.3-0.1,0.4-0.1c0.2,0,0.3-0.1,0.5-0.1s0.4-0.1,0.6-0.1
				s0.4-0.1,0.5-0.1c0.2,0,0.3-0.1,0.5-0.1s0.3-0.1,0.4-0.1s0.3-0.1,0.4-0.1s0.3-0.1,0.4-0.1c0.2,0,0.3-0.1,0.5-0.1s0.3-0.1,0.5-0.1
				s0.3-0.1,0.5-0.1s0.3-0.1,0.4-0.1c0.1,0,0.3-0.1,0.4-0.1s0.3-0.1,0.4-0.1s0.3-0.1,0.4-0.1s0.3-0.1,0.4-0.1c0.2,0,0.3-0.1,0.5-0.2
				c0.2-0.1,0.3-0.1,0.5-0.2c0.2-0.1,0.3-0.1,0.5-0.2c0.2-0.1,0.3-0.1,0.5-0.2c0.2-0.1,0.3-0.1,0.5-0.2c0.2-0.1,0.3-0.1,0.5-0.2
				c0.1-0.1,0.3-0.1,0.4-0.1s0.3-0.1,0.4-0.2c0.2-0.1,0.4-0.1,0.6-0.2c0.2-0.1,0.4-0.2,0.5-0.2s0.3-0.1,0.4-0.2
				c0.2-0.1,0.3-0.2,0.5-0.3c0.2-0.1,0.3-0.2,0.4-0.3c0.1-0.1,0.3-0.2,0.4-0.3c0.2-0.1,0.3-0.2,0.4-0.3c0.1-0.1,0.2-0.2,0.3-0.3
				s0.2-0.2,0.3-0.4c0.1-0.2,0.1-0.3,0.1-0.4s0.1-0.3,0.1-0.4c0-0.1,0.1-0.3,0.1-0.4c0-0.2,0.1-0.3,0.1-0.5s0-0.4,0.1-0.6
				c0-0.2,0-0.3,0-0.5c0-0.2,0-0.4,0-0.7c0-0.3,0-0.6,0-0.8c0-0.2,0-0.5,0-0.6c0-0.2,0-0.4,0-0.7c0-0.3,0-0.5,0-0.8s0-0.5,0-0.8
				s0-0.5,0-0.7s0-0.4,0-0.6s0-0.5,0-0.8s0-0.6,0-0.8c0-0.3,0-0.5,0-0.7s0-0.4,0-0.7c0-0.2,0-0.5,0-0.8s0-0.5,0-0.6
				c0-0.2,0-0.4,0-0.6s0-0.5,0-0.7s0-0.4,0-0.5l-1.2-7c0-0.1,0.1-0.3,0.1-0.4s0.1-0.3,0.1-0.4c0-0.2,0.1-0.3,0.1-0.5
				c0-0.1,0.1-0.3,0.1-0.4c0-0.2,0.1-0.3,0.1-0.4s0.1-0.3,0.1-0.4s0.1-0.3,0.1-0.5s0.1-0.3,0.1-0.5s0.1-0.3,0.1-0.5s0.1-0.3,0.1-0.5
				s0.1-0.3,0.1-0.4s0-0.3,0-0.4c0-0.2,0-0.3,0-0.5c0-0.1-0.1-0.3-0.2-0.4c-0.1-0.1-0.2-0.3-0.2-0.4c-0.1-0.1-0.2-0.3-0.3-0.4
				s-0.2-0.3-0.3-0.4s-0.2-0.2-0.4-0.4c-0.1-0.1-0.3-0.3-0.4-0.4s-0.3-0.2-0.5-0.4c-0.2-0.1-0.3-0.2-0.5-0.4
				c-0.2-0.1-0.4-0.2-0.5-0.3c-0.2-0.1-0.3-0.2-0.5-0.3c-0.1-0.1-0.3-0.2-0.5-0.3c-0.2-0.1-0.4-0.2-0.5-0.2
				c-0.1-0.1-0.3-0.1-0.5-0.2c-0.2-0.1-0.4-0.2-0.6-0.3c-0.2-0.1-0.4-0.2-0.6-0.2c-0.2-0.1-0.4-0.2-0.7-0.2
				c-0.3-0.1-0.5-0.2-0.7-0.2c-0.2,0-0.4-0.1-0.6-0.2c-0.3-0.1-0.5-0.1-0.7-0.2c-0.2-0.1-0.4-0.1-0.6-0.1s-0.3-0.1-0.5-0.1
				s-0.3-0.1-0.6-0.1c-0.2,0-0.4-0.1-0.6-0.1c-0.1,0-0.3-0.1-0.6-0.1c-0.2,0-0.5-0.1-0.7-0.1s-0.4-0.1-0.6-0.1s-0.4-0.1-0.5-0.1
				s-0.3,0-0.4-0.1c-0.1,0-0.3,0-0.5-0.1c-0.2,0-0.4,0-0.7-0.1c-0.2,0-0.5,0-0.7,0s-0.4,0-0.5,0c-0.2,0-0.3,0-0.5,0s-0.4,0-0.5,0
				c-0.2,0-0.3,0-0.5,0s-0.4,0-0.6,0s-0.4,0-0.6,0s-0.4,0-0.6,0C118.2,101,118.1,101,118,101z"/>
		</g>
		<g>
			<path class="st30" d="M116.9,101.3c-5.1,0-9.2,0.6-12.5,1.6c-3.2,1.1-4.5,2.4-3.9,3.9c0.7,1.5,3,2.8,7,3.9
				c4.1,1.1,8.7,1.6,13.7,1.6c5.1,0,9.2-0.6,12.5-1.6c3.2-1.1,4.5-2.4,3.9-3.9c-0.7-1.5-3-2.8-7-3.9
				C126.6,101.8,122,101.3,116.9,101.3"/>
		</g>
		<g>
			<path class="st31" d="M107,90.9l-5.9,6.1c-0.5,0.5-0.8,0.9-0.8,1.1c-0.6,1.4-0.6,4.2-0.1,8.4c0,0,0.2-0.1,0.4-0.5
				c0.9-1.2,1.6-2.1,2.1-2.7c0.3-0.4,0.9-1.1,2-2.3l7.6-7.9L107,90.9"/>
		</g>
		<g>
			<path class="st31" d="M115.8,94.1c-1.1,1.2-2.1,2.3-3,3.2c-0.5,0.5-1.8,1.8-3.8,3.7c-0.6,0.5-1.3,1.3-2.1,2.1l-7,8.2
				c-0.2,0.4-0.2,1.2,0,2.3l1.4,4.6l0.3,0.9c0,0.1,0.1,0.1,0.1,0.1c0.1,0,0.3-0.1,0.5-0.2c0.5-0.4,0.9-0.8,1.3-1.2l5.6-5.9
				c8.2-9.1,12.9-14.3,14.2-15.9L115.8,94.1"/>
		</g>
		<g>
			<path class="st32" d="M137.7,132.8c-0.1,0-0.2,0-0.3,0s-0.3,0-0.5,0c-0.2,0-0.4,0-0.5,0s-0.2,0-0.3,0s-0.3,0-0.5,0
				c-0.2,0-0.4,0-0.6,0c-0.2,0-0.3,0-0.4,0s-0.2,0-0.4,0c-0.1,0-0.3,0-0.5,0c-0.2,0-0.3,0-0.5,0c-0.2,0-0.4,0-0.7,0.1
				c-0.3,0-0.5,0-0.7,0.1c-0.2,0-0.3,0-0.5,0.1c-0.2,0-0.4,0.1-0.7,0.1c-0.3,0-0.6,0.1-0.7,0.1c-0.2,0-0.4,0.1-0.6,0.1
				c-0.2,0-0.5,0.1-0.9,0.2c-0.4,0.1-0.8,0.1-1,0.2c-0.3,0.1-0.5,0.1-0.8,0.2c-0.3,0.1-0.5,0.1-0.8,0.2c-0.3,0.1-0.5,0.1-0.8,0.2
				c-0.3,0.1-0.6,0.1-0.9,0.2c-0.3,0.1-0.6,0.2-0.8,0.2s-0.5,0.1-0.8,0.2c-0.3,0.1-0.5,0.2-0.8,0.3s-0.5,0.2-0.7,0.3
				c-0.2,0.1-0.5,0.2-0.7,0.3s-0.4,0.2-0.6,0.3c-0.2,0.1-0.4,0.2-0.6,0.3s-0.4,0.2-0.6,0.3c-0.2,0.1-0.4,0.2-0.6,0.3
				s-0.4,0.2-0.7,0.4c-0.3,0.1-0.4,0.2-0.5,0.3s-0.2,0.1-0.3,0.2c-0.1,0.1-0.2,0.1-0.3,0.2s-0.2,0.1-0.3,0.2
				c-0.1,0.1-0.2,0.1-0.2,0.2c-0.1,0-0.2,0.1-0.2,0.2c-0.1,0.1-0.2,0.1-0.3,0.2s-0.2,0.2-0.3,0.2c-0.1,0.1-0.2,0.1-0.3,0.2
				c-0.1,0.1-0.2,0.1-0.2,0.2c-0.1,0.1-0.2,0.1-0.2,0.2c-0.1,0.1-0.1,0.1-0.1,0.2c0,0,0.1,0.1,0.2,0.1s0.1,0,0.2,0.1
				c0.3,0.1,0.5,0.1,0.8,0.2s0.6,0.1,0.9,0.1s0.6,0,0.9,0s0.6,0,0.8,0c0.3,0,0.5,0,0.8-0.1c0.3,0,0.5-0.1,0.8-0.1s0.6-0.1,0.9-0.1
				s0.5-0.1,0.8-0.1c0.2,0,0.5-0.1,0.8-0.2c0.3-0.1,0.6-0.1,0.9-0.2c0.3-0.1,0.6-0.1,0.9-0.2c0.3-0.1,0.6-0.2,0.8-0.2
				c0.2-0.1,0.5-0.2,0.8-0.2c0.3-0.1,0.6-0.2,1-0.3c0.4-0.1,0.7-0.2,0.9-0.3c0.2-0.1,0.5-0.1,0.7-0.2c0.2-0.1,0.6-0.2,1-0.3
				c0.5-0.2,0.8-0.3,1-0.3c0.2-0.1,0.4-0.1,0.5-0.2c0.1-0.1,0.3-0.1,0.5-0.2c0.2-0.1,0.4-0.2,0.8-0.3c0.4-0.1,0.7-0.2,0.8-0.3
				c0.2-0.1,0.3-0.1,0.5-0.2c0.2-0.1,0.5-0.2,0.9-0.3c0.4-0.1,0.7-0.3,0.8-0.3c0.1-0.1,0.3-0.1,0.4-0.1c0.1,0,0.2-0.1,0.4-0.2
				c0.2-0.1,0.4-0.2,0.5-0.2l0.1-0.1L137.7,132.8L137.7,132.8z"/>
		</g>
		<g>
			<path class="st32" d="M137.5,132.9c-0.2-0.1-0.5-0.2-0.8-0.2c-0.4-0.1-0.7-0.1-1.1-0.2c-0.3,0-0.7,0-1,0c-0.3,0-0.7,0-1,0
				c-0.3,0-0.7,0.1-1,0.1c-0.4,0-0.9,0.1-1.6,0.3c-0.7,0.1-1.2,0.2-1.5,0.3c-0.3,0.1-0.7,0.2-1,0.2c-0.3,0.1-0.6,0.2-1,0.2
				s-0.7,0.2-1.3,0.3c-0.6,0.2-1,0.3-1.2,0.3c-0.3,0.1-0.5,0.1-0.8,0.2c-0.2,0.1-0.5,0.1-0.7,0.2c-0.2,0.1-0.5,0.2-1,0.3
				c-0.4,0.1-0.7,0.2-0.9,0.3c-0.2,0.1-0.4,0.1-0.5,0.2c-0.2,0.1-0.5,0.2-0.8,0.3c-0.4,0.1-0.7,0.3-1,0.4s-0.5,0.2-0.8,0.3
				s-0.4,0.2-0.6,0.3s-0.4,0.2-0.7,0.3c-0.2,0.1-0.4,0.2-0.6,0.3s-0.3,0.1-0.4,0.2s-0.3,0.1-0.6,0.3c-0.3,0.1-0.5,0.2-0.6,0.2
				s-0.2,0.1-0.3,0.1c-0.1,0-0.2,0.1-0.4,0.2c-0.2,0.1-0.3,0.1-0.5,0.2c-0.2,0.1-0.3,0.1-0.3,0.2c0,0.1-0.2,0.1-0.3,0.2
				c-0.1,0.1-0.2,0.1-0.3,0.2c-0.1,0.1-0.2,0.1-0.3,0.2c-0.1,0.1-0.2,0.1-0.2,0.2c-0.1,0.1-0.2,0.1-0.2,0.2
				c-0.1,0.1-0.1,0.2-0.1,0.3c0,0.1,0.2,0.2,0.4,0.3c0.1,0,0.1,0,0.2,0.1s0.3,0.1,0.4,0.2c0.2,0.1,0.5,0.1,0.7,0.2
				c0.3,0,0.5,0.1,0.8,0.1s0.6,0,1,0s0.7,0,1,0s0.6-0.1,0.8-0.1c0.2,0,0.4-0.1,0.6-0.1s0.3,0,0.4-0.1l5.8-0.3c0.1,0,0.4-0.1,0.7-0.2
				c0.3-0.1,0.7-0.2,1.2-0.3s0.9-0.3,1.3-0.4c0.4-0.1,0.8-0.3,1.2-0.4s0.7-0.3,1.1-0.4c0.3-0.1,0.7-0.3,1-0.4
				c0.3-0.1,0.6-0.3,0.9-0.4c0.3-0.1,0.6-0.3,0.8-0.4c0.2-0.1,0.5-0.2,0.8-0.4c0.3-0.1,0.5-0.3,0.8-0.4c0.2-0.1,0.5-0.2,0.7-0.3
				c0.2-0.1,0.4-0.2,0.6-0.3c0.2-0.1,0.3-0.2,0.5-0.2c0.2-0.1,0.3-0.2,0.4-0.2c0.1-0.1,0.3-0.1,0.4-0.2s0.2-0.2,0.4-0.3
				c0.2-0.1,0.3-0.2,0.4-0.3c0.1-0.1,0.2-0.1,0.3-0.2s0.2-0.1,0.3-0.2s0.2-0.2,0.2-0.3c0.1-0.1,0.1-0.2,0.2-0.2
				c0.1-0.1,0.1-0.1,0.1-0.2s0-0.1-0.2-0.2c-0.1-0.1-0.3-0.2-0.6-0.3C137.6,132.9,137.6,132.9,137.5,132.9z"/>
		</g>
		<g>
			<path class="st30" d="M138.5,132c-1.2-0.4-3.4-0.4-6.6,0.2c-3.3,0.6-6.6,1.5-10.1,2.8c-3.5,1.3-6,2.5-7.7,3.7
				c-1.6,1.2-1.8,2-0.7,2.5c1.2,0.4,3.4,0.4,6.6-0.2c3.2-0.6,6.6-1.5,10.1-2.7c3.5-1.3,6-2.5,7.7-3.7
				C139.4,133.3,139.6,132.5,138.5,132"/>
		</g>
		<g>
			<path class="st30" d="M137.4,133c-1-0.5-3.1-0.6-6-0.3c-3,0.3-6.2,1-9.4,1.9c-3.2,1-5.7,2-7.4,3.1c-1.6,1-1.9,1.8-1,2.4
				c1,0.5,3,0.6,6,0.3c3-0.3,6.2-1,9.4-1.9c3.2-1,5.7-2,7.4-3.1C138,134.4,138.3,133.6,137.4,133"/>
		</g>
		<g>
			<path class="st33" d="M140.9,94.9l-7.8,0.1c-0.2,0.4-0.5,0.8-0.7,1.2c-0.3,0.5-0.7,1.1-1.3,2c-0.6,0.9-1.1,1.6-1.4,2.1
				s-0.6,0.9-1,1.4c-0.3,0.5-0.6,0.9-1,1.4c-0.3,0.5-0.8,1.2-1.4,2.1s-1.1,1.7-1.4,2.1c-0.3,0.5-0.6,0.9-0.9,1.4
				c-0.3,0.4-0.6,0.9-0.8,1.2c-0.2,0.4-0.6,0.9-1.1,1.7c-0.5,0.7-0.9,1.3-1.1,1.7c-0.3,0.4-0.5,0.8-0.8,1.3
				c-0.3,0.4-0.6,0.9-0.8,1.3c-0.3,0.4-0.7,1-1.3,1.9c-0.6,0.9-1,1.5-1.2,1.8s-0.5,0.7-0.7,1s-0.5,0.8-1,1.4c-0.4,0.6-0.8,1.1-1,1.4
				s-0.4,0.6-0.6,0.9s-0.5,0.7-0.8,1.2s-0.6,0.9-0.8,1.2c-0.2,0.3-0.4,0.5-0.5,0.7s-0.3,0.5-0.5,0.8s-0.4,0.6-0.6,0.8
				s-0.3,0.5-0.4,0.7s-0.3,0.4-0.4,0.6c-0.1,0.2-0.2,0.3-0.3,0.5c-0.1,0.2-0.2,0.4-0.3,0.6s-0.2,0.5-0.1,0.8c0,0.3,0.1,0.6,0.2,0.9
				c0.1,0.3,0.2,0.6,0.3,0.9c0.1,0.3,0.3,0.7,0.5,1.1c0.2,0.4,0.4,0.8,0.5,1c0.1,0.2,0.2,0.4,0.3,0.5c0.1,0.1,0.2,0.3,0.3,0.5
				c0,0.1,0.1,0.1,0.2,0.1c0.2,0,0.6-0.1,1.1-0.3c0.7-0.3,1.3-0.6,1.8-0.9c0.4-0.3,0.8-0.5,1.2-0.8c0.3-0.2,0.7-0.5,1-0.7
				c0.3-0.2,0.7-0.6,1.2-1.1s1-0.9,1.3-1.2s0.6-0.7,1-1c0.3-0.4,0.8-0.9,1.3-1.5c0.5-0.7,1-1.2,1.3-1.7c0.3-0.4,0.7-0.9,0.9-1.2
				c0.3-0.4,0.6-0.7,0.9-1.1s0.7-0.9,1.3-1.7c0.6-0.7,1-1.3,1.3-1.7c0.3-0.4,0.6-0.7,0.8-1c0.2-0.3,0.5-0.7,0.9-1.2
				c0.4-0.5,0.7-0.9,1-1.3c0.3-0.4,0.6-0.8,0.9-1.2c0.3-0.4,0.6-0.8,0.8-1.2c0.3-0.4,0.5-0.8,0.8-1.2c0.3-0.4,0.5-0.9,0.8-1.3
				c0.3-0.4,0.5-0.8,0.7-1.1c0.2-0.3,0.4-0.7,0.7-1.1c0.3-0.4,0.5-0.7,0.6-1c0.2-0.2,0.3-0.5,0.5-0.8c0.2-0.3,0.4-0.7,0.7-1.2
				c0.3-0.5,0.6-0.9,0.8-1.3c0.2-0.4,0.4-0.7,0.6-0.9s0.3-0.5,0.5-0.8c0.2-0.3,0.3-0.6,0.5-0.8c0.1-0.3,0.3-0.6,0.5-0.9
				c0.2-0.3,0.3-0.6,0.4-0.8c0.1-0.2,0.2-0.4,0.4-0.7c0.1-0.2,0.3-0.5,0.4-0.7c0.1-0.2,0.2-0.4,0.4-0.6c0.1-0.2,0.2-0.4,0.4-0.6
				c0.1-0.2,0.2-0.4,0.3-0.6s0.2-0.4,0.3-0.6s0.2-0.5,0.3-0.6s0.2-0.4,0.2-0.5c0.1-0.2,0.1-0.3,0.1-0.5s0-0.4,0-0.6
				c0-0.2-0.1-0.4-0.1-0.6s-0.1-0.4-0.2-0.6c-0.1-0.2-0.1-0.4-0.2-0.6L140.9,94.9z"/>
		</g>
		<g>
			<path class="st34" d="M141,93.6l-6.5,0.3l-18.4,23.5c-2.9,4-5.9,7.9-8.8,11.6l-0.9,1.3c-0.1,0.1-0.1,0.3-0.1,0.5
				c0.1,0.6,0.6,1.6,1.5,3.2l1.5,2.1c0.1,0.2,0.3,0.2,0.5,0.2c2.4-1,5-3.1,8-6.3c1.6-1.6,3.2-3.6,5-5.9l6.1-8.1l9.4-12.8
				c0.5-0.8,1.2-1.9,2-3.3c0.2-0.3,0.3-0.7,0.4-1.1C141,97.7,141.1,96,141,93.6"/>
		</g>
		<g>
			<path class="st35" d="M113.8,82.7c1.4,0,2.9,0.1,4.5,0.2c4.9,0.4,9.5,1.3,13.6,2.6c4.3,1.4,7.2,2.9,8.8,4.5l0,0
				c0.4,0.4,0.6,0.7,0.6,1.1l0,0L141,92l0,0c-0.4,0.5-1.4,1-2.9,1.4c-2.1,0.6-4.7,0.9-7.7,0.9c-1.4,0-2.9-0.1-4.5-0.2
				c-4.9-0.4-9.5-1.3-13.6-2.6c-4.3-1.4-7.2-2.9-8.8-4.5c-1.4-1.4-0.6-2.5,2.4-3.4C108.2,83,110.8,82.7,113.8,82.7z M102,88.7
				L102,88.7c2.1,2.1,5.9,4,11.3,5.5c5.8,1.6,11.5,2.4,17.3,2.4c4.1,0,7.3-0.5,9.6-1.4l0,0c-0.5,1.8-1.2,4.9-2.2,9.4
				c-0.6,2.9-1.1,6.4-1.3,10.7c-0.1,2.7-0.1,5,0,6.9c0.2,2.7,0.5,5.6,0.9,8.7l0,0c-0.7-0.1-1.6-0.2-2.6-0.2h-0.1
				c-3.2,0-6.9,0.6-11.3,1.7c-4.3,1.1-7.6,2.4-10,3.9c-0.8,0.5-1.4,1-1.9,1.4l0,0c-2.1-2.6-3.6-4.8-4.6-6.8
				c-2.1-3.7-3.7-7.7-4.7-11.9c-1.4-5.6-2-11.8-1.9-18.7c0.1-3.3,0.4-6.2,0.8-8.5C101.4,91.4,101.6,90.4,102,88.7L102,88.7z
				 M135.2,133.2c0.9,0,1.6,0.1,2.2,0.2c0.3,0.1,0.5,0.1,0.6,0.2l-0.2,0.2c-1.1,1-3.2,2.1-6.3,3.2c-5.6,1.9-10.6,2.9-15.2,3l0,0
				c-0.9,0-1.6-0.1-2.2-0.2c-0.2,0-0.5-0.1-0.6-0.2l0.2-0.2c1.1-1,3.2-2.1,6.3-3.2C125.5,134.3,130.6,133.3,135.2,133.2L135.2,133.2
				z M113.8,80.4c-5,0-8.7,0.7-11,2l0,0c-0.5,0.3-0.9,0.7-1.2,1.1c-0.3,0.4-0.7,0.9-1,1.6c-0.1,0.1-0.2,0.5-0.4,1.1l0,0
				c-0.4,1.4-0.7,3.1-1.1,5c-0.4,2.4-0.7,5.4-0.8,9.1c-0.1,7.1,0.6,13.6,2,19.5c1.3,5.3,3.6,10.6,7,15.7c0.6,1,1.7,2.4,3.1,4.1l0,0
				l0,0l0,0c0.3,0.3,0.6,0.7,0.9,1l0,0c0.1,0.1,0.3,0.2,0.4,0.4c0.2,0.2,0.5,0.4,0.7,0.5s0.5,0.2,0.7,0.3l0,0c0.9,0.3,2,0.4,3.4,0.4
				c3.2,0,6.9-0.6,11.3-1.7c4.3-1.1,7.6-2.4,10-3.9c0.4-0.2,0.7-0.5,1-0.7l0,0c0.1-0.1,0.2-0.2,0.4-0.4c0.3-0.3,0.4-0.5,0.5-0.6
				c0.2-0.3,0.4-0.6,0.5-1c0.1-0.3,0.1-0.6,0.1-1c0-0.2,0-0.3,0-0.5l-0.1-0.9l0,0l0,0c0-0.1,0-0.3-0.1-0.4c-0.4-2.7-0.6-4.7-0.8-6.1
				c-0.2-2.1-0.3-3.8-0.3-4.9c0-1.4,0-3,0.1-4.7c0.3-3.9,0.6-7.2,1.2-9.8c1.3-5.8,2-9,2.2-9.6l0.9-3.3l0,0c0.8-1.3,0.5-2.8-0.9-4.4
				l0,0c-0.1-0.1-0.1-0.2-0.2-0.2l0,0c-2.1-2.1-5.9-3.9-11.3-5.5C125.3,81.2,119.6,80.4,113.8,80.4z"/>
		</g>
		<g>
			<path class="st29" d="M121.3,77.5C121.2,77.5,121.2,77.5,121.3,77.5c-0.2,0-0.2,0-0.3,0c-0.1,0-0.1,0-0.2,0s-0.1,0-0.2,0
				s-0.1,0-0.2,0s-0.1,0-0.2,0h-0.1c-0.1,0-0.1,0-0.2,0.1c-0.1,0-0.1,0-0.2,0.1c0,0-0.1,0-0.1,0.1c0,0-0.1,0-0.2,0.1
				c-0.1,0-0.1,0.1-0.2,0.1s-0.1,0.1-0.2,0.1l-0.1,0.1c-0.1,0-0.1,0.1-0.2,0.1s-0.1,0.1-0.1,0.1l-0.1,0.1l-0.1,0.1l-0.1,0.1
				l-0.1,0.1l-0.1,0.1L118,79l-0.1,0.1l-0.1,0.1c0,0-0.1,0.1-0.1,0.2c0,0.1-0.1,0.1-0.1,0.2s-0.1,0.1-0.1,0.2c0,0.1-0.1,0.1-0.1,0.2
				c0,0.1-0.1,0.1-0.1,0.2c0,0.1-0.1,0.1-0.1,0.2s0,0.1-0.1,0.2v0.1c0,0,0,0.1-0.1,0.2c0,0.1-0.1,0.2-0.1,0.2v0.1c0,0,0,0.1,0,0.2
				s0,0.1,0,0.2c0,0.1,0,0.1,0,0.2c0,0.1,0,0.2,0,0.2c0,0.1,0,0.1,0,0.1v0.1v0.1c0,0.1,0,0.1,0,0.2c0,0.1,0,0.1,0,0.2
				c0,0.1,0,0.1,0,0.2V83c0,0,0,0.1,0,0.2c0,0.1,0,0.1,0,0.2s0,0.1,0,0.2c0,0.1,0,0.1,0,0.2c0,0.1,0,0.1,0,0.2c0,0.1,0,0.1,0,0.2
				s0,0.1,0,0.2c0,0.1,0,0.1,0,0.2c0,0.1,0,0.1,0,0.2c0,0.1,0,0.1,0.1,0.2c0,0.1,0,0.1,0,0.2c0,0.1,0,0.1,0.1,0.2
				c0,0.1,0,0.1,0.1,0.2c0.1,0.1,0,0.1,0.1,0.2c0,0,0,0.1,0.1,0.1c0,0,0,0.1,0.1,0.1c0,0.1,0,0.1,0.1,0.2c0,0.1,0.1,0.1,0.1,0.2
				c0,0,0,0.1,0.1,0.1c0,0.1,0.1,0.1,0.1,0.1s0,0.1,0.1,0.1c0,0,0.1,0.1,0.1,0.2c0,0.1,0.1,0.1,0.1,0.2c0,0.1,0.1,0.1,0.1,0.1
				l0.1,0.1c0,0.1,0.1,0.1,0.1,0.2l0.1,0.1l0.1,0.1l0.1,0.1l0.1,0.1L119,88l0.1,0.1l0.1,0.1l0.1,0.1l0.1,0.1l0.1,0.1l0.1,0.1
				l0.1,0.1l0.1,0.1l0.1,0.1L120,89l0.1,0.1l0.1,0.1l0.1,0.1l0.1,0.1l0.1,0.1l0.1,0.1l0.1,0.1l0.1,0.1l0.1,0.1L121,90l0.1,0.1
				l0.1,0.1l0.1,0.1l0.1,0.1l0.1,0.1l0.1,0.1l0.1,0.1l0.1,0.1h0.1l0.4,0.1c0-0.1,0-0.1,0-0.2c0,0,0-0.1,0-0.2c0-0.1,0-0.1,0-0.2
				s0-0.1,0-0.2c0,0,0-0.1,0-0.2c0-0.1,0-0.1,0-0.2c0-0.1,0-0.1,0-0.2s0-0.1,0-0.2c0-0.1,0-0.1,0-0.2c0-0.1,0-0.1,0-0.2
				c0,0,0-0.1,0-0.2s0-0.1,0.1-0.2c0-0.1,0-0.1,0.1-0.2v-0.1c0,0,0-0.1,0.1-0.1c0,0,0-0.1,0.1-0.1c0-0.1,0-0.1,0.1-0.1
				c0,0,0-0.1,0.1-0.2c0-0.1,0.1-0.1,0.1-0.2s0.1-0.1,0.1-0.1s0-0.1,0.1-0.1c0,0,0-0.1,0.1-0.1c0,0,0-0.1,0.1-0.1c0,0,0-0.1,0.1-0.1
				s0-0.1,0.1-0.1c0,0,0-0.1,0.1-0.1c0-0.1,0.1-0.1,0.1-0.2c0-0.1,0.1-0.1,0.1-0.2s0.1-0.1,0.1-0.1s0-0.1,0.1-0.1c0,0,0-0.1,0.1-0.1
				c0,0,0-0.1,0.1-0.1c0,0,0-0.1,0.1-0.1c0-0.1,0.1-0.1,0.1-0.1s0-0.1,0.1-0.1c0,0,0.1-0.1,0.1-0.2c0-0.1,0.1-0.1,0.1-0.2
				s0.1-0.1,0.1-0.1l0.1-0.1l0.1-0.1l0.1-0.1c0-0.1,0.1-0.1,0.1-0.1s0-0.1,0.1-0.1c0,0,0-0.1,0.1-0.1c0-0.1,0-0.1,0.1-0.1
				c0,0,0-0.1,0.1-0.1c0,0,0-0.1,0.1-0.2c0-0.1,0-0.1,0.1-0.2v-0.1v-0.1v-0.1c0-0.1,0-0.1,0-0.2c0-0.1,0-0.1,0-0.2s0-0.1,0-0.1v-0.1
				V83c0-0.1,0-0.1,0-0.1v-0.1v-0.1v-0.1c0,0,0-0.1,0-0.2c0-0.1,0-0.1,0-0.2s0-0.1,0-0.2c0-0.1,0-0.1,0-0.2c0-0.1,0-0.1,0-0.2
				c0-0.1,0-0.1,0-0.2s0-0.1,0-0.2c0-0.1,0-0.1,0-0.2c0-0.1,0-0.1,0-0.2c0-0.1,0-0.1,0-0.1v-0.1c0,0,0-0.1-0.1-0.1
				c0,0,0-0.1-0.1-0.1c0,0,0-0.1-0.1-0.1l-0.1-0.1c0,0-0.1-0.1-0.1-0.2s-0.1-0.1-0.1-0.2c0-0.1-0.1-0.1-0.1-0.2
				c0-0.1-0.1-0.1-0.1-0.1l-0.1-0.1l-0.1-0.1l-0.1-0.1l-0.1-0.1l-0.1-0.1l-0.1-0.1l-0.1-0.1l-0.1-0.1c-0.1,0-0.1-0.1-0.2-0.1
				s-0.1-0.1-0.2-0.1s-0.1-0.1-0.2-0.1s-0.1-0.1-0.2-0.1c0,0-0.1-0.1-0.2-0.1s-0.1,0-0.2-0.1c-0.1,0-0.1,0-0.2-0.1
				c-0.1,0-0.1,0-0.2-0.1c-0.1,0-0.1,0-0.2-0.1c-0.1,0-0.1,0-0.2,0s-0.1,0-0.2,0s-0.1,0-0.2,0s-0.1,0-0.2,0s-0.1,0-0.2,0
				s-0.1,0-0.2,0C121.4,77.5,121.4,77.5,121.3,77.5L121.3,77.5z"/>
		</g>
		<g>
			<path class="st29" d="M141.3,74.5c-1-0.9-2.2-1.2-3.5-1c-1.6,0.3-2.9,1.1-3.9,2.2c-1.1,1.2-2,2.7-2.8,4.7c-1.2,3.4-1.9,5.9-2,7.4
				c1.9-1.4,3.9-2.4,6.2-2.9c0.9-0.2,1.8-0.2,2.8-0.1c0.4,0,0.9,0.1,1.5,0.2c1.7,0.4,2.7,0.7,3,0.7c0.6,0.1,1.1,0.1,1.7,0.1
				c1.4-0.1,2.6-0.5,3.4-1.4c1-1.1,1.1-2.4,0.3-3.9c-0.3-0.4-0.7-0.8-1.3-1.2c-0.1-0.1-0.9-0.4-2.3-0.9c-0.3-0.1-0.5-0.2-0.6-0.3
				s-0.2-0.2-0.3-0.4c-0.6-1.1-0.9-1.8-1.1-2C142.1,75.2,141.7,74.9,141.3,74.5"/>
		</g>
		<g>
			<path class="st29" d="M151.9,90.8c-1.5-1.9-3.5-2.8-6.2-2.8c-1.1,0-2.4,0.3-3.7,0.8c-0.7,0.3-1.2,0.5-1.5,0.7
				c-0.4,0.2-1.2,0.7-2.2,1.4l-0.5,0.2c1.6,0.3,2.8,0.8,3.7,1.7c0.3,0.3,0.6,0.7,0.9,1.2c0.1,0.1,0.5,0.9,1.1,2.3
				c0.1,0.2,0.3,0.5,0.4,0.7c0.4,0.6,0.8,1.1,1.2,1.4c1.1,0.8,2.2,1.2,3.5,1.1c2.1-0.1,3.6-1.2,4.5-3.2c0.3-0.7,0.4-1.6,0.1-2.8
				C153,92.5,152.5,91.6,151.9,90.8"/>
		</g>
		<g>
			<path class="st36" d="M116.3,117.7c-0.6,0.1-1.1,0.4-1.5,1s-0.5,1.3-0.4,2.1c0.1,0.8,0.4,1.5,0.9,2s1,0.7,1.6,0.7
				c0.6-0.1,1.1-0.4,1.5-1s0.5-1.3,0.4-2.1c-0.1-0.8-0.4-1.4-0.8-2C117.5,117.9,117,117.6,116.3,117.7"/>
		</g>
		<g>
			<path class="st29" d="M117.2,118.6c-0.2,0-0.3,0.1-0.4,0.4c-0.1,0.2-0.1,0.5-0.1,0.8s0.1,0.5,0.3,0.7c0.2,0.2,0.3,0.3,0.5,0.3
				s0.3-0.1,0.4-0.4c0.1-0.2,0.1-0.5,0.1-0.8s-0.1-0.5-0.3-0.7C117.6,118.7,117.4,118.6,117.2,118.6"/>
		</g>
		<g>
			<path class="st36" d="M127.7,116.1c-0.6,0.1-1.1,0.4-1.5,1s-0.5,1.3-0.4,2.1c0.1,0.8,0.4,1.5,0.9,2s1,0.7,1.6,0.7
				c0.6-0.1,1.1-0.4,1.5-1s0.5-1.3,0.4-2.1c-0.1-0.8-0.4-1.4-0.8-2C128.9,116.3,128.4,116,127.7,116.1"/>
		</g>
		<g>
			<path class="st29" d="M128.6,117c-0.2,0-0.3,0.1-0.4,0.4c-0.1,0.2-0.1,0.5-0.1,0.8s0.1,0.5,0.3,0.7c0.2,0.2,0.3,0.3,0.5,0.3
				s0.3-0.1,0.4-0.4c0.1-0.2,0.1-0.5,0.1-0.8s-0.1-0.5-0.3-0.7C129,117,128.8,117,128.6,117"/>
		</g>
		<g>
			<path class="st36" d="M124.8,122.9c-0.4,0-0.8,0.1-1.2,0.1c-0.3,0-0.7,0.1-1.4,0.2c-0.3,0-0.6,0.1-0.8,0.1l0,0
				c-0.1,0-0.1,0.1-0.2,0.2c0,0.1-0.1,0.2-0.1,0.4c0,0.1,0,0.2,0,0.2c0,0.1,0,0.1,0.1,0.2l0,0l0,0c0.2,0.5,0.3,0.9,0.5,1.1
				c0.4,0.5,0.9,0.7,1.4,0.7c0.1,0,0.1,0,0.2,0c0.7-0.1,1.1-0.5,1.4-1.1c0.2-0.3,0.3-0.7,0.3-1.1c0-0.2,0-0.4,0-0.6l0,0
				c0-0.1,0-0.2-0.1-0.2C125.1,123,125.1,122.9,124.8,122.9C124.9,122.9,124.9,122.9,124.8,122.9L124.8,122.9z"/>
		</g>
		<g>
			<path class="st37" d="M132.3,121.2c-0.4-0.2-0.8-0.3-1.3-0.2c-0.5,0.1-0.9,0.3-1.1,0.6c-0.3,0.3-0.4,0.7-0.3,1.1
				c0.1,0.4,0.3,0.7,0.7,0.9c0.4,0.2,0.8,0.3,1.3,0.2c0.5-0.1,0.9-0.3,1.2-0.6c0.3-0.3,0.4-0.7,0.3-1.1
				C132.9,121.7,132.7,121.5,132.3,121.2"/>
		</g>
		<g>
			<path class="st37" d="M113.8,124.4c0.3-0.3,0.7-0.5,1.1-0.6c0.5-0.1,0.9,0,1.3,0.1c0.4,0.2,0.6,0.5,0.7,0.9s0,0.7-0.3,1.1
				c-0.3,0.3-0.7,0.5-1.1,0.7c-0.5,0.1-0.9,0-1.3-0.1c-0.4-0.2-0.6-0.5-0.7-0.9C113.4,125.1,113.5,124.8,113.8,124.4"/>
		</g>
		<g>
			<path class="st38" d="M123.1,124.1c-0.3,0.1-0.5,0.2-0.7,0.4c-0.1,0.2-0.2,0.4-0.1,0.6s0.2,0.4,0.5,0.5s0.5,0.1,0.8,0
				s0.5-0.2,0.7-0.4c0.2-0.2,0.2-0.4,0.1-0.6s-0.2-0.4-0.5-0.5C123.6,124.1,123.4,124.1,123.1,124.1"/>
		</g>
	</g>
</g>
<linearGradient id="SVGID_3_" gradientUnits="userSpaceOnUse" x1="77.3749" y1="137.3854" x2="77.3749" y2="79.7351" gradientTransform="matrix(1 0 0 -1 0 172)">
	<stop  offset="0" style="stop-color:#54DADE"/>
	<stop  offset="0.762" style="stop-color:#24C7D6"/>
</linearGradient>
<circle class="st39" cx="77.4" cy="63.4" r="28.8"/>
<path class="st40" d="M58.7,66.6l0,0.3c0,0.4,0,0.8,0.1,1.2h-0.1v0.6c0,0.3,0,0.6,0.1,0.9c0.8,5.9,8.8,10.5,18.7,10.5
	S95.3,75.5,96,69.7c0-0.3,0.1-0.6,0.1-0.9v-0.6H96c0.1-0.4,0.1-0.8,0.1-1.2c0-0.1,0-0.2,0-0.3c-0.3-6.1-8.6-11-18.7-11
	S58.9,60.5,58.7,66.6z M57.1,66.6c0.1-3.7,2.7-6.9,6.2-9C67,55.3,72,54,77.4,54c5.4,0,10.4,1.3,14,3.6c3.5,2.1,6.1,5.3,6.2,9h0v2.2
	c0,3.9-2.6,7.1-6.2,9.4c-3.7,2.2-8.6,3.6-14,3.6s-10.4-1.3-14-3.6c-3.6-2.2-6.2-5.5-6.2-9.4L57.1,66.6L57.1,66.6z"/>
<path class="st41" d="M96.1,66.9c0,6.3-8.4,11.4-18.7,11.4s-18.7-5.1-18.7-11.4S67,55.6,77.4,55.6S96.1,60.7,96.1,66.9L96.1,66.9z"
	/>
<path class="st42" d="M61.5,63.7L61.5,63.7c0,0.5,0.1,1,0.2,1.5h-0.2v0.7c0,0.3,0,0.6,0.1,0.9c0.7,4.3,6.7,7.7,14,7.7
	c7.3,0,13.2-3.4,14-7.7c0-0.3,0.1-0.6,0.1-0.9v-0.7h-0.2c0.1-0.5,0.2-1,0.2-1.5v-0.1c0-4.7-6.3-8.5-14-8.5S61.5,59,61.5,63.7z
	 M60,63.7L60,63.7v2.2c0,3.1,2.1,5.7,4.8,7.4C67.6,75,71.4,76,75.6,76c4.1,0,7.9-1,10.7-2.7c2.8-1.7,4.8-4.3,4.8-7.4v-2.1l0,0
	c0-3.1-2.1-5.7-4.8-7.4c-2.8-1.7-6.6-2.7-10.7-2.7s-7.9,1-10.7,2.7C62,58.1,60,60.6,60,63.7L60,63.7z"/>
<path class="st42" d="M65.8,59.1L65.8,59.1c0,0.5,0.1,1,0.2,1.5h-0.2v0.7c0,0.3,0,0.6,0.1,0.9c0.7,4.3,6.7,7.7,14,7.7
	c7.3,0,13.2-3.4,14-7.7c0-0.3,0.1-0.6,0.1-0.9v-0.7h-0.2c0.1-0.5,0.2-1,0.2-1.5v-0.1c0-4.7-6.3-8.5-14-8.5S65.8,54.4,65.8,59.1z
	 M64.2,59.1L64.2,59.1v2.2c0,3.1,2.1,5.7,4.8,7.4c2.8,1.7,6.6,2.7,10.7,2.7c4.1,0,7.9-1,10.7-2.7c2.8-1.7,4.8-4.3,4.8-7.4v-2.2
	c0-3.1-2.1-5.7-4.8-7.4C87.7,50,83.9,49,79.8,49s-7.9,1-10.7,2.7C66.3,53.5,64.2,56,64.2,59.1z"/>
<path class="st43" d="M93.8,59.1c0,4.7-6.3,8.6-14,8.6s-14-3.8-14-8.6s6.3-8.6,14-8.6S93.8,54.4,93.8,59.1z"/>
<path class="st42" d="M61.5,54.5L61.5,54.5c0,0.5,0.1,1,0.2,1.5h-0.2v0.7c0,0.3,0,0.6,0.1,0.9c0.7,4.3,6.7,7.7,14,7.7
	c7.3,0,13.2-3.4,14-7.7c0-0.3,0.1-0.6,0.1-0.9V56h-0.2c0.1-0.5,0.2-1,0.2-1.5v-0.1c0-4.7-6.3-8.5-14-8.5S61.5,49.8,61.5,54.5z
	 M60,54.5L60,54.5v2.2c0,3.1,2.1,5.7,4.8,7.4c2.8,1.7,6.6,2.7,10.7,2.7c4.1,0,7.9-1,10.7-2.7c2.8-1.7,4.8-4.3,4.8-7.4v-2.1l0,0
	c0-3.1-2.1-5.7-4.8-7.4c-2.8-1.7-6.6-2.7-10.7-2.7s-7.9,1-10.7,2.7C62,48.8,60,51.4,60,54.5L60,54.5z"/>
<path class="st44" d="M89.6,56.7c0,4.7-6.3,8.6-14,8.6s-14-3.8-14-8.6v-2h28C89.6,54.7,89.6,56.7,89.6,56.7z"/>
<path class="st43" d="M89.6,54.5c0,4.7-6.3,8.6-14,8.6s-14-3.8-14-8.6s6.3-8.6,14-8.6S89.6,49.8,89.6,54.5z"/>
<circle class="st45" cx="77.4" cy="63.4" r="27.9"/>
</svg>
