<?xml version="1.0" encoding="utf-8"?>
<!-- Generator: Adobe Illustrator 23.0.1, SVG Export Plug-In . SVG Version: 6.00 Build 0)  -->
<svg version="1.1" id="Calque_1" xmlns="http://www.w3.org/2000/svg" xmlns:xlink="http://www.w3.org/1999/xlink" x="0px" y="0px"
	 viewBox="0 0 1442 183" style="enable-background:new 0 0 1442 183;" xml:space="preserve">
<style type="text/css">
	.st0{fill:#FFFFFF;}
</style>
<g>
	<path class="st0" d="M577.2,143.9c-1.2,0.1-2.4,0.4-3.5,0.9c-2.1,1.1-3.6,3.3-4.5,6.5c-0.3,1.3-0.5,2.6-0.5,4.1l0.9,9
		c0.1,1.7,0,3.4-0.2,4.9c-0.2,1.1-0.5,2.2-0.9,3.4l0,0c-9.1,7.2-13.4,15.2-12.7,23.9c2.1,12.7,12.1,26.1,30,40.2
		c9.7,7.4,19.1,12.8,28.1,16.2c8.2,3.2,19.2,5.4,33.3,6.6c12.9,1.2,23.5,1.6,31.7,1.2c2.5-0.1,4.9-0.4,6.9-0.7
		c18.3-3.1,30.8-6.3,37.4-9.6l3.4-1.6l11.7-15.3c7.7-5,14.2-10.6,19.4-16.7c5.6-6.2,10.5-13.3,14.6-21.3c10.9-19,11.2-32.2,1-39.6
		l0,0l-1.3-1l0,0c-2.5-3.8-4.3-7.2-5.3-10.2l0,0c-1.5-1.5-4.6-2.4-9.4-2.8c-4.5-0.2-9.7-0.1-15.4,0.2c-2.1,0.1-4.3,0.3-6.5,0.4
		c-6.9,0.6-11.1,1.1-12.5,1.3c-6.8,0.8-17,2.2-30.5,4.1l-4.2,0.5c-8.9,0.9-14,1.4-15.4,1.6c-5.7,0.8-11.4,1.5-17,2.2l-11.6,1.3l0,0
		c-2.4-5.9-5.4-9.6-9-11.2l-0.1,0c-0.6-0.2-1.2-0.4-1.9-0.3c-4.6,0.5-7.5,0.8-8.7,0.8c-0.2,0-0.3,0-0.4,0c-0.1,0-0.4,0-0.9,0.1
		c-2.1,0.1-7.5,0.3-16.1,0.7c-0.2,0-0.4,0-0.6,0c-0.9,0-1.5,0.1-1.9,0.2c-0.3,0.1-0.4,0.3-0.3,0.5c1.1,1.7,1.8,3.2,1.9,4.3
		c0.2,0.9,0.1,1.9-0.1,2.9c-0.4,1.9-1.6,2.9-3.6,3c-0.2,0-0.4,0-0.6,0c-2.2,0.1-4.6-0.5-7.2-1.6c-0.9-0.4-1.9-1-2.9-1.6
		c-3.9-2.9-6-4.4-6.2-4.4c-1.6-1-3-1.7-4.3-2.1C580,144,578.6,143.8,577.2,143.9z"/>
</g>
<g>
	<path class="st0" d="M626.2,7.4c-4.1,0.3-7.4,2.4-10,6.1c-2.4,3.9-2.9,8-1.4,12.4c1.2,3.2,3.1,5.8,5.9,8c0.8,0.7,2.3,1.6,4.6,2.9
		c0.9,0.5,3.1,1.6,6.3,3.1c1.3,0.7,2.4,1.3,3.3,1.8c1.6,0.9,2.8,1.8,3.7,2.8c0.1-1.3,0.2-2.5,0.4-3.8l1.2-7.5c0.3-2.1,0.4-4.1,0.5-6
		c0.2-3.8-0.1-7-1-9.5c-0.4-1.1-1-2.4-1.8-3.8c-1.1-1.7-2.2-2.9-3.1-3.8C631.9,8.3,629,7.3,626.2,7.4L626.2,7.4z M638.7,44.5
		l-0.1,1.1l0.2-0.8C638.9,44.7,638.9,44.7,638.7,44.5L638.7,44.5z M536.8,82.9c-0.3,0-0.5,0-0.7,0c-0.3,0-0.7,0.1-1.4,0.2
		c-0.6,0.1-1.2,0.2-1.7,0.3c-0.5,0.1-0.9,0.2-1.3,0.3c-0.4,0.1-0.8,0.3-1.3,0.5c-0.5,0.2-1.1,0.5-1.7,0.8c-0.6,0.3-1,0.6-1.3,0.7
		c-0.2,0.2-0.5,0.3-0.7,0.5c-0.2,0.2-0.5,0.5-0.9,0.9c-0.4,0.4-0.7,0.7-0.9,0.9c-0.2,0.2-0.4,0.5-0.6,0.8c-0.2,0.3-0.4,0.6-0.6,1
		c-0.2,0.3-0.4,0.8-0.6,1.4c-0.2,0.6-0.4,1-0.4,1.3c-0.1,0.3-0.2,0.7-0.2,1.3s-0.1,1.1-0.1,1.5c0,0.5,0,0.9,0,1.2
		c0,0.3,0.1,0.7,0.2,1.3c0.1,0.6,0.3,1.1,0.4,1.5c0.2,0.4,0.3,0.8,0.4,1s0.3,0.5,0.4,0.8c0.2,0.3,0.4,0.7,0.7,1.1
		c0.3,0.5,0.5,0.8,0.7,1c0.1,0.2,0.3,0.4,0.4,0.5c0.2,0.2,0.4,0.5,0.8,0.8c0.4,0.4,0.7,0.7,1.1,1c0.3,0.3,0.6,0.5,0.9,0.7
		c0.3,0.2,0.5,0.4,0.8,0.5c0.3,0.2,0.6,0.4,1.1,0.6c0.5,0.3,0.9,0.5,1.2,0.6c0.3,0.1,0.7,0.3,1.2,0.4c0.5,0.1,1,0.2,1.5,0.3
		c0.5,0.1,0.9,0.1,1.2,0.1c0.3,0,0.8,0,1.4,0c0.2,0,0.4,0,0.6,0c0.4,0,0.7,0,1-0.1c0.5,0,0.9-0.1,1.3-0.2c0.4-0.1,0.8-0.1,1.4-0.2
		c0.6-0.1,1-0.2,1.5-0.3c0.4-0.1,0.9-0.2,1.3-0.3c0.4-0.1,0.8-0.2,1.2-0.3c0.4-0.1,0.8-0.2,1.4-0.3c0.6-0.1,1-0.2,1.2-0.3
		c0.3-0.1,0.7-0.2,1.2-0.3c0.5-0.1,1-0.3,1.6-0.4c0.5-0.1,0.9-0.2,1.2-0.3c0.3-0.1,0.6-0.2,0.9-0.2c0.3-0.1,0.6-0.2,1-0.3
		c0.4-0.1,0.6-0.2,0.8-0.2c0.2,0,0.4-0.1,0.8-0.2c0.3-0.1,0.7-0.1,1-0.2c0.4-0.1,0.7-0.1,1-0.1c0.3,0,0.6-0.1,0.9-0.1
		c0.1,0,0.2,0,0.3,0c0.2,0,0.3,0,0.5,0c0.3,0,0.6,0,1,0c0.4,0,0.7,0,1,0c0.3,0,0.6,0,1,0.1c0.4,0,0.7,0.1,0.9,0.1
		c0.3,0,0.5,0.1,0.7,0.1c0.2,0,0.4,0.1,0.7,0.1c0.3,0.1,0.6,0.1,0.8,0.2c0.3,0.1,0.5,0.1,0.7,0.2c0.2,0,0.4,0.1,0.6,0.2
		c0.2,0.1,0.4,0.1,0.6,0.2c0.2,0.1,0.4,0.1,0.6,0.2c0.2,0.1,0.4,0.1,0.6,0.2c0.2,0.1,0.4,0.1,0.6,0.2c0.2,0.1,0.4,0.2,0.6,0.3
		c0.2,0.1,0.4,0.2,0.6,0.3c0.2,0.1,0.4,0.2,0.7,0.4l-1.4-4.4c-0.1-0.2-0.3-0.5-0.6-1.1c-0.3-0.6-0.7-1.3-1.3-2.3c-0.6-1-1-1.7-1.3-2
		c-0.3-0.4-0.5-0.7-0.8-1.1c-0.3-0.3-0.6-0.7-0.9-1.1c-0.3-0.4-0.8-0.9-1.4-1.6c-0.6-0.7-1.2-1.2-1.6-1.6c-0.4-0.4-0.8-0.7-1.1-1.1
		c-0.4-0.3-0.7-0.6-1.1-0.9s-0.9-0.7-1.7-1.2c-0.8-0.5-1.4-0.9-1.9-1.2c-0.5-0.3-0.9-0.5-1.4-0.8c-0.5-0.2-1-0.5-1.5-0.7
		c-0.5-0.2-1.3-0.5-2.2-0.9c-1-0.4-1.7-0.6-2.1-0.7c-0.4-0.1-0.8-0.3-1.2-0.4c-0.4-0.1-1-0.2-1.8-0.4c-0.8-0.1-1.6-0.3-2.3-0.3
		c-0.7-0.1-1.4-0.1-2.1-0.2c-0.6,0-1.2,0-1.7,0c-0.5,0-1.1,0-1.8,0C537.2,82.8,537,82.8,536.8,82.9z M573,31.5
		c-3.3,0.2-6.2,2.2-8.6,6.1c-2.2,4-2.9,8.5-2.2,13.3c0.7,3.4,2.2,7.1,4.8,11.2c1,2,5.1,6.5,12.1,13.5c1.6,2.1,2.9,4.4,4,6.9
		c0.7,1.6,1.1,3.7,1.5,6.1l0.7,13.4c0.3,3.6,0.9,7.1,1.6,10.5c0.8,4.7,2.6,9.8,5.4,15.1c1.3,2.6,2.6,4.9,4.1,7.1
		c5.6,6.9,8.5,10.9,8.9,11.8c1.2,1.7,2.2,4.5,3,8.4c0.7,1.1,1.5,2.1,2.5,2.8c6.4,4.6,15.7,6.5,28,5.9c5.1-0.3,9.9-1.1,14.5-2.3
		c12.6-3.3,19.7-5.4,21.2-6.3l0,0c1.4,0.6,2.8,1.1,4.2,1.4l0,0c-0.7,1.9-1.2,3.4-1.4,4.5l91-9.4c-2.6-8.4-4-14.5-4.2-18.3
		c-0.3-2.4-0.4-4.9-0.4-7.7c0.3-9.9,0.4-15,0.3-15.4c-0.1-3.1-0.3-5.7-0.7-7.6c-1.4-6.2-3.3-9.9-5.7-11.2c-1.1-0.4-2.3-0.6-3.3-0.6
		c-2.3,0.1-4.5,1.4-6.4,3.8c-1.7,2.1-3.4,4.8-5,8.2c-1.6,3.1-3.8,8.3-6.7,15.6l-2.6,5.3c-0.9,1.6-1.8,2.4-2.7,2.4
		c-0.5,0-0.9-0.2-1.4-0.6c-0.8-2.6-1-5.1-0.8-7.5c3.4-20,5.1-33.4,5.1-40.3c0.1-9.2-0.6-17.4-2.1-24.5c-2-9.2-4.9-16.2-8.9-21
		c-5.1-5.5-10.3-8.2-15.5-7.9c0,0-0.1,0-0.1,0l0,0c-8.3,0.9-13,5.5-14.2,13.8c-0.1,1.3,0.1,2.7,0.7,4.2c-0.1,0.2,1.8,3.9,5.8,11.2
		c0.6,1.2,0.9,2.5,1,3.9c0.1,1.8-0.1,3.2-0.4,4.4c-2.5,6.7-4.1,11.2-4.5,13.7c-0.8,3.9-1,6.5-0.6,8c0.1,0.9,0.5,2,1.3,3.2l5.9,8.1
		c0.7,1.1,1,2.1,0.8,2.8c0,0.1,0,0.1-0.1,0.2l0,0c-0.4,0-0.9,0-1.3,0c0,0,0,0,0,0c-0.7,0-4.5-0.3-11.4-0.9c-0.5,0-1.1-0.1-1.9,0
		c0,0,0,0-0.1,0l0,0c-2.5,0.1-4.5,1.3-6.2,3.6c-1.5,2.3-2,4.7-1.4,7.3c0.4,1.9,1,3.5,2,4.8c0.5,0.7,1,1.4,1.6,2
		c0.3,0.3,1.3,1.4,3.2,3.1l0,0c2.4,3.8,3.6,5.9,3.7,6.3c1.2,2.5,1.7,4.3,1.5,5.6c-0.1,1.1-0.4,2.3-1,3.6l0,0
		c-0.4,0.2-0.9,0.2-1.4,0.3c-0.2,0-0.3,0-0.5,0c-3.2-0.4-6.2-2.1-9.1-5.1c-3.5-3.7-6-8.2-7.5-13.4c-0.7-2.2-1.4-4.9-2-8
		c-2.3-14.5-3.6-22.3-4.1-23.3c-1-4-2.2-7.3-3.6-9.7c-5.4-9.2-11.7-13.7-18.9-13.6l-0.1,0c-4.8,0.4-8.6,3.4-11.3,9
		c-2.5,6.1-2.5,12,0,17.8c0.8,1.9,1.9,3.7,3.2,5.2c0.2,0.4,3.6,3.9,10.2,10.2c1.2,1.3,2.1,2.6,2.7,3.9c0.6,1.5,1,2.9,1.1,4.2
		l0.5,11.3c0.2,2.2,0.5,4.1,0.9,5.7c0.8,2.9,2.1,5.7,3.8,8.4l0,0c-5.8-2.4-11.9-6.5-18.3-12.1c-3-2.6-5.2-4.8-6.6-6.5
		c-9-12-14.1-18.5-15.3-19.4c-1.3-1.6-5.2-5.3-11.9-11.2c-1.1-1.1-2.1-2.1-2.8-3c-2.8-3.4-5.1-7.6-6.8-12.5c-0.5-1.5-1-3.3-1.5-5.5
		c-1.9-10.1-3.2-16.3-3.7-18.3c-0.8-3.1-1.6-5.3-2.3-6.6c-3.8-6.2-7.9-9.3-12.3-9.4l-0.1,0C573.2,31.5,573.1,31.5,573,31.5z"/>
</g>
<g>
	<path class="st0" d="M723.6,154.9c-1.1-0.4-2.2-0.6-3.3-0.6c-2.2,0.1-4.4,1.4-6.5,3.8c-0.8,1-1.5,2.1-2,3.3l-2.8,8.1
		c-0.6,1.5-1.3,2.9-2.2,4.1c-0.6,0.9-1.3,1.7-2.1,2.6l0,0c-10.8,2.6-17.6,7.7-20.5,15.5c-3.2,11.8,0,27.3,9.8,46.7
		c5.4,10.3,11.3,18.7,17.7,25.2c5.7,6,14.4,12.3,26,19c10.6,6.2,19.6,10.8,26.8,13.7c2.2,0.9,4.3,1.6,6.2,2.2
		c17,4.7,29,6.9,36.1,6.7l3.6,0l16.2-8.5c8.6-1.2,16.4-3.4,23.4-6.6c7.4-3.1,14.4-7.3,21.1-12.5c17-12,22.6-23.2,16.7-33.7l0,0
		l-0.8-1.4l0,0c-0.6-4.3-0.8-7.9-0.5-10.9l0,0c-0.7-1.9-3-3.9-7-6.2c-3.8-2-8.3-4-13.4-6c-1.8-0.7-3.8-1.5-5.8-2.2
		c-6.2-2.2-10-3.5-11.3-3.9c-6.2-2-15.5-4.9-27.9-8.7l-3.8-1.3c-8-2.8-12.6-4.4-13.9-4.8c-5.3-1.6-10.4-3.3-15.5-4.9l-10.5-3.5l0,0
		c0.3-6.1-0.8-10.5-3.3-13.2l-0.1-0.1c-0.4-0.5-0.9-0.8-1.5-1c-4.2-1.4-6.8-2.3-7.9-2.8c-0.1-0.1-0.3-0.1-0.3-0.1
		c-0.1,0-0.4-0.1-0.8-0.3c-1.8-0.7-6.6-2.7-14.2-5.9c-0.2-0.1-0.4-0.2-0.5-0.2c-0.8-0.3-1.3-0.5-1.7-0.6c-0.3,0-0.4,0.1-0.4,0.3
		c0.3,1.9,0.2,3.4,0,4.4c-0.2,0.9-0.6,1.7-1.3,2.5c-1.1,1.5-2.5,1.9-4.3,1.2c-0.2-0.1-0.3-0.1-0.5-0.2c-1.9-0.8-3.8-2.2-5.5-4.3
		c-0.6-0.8-1.2-1.6-1.8-2.6c-2.2-4.1-3.4-6.2-3.5-6.3c-1-1.5-1.9-2.7-2.9-3.6C725.9,156.1,724.7,155.4,723.6,154.9z"/>
</g>
<g>
	<path class="st0" d="M863.8,170.7c-2-3.3-5.2-5.3-9.4-5.9c-4.3-0.4-8,0.9-11.1,4c-2.2,2.3-3.6,5.1-4.3,8.4
		c-0.2,0.9-0.4,2.7-0.5,5.1c-0.1,1,0,3.3,0,6.7c0,1.4-0.1,2.6-0.1,3.6c-0.1,1.7-0.4,3.2-0.8,4.4c1.1-0.5,2.2-0.9,3.4-1.2l6.9-2.1
		c1.9-0.7,3.7-1.4,5.3-2.1c3.4-1.4,5.9-3.1,7.6-4.8c0.8-0.8,1.6-1.8,2.5-3.1c1-1.7,1.6-3.1,1.9-4.3
		C865.5,175.9,865.1,173,863.8,170.7L863.8,170.7z M837.6,197.1l-0.9,0.4l0.8-0.2C837.5,197.4,837.5,197.3,837.6,197.1L837.6,197.1z
		 M761.7,126.7c-0.1-0.2-0.2-0.4-0.3-0.5c-0.1-0.2-0.4-0.6-0.7-1.1c-0.4-0.5-0.7-0.9-1-1.3c-0.3-0.4-0.6-0.7-0.8-0.9
		c-0.2-0.3-0.6-0.6-1-0.9c-0.4-0.3-0.9-0.7-1.4-1.1c-0.6-0.4-0.9-0.6-1.2-0.8c-0.2-0.1-0.5-0.3-0.7-0.4c-0.2-0.1-0.6-0.3-1.1-0.4
		c-0.5-0.2-0.9-0.3-1.1-0.3c-0.3-0.1-0.6-0.1-0.9-0.2c-0.3,0-0.7-0.1-1.1-0.1c-0.4,0-0.8,0-1.4,0.1c-0.6,0.1-1,0.1-1.3,0.2
		c-0.3,0.1-0.7,0.2-1.2,0.3c-0.5,0.2-0.9,0.3-1.4,0.6c-0.4,0.2-0.7,0.4-1,0.5c-0.2,0.1-0.5,0.4-1,0.7c-0.4,0.4-0.8,0.7-1.1,1
		c-0.3,0.3-0.5,0.6-0.7,0.8c-0.2,0.2-0.3,0.4-0.5,0.7c-0.2,0.3-0.4,0.6-0.7,1.1c-0.3,0.5-0.4,0.8-0.5,1c-0.1,0.2-0.2,0.4-0.3,0.6
		c-0.1,0.2-0.2,0.6-0.4,1c-0.2,0.5-0.3,0.9-0.4,1.3c-0.1,0.4-0.2,0.8-0.2,1.1c-0.1,0.3-0.1,0.6-0.1,0.9s-0.1,0.7-0.1,1.2
		c0,0.5,0,1,0,1.2c0,0.3,0.1,0.7,0.2,1.2c0.1,0.5,0.2,0.9,0.4,1.4c0.2,0.5,0.3,0.8,0.4,1.1c0.1,0.3,0.3,0.7,0.6,1.2
		c0.1,0.2,0.2,0.4,0.3,0.5c0.2,0.3,0.3,0.6,0.5,0.9c0.3,0.4,0.5,0.8,0.7,1c0.2,0.3,0.5,0.6,0.8,1.1c0.3,0.4,0.6,0.8,0.9,1.1
		c0.3,0.3,0.5,0.7,0.8,1c0.3,0.3,0.5,0.6,0.8,0.9c0.2,0.3,0.5,0.6,0.9,1c0.4,0.4,0.6,0.7,0.8,0.9c0.2,0.2,0.4,0.5,0.8,0.9
		c0.3,0.4,0.7,0.8,1,1.2c0.3,0.4,0.6,0.7,0.8,0.9c0.2,0.2,0.4,0.4,0.6,0.7c0.2,0.2,0.4,0.5,0.6,0.7c0.2,0.3,0.4,0.5,0.5,0.6
		c0.1,0.1,0.3,0.3,0.5,0.6c0.2,0.3,0.4,0.5,0.6,0.8c0.2,0.3,0.4,0.6,0.6,0.8c0.2,0.3,0.3,0.5,0.5,0.7c0.1,0.1,0.1,0.2,0.2,0.3
		c0.1,0.1,0.2,0.3,0.2,0.4c0.1,0.2,0.3,0.5,0.4,0.8c0.2,0.3,0.3,0.6,0.4,0.9c0.1,0.3,0.2,0.5,0.4,0.9c0.1,0.3,0.2,0.6,0.3,0.8
		c0.1,0.2,0.2,0.4,0.2,0.6c0.1,0.2,0.1,0.4,0.2,0.7c0.1,0.3,0.1,0.5,0.2,0.8c0.1,0.3,0.1,0.5,0.1,0.6c0,0.2,0.1,0.4,0.1,0.6
		c0,0.2,0.1,0.4,0.1,0.6c0,0.2,0.1,0.4,0.1,0.5c0,0.2,0.1,0.4,0.1,0.6c0,0.2,0,0.4,0.1,0.6c0,0.2,0,0.4,0,0.6c0,0.2,0,0.4,0,0.6
		c0,0.2,0,0.4,0,0.8l3.2-3.1c0.1-0.1,0.3-0.5,0.7-0.9c0.4-0.5,0.8-1.2,1.4-2.1c0.6-0.9,1-1.6,1.2-2c0.2-0.4,0.4-0.8,0.6-1.2
		c0.2-0.4,0.4-0.8,0.5-1.2c0.2-0.4,0.4-1.1,0.7-1.9c0.3-0.8,0.5-1.5,0.7-2c0.2-0.5,0.3-1,0.4-1.4c0.1-0.4,0.2-0.9,0.3-1.3
		c0.1-0.4,0.2-1.1,0.3-2c0.1-0.9,0.2-1.6,0.2-2.1c0-0.5,0-1,0-1.5c0-0.5,0-1,0-1.6c0-0.5-0.1-1.3-0.2-2.3c-0.1-1-0.2-1.7-0.2-2.1
		c-0.1-0.4-0.1-0.8-0.2-1.2c-0.1-0.4-0.2-0.9-0.4-1.7c-0.2-0.8-0.5-1.5-0.7-2.1c-0.2-0.7-0.5-1.3-0.7-1.8c-0.2-0.6-0.5-1-0.7-1.5
		c-0.2-0.4-0.5-0.9-0.8-1.5C761.9,127.1,761.8,126.9,761.7,126.7z M820.7,135.8c-1.6-2.7-4.5-4.3-8.8-4.7c-4.4-0.2-8.5,1.1-12.3,3.8
		c-2.6,2-5.1,4.9-7.5,8.8c-1.3,1.7-3.4,7.1-6.3,16c-1.1,2.3-2.5,4.4-4.2,6.3c-1.1,1.3-2.6,2.5-4.6,3.8l-11.1,6.3
		c-2.9,1.8-5.7,3.7-8.2,5.8c-3.7,2.7-7.2,6.4-10.6,11c-1.6,2.2-3.1,4.3-4.3,6.5c-3.5,7.7-5.6,11.9-6.2,12.6
		c-0.9,1.7-2.9,3.8-5.9,6.1c-0.7,1.1-1.1,2.2-1.3,3.3c-1.2,7.3,1.1,16.1,6.9,26.3c2.4,4.2,5.1,8,8.1,11.4
		c8.1,9.3,12.9,14.4,14.3,15.4l0,0c0.1,1.4,0.3,2.8,0.6,4.2l0,0c-1.9,0.2-3.4,0.4-4.4,0.7l46.6,73.3c6-5.8,10.6-9.5,13.8-11.3
		c1.9-1.2,4-2.4,6.4-3.6c8.5-3.9,12.9-6,13.2-6.2c2.6-1.4,4.7-2.7,6.2-3.8c4.7-3.8,7-7,7.1-9.6c-0.1-1.2-0.4-2.2-0.9-3.1
		c-1.1-1.9-3.1-3.2-5.9-3.9c-2.5-0.6-5.6-0.8-9.1-0.8c-3.3,0-8.7,0.3-16.1,1l-5.6,0c-1.7-0.1-2.8-0.5-3.2-1.3
		c-0.2-0.4-0.3-0.9-0.1-1.5c1.9-1.8,3.9-3,6-3.8c18.4-5.6,30.6-9.9,36.4-12.7c7.9-3.8,14.5-7.8,19.9-12.1c7-5.6,11.7-11.1,14.1-16.5
		c2.5-6.7,2.6-12.2,0.1-16.5c0,0,0-0.1-0.1-0.1l0,0c-4.3-6.6-10.2-8.7-17.8-6.2c-1.2,0.5-2.3,1.2-3.3,2.4c-0.2,0-2.6,3.2-7,9.7
		c-0.8,1-1.7,1.8-2.9,2.5c-1.5,0.8-2.8,1.3-3.9,1.5c-6.8,0.7-11.3,1.3-13.5,2c-3.6,1-6,1.9-7.1,2.8c-0.7,0.5-1.5,1.3-2.2,2.4
		l-4.4,8.5c-0.7,1.1-1.3,1.7-2.1,1.9c-0.1,0-0.1,0-0.2,0l0,0c-0.2-0.4-0.4-0.8-0.5-1.2c0,0,0,0,0,0c-0.3-0.6-1.7-3.9-4.1-10.1
		c-0.2-0.4-0.4-1-0.8-1.6c0,0,0,0,0-0.1l0,0c-1.2-2-3-3.3-5.6-3.7c-2.6-0.3-4.9,0.3-6.8,1.9c-1.5,1.1-2.6,2.4-3.3,3.7
		c-0.4,0.7-0.7,1.5-1,2.2c-0.2,0.4-0.6,1.7-1.2,4.1l0,0c-2.2,3.6-3.5,5.6-3.8,5.8c-1.6,2-3,3.3-4.1,3.7c-1,0.4-2.2,0.6-3.5,0.7l0,0
		c-0.3-0.3-0.6-0.6-0.8-1.1c-0.1-0.1-0.2-0.3-0.2-0.4c-1.1-2.9-0.9-6.2,0.5-9.9c1.7-4.5,4.4-8.6,8.2-12c1.6-1.6,3.6-3.3,5.9-5.1
		c11.4-8.1,17.4-12.6,18.1-13.4c3-2.6,5.2-5,6.7-7.1c5.5-8.5,6.7-15.8,3.5-21.8l0-0.1c-2.4-3.9-6.6-5.8-12.5-5.8
		c-6.2,0.5-11.3,3-15.2,7.5c-1.3,1.5-2.3,3.2-3.1,5c-0.3,0.4-1.7,4.7-4.3,13c-0.6,1.6-1.3,2.9-2.2,3.9c-1,1.2-2,2.1-3.1,2.7
		l-9.4,5.2c-1.8,1.1-3.3,2.2-4.5,3.2c-2.1,2-4,4.2-5.5,6.8l0,0c-0.4-5.9,0.5-12.8,2.5-20.7c0.9-3.7,1.8-6.5,2.7-8.4
		c6.4-12.8,9.7-19.9,10-21.2c0.8-1.8,2.3-6.7,4.5-14.8c0.4-1.4,0.9-2.6,1.3-3.6c1.7-3.8,4.3-7.5,7.7-11.1c1-1,2.4-2.2,4-3.6
		c7.8-5.9,12.5-9.6,14-11c2.3-2,3.8-3.6,4.6-4.8c3.6-5.8,4.6-10.6,2.8-14.4l-0.1-0.1C820.8,135.9,820.8,135.8,820.7,135.8z"/>
</g>
<g>
	<path class="st0" d="M362.1,278c-1.3,0.8-2.5,1.7-3.4,2.9c-1.7,2.4-2.2,5.7-1.4,9.8c0.3,1.6,0.9,3.2,1.7,4.8l6,9.5
		c1.1,1.9,1.9,3.7,2.4,5.6c0.4,1.3,0.7,2.8,0.9,4.3l0,0c-6.2,13.2-6.4,24.4-0.8,33.8c9.5,13,28.1,22.4,56.1,28.1
		c15,2.9,28.5,3.7,40.4,2.4c10.9-1,24.5-4.8,40.8-11.3c15.1-5.8,27.1-11.3,36-16.4c2.8-1.6,5.2-3.1,7.4-4.6
		c18.7-13.6,30.9-24.2,36.4-31.7l2.9-3.7l4.5-23.7c5.8-9.9,9.9-19.7,12.4-29.5c2.8-10.1,4.3-20.8,4.5-31.9
		c1.6-27.3-5.4-42.2-21.1-44.8l-0.1,0l-2-0.3l0,0c-4.9-2.8-8.8-5.6-11.7-8.4l0,0c-2.5-0.8-6.5-0.1-12.1,2.1
		c-5.2,2.3-10.9,5.2-17.2,8.8c-2.3,1.3-4.6,2.7-7,4.1c-7.3,4.6-11.8,7.4-13.2,8.4c-7.2,4.7-17.8,11.9-31.8,21.6l-4.4,2.9
		c-9.5,5.9-14.9,9.4-16.3,10.3c-6,4.1-11.9,8.1-17.7,11.9l-12.2,7.9l0,0c-6-5.3-11.4-7.7-16.3-7.5l-0.1,0c-0.8,0.1-1.6,0.3-2.3,0.7
		c-4.9,3.1-8,5.1-9.3,5.8c-0.2,0.1-0.3,0.2-0.4,0.2c-0.1,0.1-0.5,0.3-1,0.6c-2.3,1.3-8.2,4.5-17.7,9.8c-0.2,0.1-0.5,0.3-0.7,0.4
		c-1,0.5-1.6,1-1.9,1.3c-0.3,0.3-0.3,0.5-0.1,0.7c2.2,1.3,3.7,2.6,4.5,3.7c0.7,0.9,1.2,2,1.5,3.4c0.6,2.4-0.1,4.2-2.3,5.4
		c-0.2,0.1-0.4,0.2-0.6,0.3c-2.4,1.3-5.4,2.1-9,2.2c-1.3,0-2.7,0-4.1-0.2c-6-1.1-9.1-1.6-9.4-1.5c-2.3-0.2-4.3-0.2-6,0.1
		C365.2,276.6,363.5,277.2,362.1,278z"/>
</g>
<g>
	<path class="st0" d="M340.6,98.2c-4.4,2.6-7,6.8-7.8,12.4c-0.6,5.7,1.2,10.6,5.3,14.6c3.1,2.9,6.8,4.8,11.1,5.6
		c1.2,0.3,3.5,0.5,6.8,0.7c1.4,0.1,4.3,0.1,8.8,0c1.8,0,3.4,0.1,4.8,0.2c2.3,0.1,4.2,0.5,5.8,1.1c-0.6-1.5-1.2-3-1.6-4.5l-2.8-9.1
		c-0.9-2.5-1.8-4.8-2.8-6.9c-1.9-4.4-4-7.8-6.4-10c-1.1-1.1-2.4-2.1-4.1-3.2c-2.2-1.3-4.1-2.1-5.6-2.5
		C347.4,96,343.6,96.5,340.6,98.2L340.6,98.2z M375.3,132.7l0.5,1.2l-0.2-1.1C375.6,132.8,375.5,132.8,375.3,132.7L375.3,132.7z
		 M282.8,232.5c-0.3,0.2-0.6,0.3-0.7,0.4c-0.3,0.2-0.8,0.5-1.4,1c-0.7,0.5-1.2,0.9-1.7,1.3c-0.5,0.4-0.9,0.8-1.2,1.1
		c-0.3,0.3-0.7,0.7-1.2,1.3c-0.5,0.5-0.9,1.2-1.4,1.9c-0.5,0.7-0.8,1.2-1,1.5c-0.2,0.3-0.3,0.6-0.5,0.9c-0.2,0.3-0.3,0.8-0.6,1.5
		c-0.2,0.7-0.4,1.2-0.5,1.5c-0.1,0.3-0.1,0.7-0.2,1.2c-0.1,0.4-0.1,0.9-0.1,1.4c0,0.5,0,1.1,0.1,1.8c0.1,0.7,0.1,1.3,0.2,1.7
		c0.1,0.4,0.2,0.9,0.4,1.5c0.2,0.6,0.5,1.2,0.7,1.8c0.3,0.6,0.5,1,0.7,1.3c0.2,0.3,0.5,0.7,1,1.3c0.5,0.6,0.9,1,1.3,1.4
		c0.4,0.4,0.8,0.7,1,0.9c0.3,0.2,0.6,0.4,0.9,0.7c0.3,0.2,0.8,0.5,1.4,0.9c0.6,0.3,1.1,0.6,1.3,0.7c0.2,0.1,0.5,0.2,0.8,0.4
		c0.3,0.1,0.8,0.3,1.4,0.5c0.6,0.2,1.2,0.4,1.7,0.5c0.5,0.1,1,0.2,1.4,0.3c0.4,0.1,0.8,0.1,1.2,0.2c0.4,0,0.9,0.1,1.6,0.1
		c0.7,0,1.3,0,1.6,0c0.4,0,0.9-0.1,1.5-0.2c0.6-0.1,1.2-0.3,1.8-0.5c0.6-0.2,1.1-0.4,1.5-0.5c0.4-0.2,0.9-0.4,1.5-0.8
		c0.2-0.1,0.5-0.3,0.7-0.4c0.4-0.2,0.8-0.5,1.1-0.7c0.5-0.3,1-0.6,1.4-0.9c0.4-0.3,0.8-0.6,1.4-1c0.6-0.4,1.1-0.8,1.5-1.2
		c0.4-0.4,0.9-0.7,1.3-1.1c0.4-0.4,0.8-0.7,1.2-1c0.3-0.3,0.8-0.7,1.3-1.1c0.5-0.5,0.9-0.8,1.2-1c0.3-0.2,0.7-0.6,1.2-1
		c0.5-0.4,1-0.9,1.5-1.3c0.5-0.4,0.9-0.8,1.2-1c0.3-0.3,0.6-0.5,0.9-0.8c0.3-0.3,0.6-0.5,1-0.9c0.4-0.3,0.6-0.5,0.8-0.7
		c0.2-0.1,0.4-0.4,0.8-0.6c0.3-0.3,0.7-0.5,1.1-0.8c0.4-0.3,0.7-0.5,1.1-0.7c0.4-0.2,0.7-0.4,1-0.6c0.1-0.1,0.2-0.1,0.4-0.2
		c0.2-0.1,0.4-0.2,0.6-0.3c0.3-0.2,0.7-0.4,1.1-0.6c0.4-0.2,0.8-0.4,1.1-0.5c0.3-0.2,0.7-0.3,1.1-0.5c0.4-0.2,0.8-0.3,1.1-0.4
		c0.3-0.1,0.6-0.2,0.8-0.3c0.2-0.1,0.5-0.2,0.9-0.3c0.3-0.1,0.7-0.2,1-0.3c0.3-0.1,0.6-0.1,0.8-0.2c0.2,0,0.5-0.1,0.7-0.2
		c0.3-0.1,0.5-0.1,0.7-0.1c0.2,0,0.5-0.1,0.7-0.1c0.2,0,0.5-0.1,0.8-0.1c0.3,0,0.5-0.1,0.8-0.1c0.2,0,0.5,0,0.8,0c0.3,0,0.6,0,0.8,0
		c0.3,0,0.6,0,1,0l-4-4.2c-0.2-0.1-0.6-0.5-1.2-0.9c-0.6-0.5-1.6-1.1-2.8-1.8c-1.2-0.8-2.1-1.3-2.6-1.5c-0.5-0.3-1-0.5-1.5-0.8
		c-0.5-0.2-1-0.5-1.6-0.7c-0.6-0.2-1.4-0.6-2.5-1c-1.1-0.4-2-0.7-2.6-0.9c-0.6-0.2-1.3-0.4-1.9-0.6c-0.6-0.2-1.2-0.3-1.7-0.4
		c-0.6-0.1-1.5-0.3-2.6-0.4c-1.2-0.1-2.1-0.2-2.8-0.3c-0.7,0-1.3-0.1-2-0.1c-0.7,0-1.4,0-2.1,0c-0.7,0-1.7,0.1-3,0.2
		c-1.3,0.1-2.2,0.2-2.8,0.3c-0.6,0.1-1.1,0.2-1.6,0.3c-0.5,0.1-1.2,0.3-2.2,0.6c-1,0.3-1.9,0.6-2.8,0.9c-0.9,0.3-1.7,0.7-2.4,1
		c-0.7,0.3-1.4,0.6-1.9,0.9c-0.6,0.3-1.2,0.6-2,1.1C283.3,232.2,283,232.4,282.8,232.5z M294.6,154.9c-3.6,2.1-5.7,5.9-6.2,11.6
		c-0.2,5.8,1.5,11.1,5.1,16.1c2.6,3.4,6.5,6.7,11.6,9.8c2.3,1.7,9.3,4.4,21.1,8.3c3,1.4,5.7,3.3,8.3,5.5c1.6,1.4,3.3,3.4,5,6
		l8.2,14.6c2.4,3.8,4.9,7.4,7.6,10.8c3.6,4.8,8.4,9.4,14.4,13.9c2.9,2.2,5.7,4,8.5,5.6c10.1,4.6,15.6,7.4,16.5,8.1
		c2.3,1.2,5,3.8,8,7.8c1.4,0.9,2.9,1.5,4.3,1.8c9.7,1.6,21.2-1.5,34.5-9c5.5-3.2,10.5-6.8,15-10.7c12.3-10.7,19-17,20.2-18.9l0,0
		c1.9-0.1,3.7-0.4,5.5-0.9l0,0c0.2,2.5,0.5,4.4,0.9,5.8l96.4-61.4c-7.6-8-12.6-14-14.9-18.1c-1.6-2.5-3.2-5.3-4.8-8.4
		c-5.2-11.2-7.9-17-8.2-17.3c-1.8-3.5-3.5-6.2-5-8.1c-5-6.1-9.2-9.2-12.7-9.3c-1.5,0.2-2.9,0.6-4,1.2c-2.5,1.4-4.2,4-5.1,7.8
		c-0.7,3.3-1.1,7.3-1.1,12c0,4.3,0.4,11.4,1.3,21.2l0,7.4c-0.2,2.2-0.7,3.6-1.6,4.2c-0.5,0.3-1.2,0.3-1.9,0.1c-2.3-2.5-4-5.2-5-7.9
		c-7.4-24.3-13-40.2-16.8-47.8c-5-10.4-10.3-19.1-16-26.2c-7.4-9.2-14.6-15.4-21.7-18.5c-8.8-3.3-16.1-3.4-21.7-0.1
		c0,0-0.1,0.1-0.1,0.1l0,0c-8.7,5.6-11.5,13.4-8.2,23.4c0.6,1.5,1.6,3,3.1,4.4c0,0.3,4.2,3.4,12.7,9.2c1.3,1,2.4,2.3,3.3,3.8
		c1.1,2,1.7,3.7,2,5.2c0.9,8.9,1.8,14.8,2.6,17.8c1.3,4.7,2.6,7.8,3.8,9.3c0.6,1,1.7,1.9,3.2,2.8l11.1,5.7c1.4,0.9,2.2,1.8,2.5,2.7
		c0,0.1,0,0.2,0,0.3l0,0c-0.5,0.2-1,0.5-1.5,0.7c0,0,0,0,0,0c-0.7,0.4-5.2,2.2-13.3,5.3c-0.6,0.2-1.3,0.6-2.2,1.1c0,0-0.1,0-0.1,0
		l0,0c-2.7,1.5-4.3,4-4.9,7.4c-0.4,3.4,0.4,6.4,2.5,8.9c1.5,1.9,3.1,3.4,4.9,4.3c1,0.5,2,1,2.9,1.3c0.5,0.2,2.3,0.8,5.3,1.6l0,0
		c4.8,2.9,7.3,4.6,7.6,5c2.7,2.1,4.3,3.9,4.8,5.3c0.5,1.3,0.8,2.8,0.9,4.6l0,0c-0.4,0.4-0.8,0.8-1.4,1.1c-0.2,0.1-0.4,0.2-0.6,0.3
		c-3.8,1.4-8.1,1.2-13.1-0.6c-6-2.2-11.3-5.8-15.8-10.7c-2.1-2.1-4.3-4.7-6.7-7.8c-10.7-15-16.5-22.9-17.6-23.8
		c-3.4-3.9-6.6-6.9-9.4-8.8c-11.2-7.2-20.8-8.7-28.7-4.6l-0.1,0.1c-5.1,3.2-7.7,8.6-7.6,16.4c0.6,8.2,3.9,14.9,9.9,20
		c2,1.7,4.2,3.1,6.5,4.1c0.5,0.4,6.2,2.3,17.2,5.7c2,0.8,3.8,1.7,5.2,2.9c1.5,1.3,2.7,2.7,3.6,4l6.9,12.4c1.4,2.4,2.8,4.3,4.2,5.9
		c2.6,2.8,5.5,5.2,8.9,7.2l0,0c-7.8,0.5-16.9-0.6-27.2-3.3c-4.8-1.2-8.5-2.4-11.1-3.6c-16.8-8.3-26.1-12.7-28-13.2
		c-2.3-1.1-8.8-3-19.5-5.9c-1.9-0.6-3.5-1.2-4.8-1.8c-5-2.2-9.9-5.6-14.6-10.1c-1.4-1.3-3-3.1-4.7-5.3
		c-7.8-10.3-12.6-16.4-14.4-18.4c-2.6-3-4.7-5-6.3-6.1c-7.7-4.8-14-6-19-3.6l-0.1,0.1C294.8,154.8,294.7,154.8,294.6,154.9z"/>
</g>
<g>
	<path class="st0" d="M936.1,209.6c-1.6,0.5-3.3,1.4-5.2,2.5c-0.2,0-2.7,1.8-7.4,5.3c-1.2,0.8-2.3,1.4-3.5,2c-3.1,1.4-6,2.1-8.7,2
		c-0.2,0-0.5,0-0.7,0c-2.4-0.1-3.9-1.4-4.3-3.7c-0.3-1.3-0.4-2.5-0.1-3.5c0.2-1.3,1-3,2.3-5.1c0.1-0.2,0-0.4-0.3-0.5
		c-0.4-0.1-1.2-0.2-2.2-0.3c-0.2,0-0.5,0-0.7,0c-10.5-0.4-16.9-0.6-19.5-0.8c-0.6,0-1-0.1-1.1-0.1c-0.1,0-0.3,0-0.5,0
		c-1.5-0.1-5-0.4-10.5-1c-0.7,0-1.5,0.1-2.2,0.4l-0.1,0c-4.3,1.9-7.9,6.4-10.8,13.5l0,0l-13.9-1.6c-6.7-0.8-13.5-1.7-20.5-2.6
		c-1.6-0.2-7.8-0.9-18.5-1.9l-5.1-0.6c-16.3-2.3-28.5-3.9-36.7-4.9c-1.7-0.3-6.7-0.8-15.1-1.5c-2.7-0.2-5.3-0.4-7.8-0.5
		c-7-0.4-13.2-0.5-18.6-0.2c-5.8,0.5-9.6,1.6-11.3,3.4l0,0c-1.3,3.6-3.4,7.7-6.4,12.3l0,0l-1.6,1.2l-0.1,0c-12.4,9-12,24.9,1.2,47.8
		c5,9.6,10.8,18.1,17.7,25.6c6.3,7.4,14.2,14.1,23.4,20.1l14.1,18.5l4.1,1.9c8,4.1,23,7.9,45.1,11.6c2.5,0.4,5.3,0.6,8.4,0.8
		c9.9,0.5,22.6,0.1,38.2-1.4c16.9-1.4,30.3-4.1,40.1-7.9c10.9-4.1,22.1-10.6,33.9-19.5c21.6-17,33.7-33.2,36.2-48.5
		c0.8-10.5-4.3-20.2-15.3-28.9l0,0c-0.5-1.4-0.8-2.7-1-4.1c-0.3-1.8-0.4-3.8-0.3-5.9l1.1-10.8c0-1.7-0.2-3.4-0.6-4.9
		c-1.1-3.9-3-6.5-5.5-7.8c-1.3-0.6-2.7-1-4.2-1.1C939.6,208.8,937.9,209,936.1,209.6z"/>
</g>
<g>
	<path class="st0" d="M899,7.2c-3.6-0.1-7.3,1.1-11.3,3.7c-1.2,1.1-2.6,2.7-4.1,4.9c-1.1,1.8-1.8,3.4-2.3,4.9
		c-1.1,3.2-1.6,7.3-1.3,12.3c0.1,2.4,0.3,5,0.7,7.7l1.6,9.7c0.3,1.6,0.4,3.3,0.5,4.9c1.2-1.3,2.8-2.5,4.9-3.7
		c1.2-0.7,2.7-1.5,4.4-2.4c4.2-2,7-3.4,8.2-4.1c3-1.7,5-2.9,6-3.8c3.6-2.8,6.2-6.3,7.7-10.4c1.9-5.7,1.3-11-1.9-16.1
		C908.7,10.3,904.3,7.6,899,7.2L899,7.2z M882.8,55.5c-0.2,0.1-0.2,0.2-0.2,0.2l0.3,1.1L882.8,55.5L882.8,55.5z M1014.3,105.2
		c-0.9,0-1.7-0.1-2.3-0.1c-0.7,0-1.4,0-2.2,0.1c-0.8,0-1.7,0.1-2.7,0.2c-1,0.1-2,0.2-3,0.4s-1.8,0.4-2.3,0.5c-0.5,0.1-1,0.3-1.6,0.5
		c-0.6,0.2-1.5,0.5-2.7,1c-1.3,0.5-2.2,0.9-2.9,1.2c-0.7,0.3-1.3,0.6-2,0.9c-0.6,0.3-1.2,0.7-1.9,1c-0.6,0.3-1.4,0.9-2.5,1.6
		c-1,0.7-1.8,1.2-2.3,1.6c-0.5,0.4-0.9,0.8-1.4,1.2c-0.5,0.4-1,0.9-1.5,1.4c-0.5,0.5-1.2,1.2-2,2.1c-0.8,0.9-1.5,1.6-1.9,2.1
		c-0.4,0.5-0.8,0.9-1.1,1.4c-0.4,0.5-0.7,0.9-1.1,1.4c-0.4,0.5-0.9,1.4-1.7,2.6c-0.8,1.3-1.4,2.3-1.7,3s-0.6,1.2-0.7,1.4l-1.8,5.8
		c0.4-0.2,0.7-0.4,0.9-0.5c0.2-0.1,0.5-0.2,0.8-0.4c0.3-0.1,0.5-0.2,0.8-0.3c0.2-0.1,0.5-0.2,0.8-0.3c0.3-0.1,0.5-0.2,0.8-0.3
		c0.2-0.1,0.5-0.1,0.7-0.2c0.2-0.1,0.5-0.1,0.8-0.2c0.3-0.1,0.5-0.1,0.7-0.2c0.2-0.1,0.5-0.1,0.9-0.2c0.3-0.1,0.7-0.2,1.1-0.2
		c0.4-0.1,0.7-0.1,0.9-0.2c0.3,0,0.6-0.1,0.9-0.1c0.3,0,0.7-0.1,1.2-0.1c0.5,0,0.9-0.1,1.3-0.1c0.4,0,0.8,0,1.3,0c0.5,0,0.9,0,1.3,0
		c0.2,0,0.5,0,0.7,0c0.1,0,0.3,0,0.4,0c0.4,0,0.8,0.1,1.2,0.1c0.4,0,0.9,0.1,1.3,0.2c0.5,0.1,0.9,0.2,1.4,0.2c0.4,0.1,0.8,0.2,1,0.2
		c0.2,0.1,0.6,0.1,1.1,0.3c0.5,0.1,0.9,0.2,1.3,0.3c0.4,0.1,0.8,0.2,1.2,0.3c0.4,0.1,0.9,0.2,1.6,0.4c0.7,0.2,1.3,0.3,2,0.5
		c0.7,0.2,1.2,0.3,1.6,0.4c0.4,0.1,0.9,0.2,1.6,0.4c0.7,0.2,1.3,0.3,1.8,0.4c0.5,0.1,1,0.2,1.6,0.4c0.6,0.1,1.2,0.3,1.7,0.4
		c0.6,0.1,1.2,0.2,1.9,0.4c0.7,0.1,1.3,0.2,1.8,0.3c0.5,0.1,1,0.1,1.7,0.2c0.4,0,0.9,0.1,1.4,0.1c0.3,0,0.5,0,0.8,0
		c0.8,0,1.4,0,1.8,0c0.4,0,1-0.1,1.6-0.2c0.7-0.1,1.3-0.2,1.9-0.4c0.6-0.2,1.1-0.3,1.5-0.5c0.4-0.2,0.9-0.4,1.5-0.8
		c0.7-0.3,1.1-0.6,1.5-0.8c0.3-0.2,0.7-0.4,1-0.7c0.3-0.2,0.7-0.5,1.2-0.9c0.4-0.4,0.9-0.8,1.4-1.3c0.5-0.5,0.8-0.9,1.1-1.1
		c0.2-0.3,0.4-0.5,0.6-0.7c0.2-0.2,0.5-0.6,0.9-1.2c0.4-0.6,0.7-1.1,0.9-1.5c0.2-0.4,0.4-0.7,0.5-1c0.2-0.3,0.3-0.8,0.5-1.3
		c0.2-0.6,0.4-1.2,0.6-2c0.2-0.7,0.3-1.3,0.3-1.7c0-0.4,0.1-0.9,0-1.5c0-0.6-0.1-1.3-0.2-2s-0.2-1.2-0.3-1.6c-0.1-0.4-0.3-1-0.6-1.7
		c-0.3-0.7-0.5-1.3-0.8-1.8c-0.2-0.5-0.5-0.9-0.7-1.2c-0.3-0.4-0.5-0.7-0.7-1c-0.2-0.3-0.6-0.7-1.1-1.2s-0.9-0.9-1.2-1.1
		c-0.3-0.2-0.6-0.4-0.9-0.6c-0.3-0.2-0.8-0.5-1.7-1c-0.8-0.4-1.5-0.8-2.2-1.1c-0.7-0.3-1.2-0.5-1.7-0.6c-0.5-0.1-1-0.3-1.6-0.4
		c-0.6-0.1-1.4-0.3-2.2-0.4c-0.8-0.1-1.4-0.2-1.8-0.2c-0.2,0-0.5,0-0.9-0.1C1015,105.2,1014.7,105.2,1014.3,105.2z M967.9,38.5
		l-0.1,0c-5.8,0.1-11.1,4.2-16,12.2c-1,1.7-2,4.5-3,8.6c-0.8,2.7-2.4,10.6-4.9,23.8c-0.6,2.8-1.3,5.2-1.9,7.1
		c-2.3,6.4-5.2,11.8-8.9,16.2c-0.9,1.2-2.1,2.4-3.6,3.9c-8.6,7.6-13.8,12.5-15.4,14.5c-1.5,1.3-8.1,9.7-19.9,25.3
		c-1.8,2.3-4.7,5.2-8.6,8.5c-8.4,7.3-16.3,12.5-23.8,15.7l0,0c2.2-3.5,3.8-7.1,4.9-10.9c0.6-2.1,0.9-4.5,1.2-7.4l0.6-14.7
		c0.2-1.7,0.6-3.5,1.4-5.4c0.8-1.7,1.9-3.4,3.5-5.1c8.6-8.3,13-12.7,13.3-13.3c1.7-2,3.1-4.3,4.2-6.8c3.2-7.5,3.2-15.3-0.1-23.2
		c-3.5-7.3-8.4-11.2-14.7-11.7l-0.1,0c-9.3-0.2-17.5,5.7-24.5,17.6c-1.7,3.2-3.3,7.4-4.6,12.6c-0.6,1.3-2.4,11.4-5.3,30.3
		c-0.8,4-1.7,7.4-2.6,10.3c-2,6.7-5.2,12.5-9.7,17.4c-3.8,4-7.7,6.2-11.9,6.6c-0.2,0-0.5,0-0.7,0c-0.7,0-1.3-0.2-1.8-0.4l0,0
		c-0.7-1.7-1.2-3.2-1.3-4.7c-0.2-1.6,0.5-4,2-7.2c0.1-0.5,1.6-3.2,4.7-8.1l0,0c2.5-2.2,3.9-3.6,4.2-4c0.7-0.8,1.4-1.7,2.1-2.6
		c1.2-1.7,2.1-3.8,2.6-6.3c0.7-3.3,0.1-6.4-1.9-9.4c-2.1-2.9-4.8-4.4-8-4.6l0,0c0,0-0.1,0-0.1,0c-1-0.1-1.9-0.1-2.5,0
		c-9,0.8-13.9,1.2-14.8,1.2c0,0,0,0-0.1,0c-0.6,0-1.2,0-1.8,0l0,0c0-0.1-0.1-0.2-0.1-0.3c-0.2-1,0.1-2.2,1-3.7l7.7-10.5
		c1-1.5,1.5-2.9,1.6-4.1c0.4-1.9,0.1-5.4-0.8-10.4c-0.6-3.2-2.6-9.1-5.9-17.8c-0.4-1.5-0.6-3.4-0.6-5.7c0.1-1.8,0.5-3.5,1.3-5
		c5.2-9.4,7.7-14.2,7.5-14.5c0.7-2,1-3.8,0.9-5.5c-1.6-10.8-7.8-16.8-18.5-18l0,0c-0.1,0-0.1,0-0.2,0c-6.7-0.4-13.5,3-20.1,10.2
		c-5.1,6.3-9,15.4-11.6,27.3c-1.9,9.2-2.8,19.8-2.7,31.8c0,8.9,2.2,26.3,6.7,52.3c0.3,3.1,0,6.3-1,9.7c-0.6,0.6-1.2,0.8-1.8,0.8
		c-1.1-0.1-2.3-1.1-3.5-3.1l-3.4-6.9c-3.8-9.5-6.6-16.3-8.7-20.3c-2.1-4.3-4.3-7.9-6.6-10.7c-2.6-3.1-5.4-4.7-8.4-4.9
		c-1.4-0.1-2.8,0.2-4.3,0.7c-3.2,1.7-5.6,6.5-7.4,14.5c-0.5,2.5-0.8,5.8-0.8,9.9c-0.1,0.4,0,7.1,0.4,20c0,3.6-0.2,7-0.5,10
		c-0.3,4.9-2.1,12.9-5.4,23.8l118.2,12.2c-0.3-1.5-0.9-3.4-1.9-5.8l0,0c1.8-0.4,3.7-1,5.5-1.8l0,0c2,1.2,11.2,3.9,27.6,8.1
		c6,1.6,12.3,2.5,18.9,3c16,0.8,28.1-1.7,36.3-7.7c1.2-1,2.3-2.2,3.2-3.7c1-5.1,2.3-8.7,3.9-11c0.5-1.2,4.4-6.3,11.6-15.3
		c1.9-2.8,3.6-5.8,5.3-9.2c3.5-6.9,5.9-13.5,7-19.6c0.9-4.4,1.6-8.9,2.1-13.6l0.8-17.4c0.4-3.2,1-5.9,1.9-8c1.3-3.3,3.1-6.3,5.1-9
		c9.2-9,14.4-14.9,15.8-17.5c3.3-5.3,5.4-10.1,6.2-14.5c1-6.3,0.1-12.1-2.8-17.3c-3.2-5-6.9-7.6-11.2-7.9
		C968,38.6,968,38.5,967.9,38.5z"/>
</g>
<g>
	<path class="st0" d="M1115.8,314.2c-1.4-0.5-3.1-0.9-5.2-1.1c-0.2-0.1-2.9-0.2-8.3-0.3c-1.3-0.1-2.5-0.3-3.6-0.5
		c-3-0.7-5.5-1.9-7.3-3.4c-0.2-0.1-0.3-0.3-0.5-0.4c-1.7-1.5-2-3.1-1.1-5c0.5-1.1,1.1-2,1.9-2.6c0.9-0.8,2.4-1.6,4.5-2.4
		c0.2-0.1,0.2-0.3,0.1-0.6c-0.2-0.3-0.7-0.8-1.5-1.4c-0.2-0.1-0.3-0.3-0.5-0.4c-7.3-6.1-11.8-9.9-13.5-11.4
		c-0.4-0.4-0.7-0.6-0.8-0.7c-0.1-0.1-0.2-0.2-0.3-0.3c-1-0.9-3.3-3.1-7-6.6c-0.5-0.4-1.1-0.7-1.8-1l-0.1,0
		c-4.1-1.1-9.2,0.1-15.3,3.6l0,0l-9.1-8.9c-4.3-4.3-8.7-8.8-13.1-13.3c-1-1.1-5.1-5-12.2-11.7l-3.3-3.3
		c-10.3-10.7-18.2-18.7-23.5-24c-1.1-1.1-4.4-4.3-9.9-9.5c-1.8-1.7-3.6-3.3-5.3-4.8c-4.8-4.2-9.2-7.7-13.2-10.5
		c-4.4-2.9-7.7-4.2-10-3.9l0,0c-2.9,1.9-6.7,3.6-11.5,5.2l0,0l-1.8-0.1l-0.1,0c-13.9-0.5-22.5,11.1-25.8,34.8
		c-1.8,9.6-2.3,19-1.7,28.2c0.4,8.8,2.3,18,5.5,27.5l-0.2,21.1l1.9,3.6c3.5,7.4,12,18.5,25.8,33.4c1.6,1.7,3.4,3.4,5.5,5.2
		c6.8,5.9,16.1,12.6,28.1,20.3c12.9,8.4,23.9,14,33.1,16.7c10,3.1,21.7,4.8,35.1,4.9c24.9-0.1,42.6-5,52.9-14.5
		c6.5-7.1,8.2-16.8,5.2-29.1l0,0c0.4-1.2,1-2.4,1.5-3.5c0.8-1.5,1.8-2.9,3.1-4.4l6.8-7.1c1-1.2,1.7-2.5,2.3-3.8
		c1.3-3.4,1.5-6.3,0.5-8.6c-0.6-1.2-1.4-2.2-2.4-3.1C1118.8,315.6,1117.4,314.8,1115.8,314.2z"/>
</g>
<g>
	<path class="st0" d="M1169.3,166c-2.3-1.9-5.4-3.1-9.4-3.4c-1.4,0.1-3.1,0.5-5.2,1.2c-1.6,0.6-3,1.3-4.1,2.1
		c-2.4,1.5-4.8,4-7.2,7.5c-1.2,1.6-2.4,3.5-3.6,5.5l-4,7.3c-0.7,1.2-1.4,2.4-2.2,3.5c1.5-0.2,3.2-0.2,5.1,0.1
		c1.2,0.2,2.5,0.4,4.1,0.7c3.9,0.8,6.4,1.4,7.5,1.5c2.8,0.4,4.8,0.6,5.9,0.6c3.9,0,7.3-0.9,10.5-2.9c4.2-2.8,6.6-6.6,7.1-11.6
		C1174.1,173,1172.6,169,1169.3,166L1169.3,166z M1133.6,189.6c-0.2,0-0.3,0-0.2,0.1l-0.4,0.9L1133.6,189.6L1133.6,189.6z
		 M1195.1,290.6c-0.6-0.5-1.1-0.9-1.5-1.2c-0.4-0.3-0.9-0.7-1.5-1.1c-0.6-0.4-1.2-0.8-1.9-1.3c-0.7-0.4-1.4-0.9-2.2-1.3
		c-0.8-0.4-1.4-0.7-1.8-0.9c-0.4-0.2-0.8-0.3-1.3-0.5c-0.5-0.2-1.2-0.4-2.3-0.8c-1.1-0.3-1.9-0.6-2.5-0.7c-0.6-0.1-1.2-0.3-1.8-0.4
		c-0.6-0.1-1.2-0.2-1.7-0.3c-0.6-0.1-1.4-0.2-2.4-0.2c-1-0.1-1.8-0.1-2.3-0.1c-0.5,0-1,0-1.6,0.1c-0.5,0-1.1,0.1-1.7,0.2
		c-0.6,0.1-1.4,0.2-2.4,0.3c-1,0.2-1.8,0.3-2.3,0.4c-0.5,0.1-1,0.2-1.5,0.3c-0.5,0.1-1,0.2-1.4,0.4c-0.5,0.1-1.3,0.4-2.5,0.9
		c-1.2,0.4-2.1,0.8-2.7,1.1s-1,0.5-1.2,0.6l-4.2,2.9c0.4,0.1,0.6,0.1,0.9,0.2c0.2,0,0.4,0.1,0.7,0.2c0.2,0.1,0.5,0.1,0.7,0.2
		c0.2,0.1,0.4,0.1,0.7,0.2c0.2,0.1,0.4,0.2,0.6,0.2c0.2,0.1,0.4,0.2,0.6,0.2s0.4,0.2,0.6,0.3c0.2,0.1,0.4,0.2,0.6,0.3
		c0.2,0.1,0.4,0.2,0.7,0.3c0.3,0.1,0.5,0.3,0.8,0.4c0.3,0.1,0.5,0.3,0.7,0.4c0.2,0.1,0.4,0.2,0.6,0.4c0.2,0.1,0.5,0.3,0.8,0.5
		c0.3,0.2,0.6,0.4,0.9,0.6c0.3,0.2,0.6,0.4,0.9,0.7c0.3,0.2,0.6,0.5,0.9,0.7c0.2,0.1,0.3,0.3,0.4,0.4c0.1,0.1,0.2,0.2,0.3,0.2
		c0.2,0.2,0.5,0.4,0.7,0.7c0.3,0.3,0.5,0.5,0.8,0.8c0.3,0.3,0.5,0.6,0.8,0.9c0.2,0.3,0.4,0.5,0.6,0.7c0.1,0.2,0.3,0.4,0.6,0.7
		c0.3,0.3,0.5,0.6,0.7,0.9c0.2,0.3,0.4,0.5,0.6,0.8c0.2,0.3,0.5,0.6,0.8,1.1c0.4,0.5,0.7,0.9,1.1,1.4c0.4,0.5,0.6,0.8,0.8,1.1
		c0.2,0.2,0.5,0.6,0.9,1.1c0.4,0.5,0.7,0.9,0.9,1.2c0.2,0.3,0.5,0.7,0.8,1.1c0.3,0.4,0.6,0.8,0.9,1.1c0.3,0.4,0.7,0.8,1.1,1.2
		c0.4,0.5,0.7,0.8,1,1.1c0.3,0.3,0.6,0.6,1,1c0.3,0.2,0.5,0.5,0.8,0.8c0.2,0.1,0.3,0.3,0.5,0.4c0.5,0.4,0.9,0.7,1.2,0.9
		c0.3,0.2,0.7,0.4,1.2,0.7c0.5,0.3,1,0.5,1.5,0.7c0.5,0.2,0.9,0.4,1.3,0.4c0.3,0.1,0.8,0.2,1.4,0.3c0.6,0.1,1.1,0.2,1.4,0.2
		c0.3,0,0.7,0,1,0.1c0.3,0,0.8,0,1.2,0c0.5,0,1-0.1,1.6-0.1c0.6-0.1,1-0.1,1.3-0.2c0.3-0.1,0.5-0.1,0.8-0.2c0.2-0.1,0.6-0.2,1.2-0.4
		c0.6-0.2,1-0.4,1.4-0.5c0.3-0.1,0.6-0.3,0.9-0.4c0.3-0.1,0.6-0.3,1.1-0.6c0.4-0.3,0.9-0.6,1.4-1c0.5-0.4,0.9-0.7,1.1-0.9
		c0.2-0.2,0.5-0.5,0.8-1c0.3-0.4,0.6-0.9,0.9-1.4s0.5-0.9,0.6-1.2c0.1-0.3,0.3-0.8,0.5-1.4c0.2-0.6,0.3-1.1,0.4-1.6
		c0.1-0.4,0.1-0.8,0.1-1.2c0-0.4,0-0.7,0-1c0-0.3-0.1-0.8-0.1-1.4c-0.1-0.6-0.2-1.1-0.2-1.4c-0.1-0.3-0.2-0.6-0.3-0.9
		c-0.1-0.3-0.3-0.8-0.6-1.5c-0.3-0.7-0.6-1.3-0.9-1.9c-0.3-0.5-0.6-1-0.8-1.3c-0.2-0.3-0.5-0.7-0.9-1.1c-0.3-0.4-0.8-0.9-1.2-1.4
		c-0.5-0.5-0.8-0.9-1.1-1.1c-0.1-0.1-0.3-0.3-0.5-0.5C1195.6,291,1195.3,290.8,1195.1,290.6z M1198.8,222.4L1198.8,222.4
		c-4-3-9.6-3-17-0.2c-1.5,0.6-3.7,2-6.4,4.1c-1.9,1.4-7.1,5.8-15.5,13.3c-1.9,1.6-3.5,2.8-5,3.7c-4.8,3.1-9.6,5.1-14.3,6.2
		c-1.2,0.3-2.7,0.5-4.4,0.7c-9.7,0.6-15.6,1.2-17.8,1.7c-1.6,0.1-10.4,2.2-26.2,6.5c-2.4,0.6-5.8,1-10.1,1.2
		c-9.3,0.5-17.3-0.1-23.9-1.9l0,0c3.2-1.2,6.2-2.7,8.9-4.7c1.4-1.1,3-2.5,4.6-4.3l8-9.5c1-1,2.2-2,3.7-2.9c1.4-0.7,3.1-1.3,4.9-1.6
		c10-1,15.2-1.7,15.7-1.9c2.2-0.5,4.3-1.2,6.3-2.4c6-3.3,10-8.5,11.9-15.4c1.4-6.6,0.2-11.7-3.7-15.4l-0.1-0.1
		c-6.1-4.9-14.5-5.3-25.4-1c-2.8,1.2-6,3.2-9.6,6c-1.1,0.6-7.5,6.4-19.2,17.3c-2.6,2.2-4.9,4.1-7.1,5.5c-4.8,3.4-9.9,5.6-15.4,6.5
		c-4.5,0.7-8.3,0.1-11.3-1.7c-0.2-0.1-0.3-0.2-0.4-0.4c-0.4-0.4-0.8-0.8-1-1.2l0,0c0.4-1.5,0.9-2.8,1.6-3.8c0.7-1.1,2.4-2.4,5.1-3.8
		c0.3-0.3,2.7-1.3,7.4-2.9l0,0c2.8-0.2,4.4-0.4,4.9-0.5c0.9-0.1,1.8-0.4,2.8-0.7c1.7-0.5,3.3-1.4,4.9-2.8c2.2-1.8,3.4-4.2,3.6-7.2
		c0.1-3-0.9-5.4-2.9-7.2l0,0c0,0,0,0-0.1-0.1c-0.7-0.6-1.2-1-1.7-1.3c-6.4-4.1-9.9-6.4-10.5-6.9c0,0,0,0,0,0
		c-0.4-0.3-0.8-0.6-1.2-0.9l0,0c0-0.1,0-0.1,0.1-0.2c0.4-0.8,1.2-1.4,2.6-1.9l10.5-3c1.4-0.5,2.5-1.2,3.2-1.9
		c1.3-1.1,2.9-3.5,4.8-7.3c1.2-2.4,3-7.4,5.3-14.8c0.5-1.2,1.3-2.6,2.6-4.1c1-1.2,2.2-2.1,3.5-2.7c8.3-3.6,12.5-5.5,12.5-5.7
		c1.5-0.9,2.6-2,3.4-3.2c4.5-8,3.5-15.2-3-21.5l0,0c0,0-0.1-0.1-0.1-0.1c-4.3-3.7-10.5-4.9-18.6-3.6c-6.6,1.5-13.9,5.5-21.8,12.2
		c-6.1,5.1-12.1,11.7-18.2,19.7c-4.6,5.9-12.1,18.6-22.6,38.1c-1.4,2.2-3.3,4.2-5.7,5.9c-0.7,0.1-1.2-0.1-1.6-0.4
		c-0.7-0.6-0.9-1.9-0.7-3.9l1.3-6.3c2.4-8.2,4-14.2,4.8-18c0.8-4,1.2-7.5,1.2-10.5c-0.1-3.4-1.1-5.9-3-7.6c-0.9-0.8-2-1.4-3.2-1.8
		c-3-0.5-7.1,1.4-12.4,5.8c-1.6,1.4-3.5,3.5-5.7,6.1c-0.3,0.2-3.7,4.7-10,13.5c-1.9,2.4-3.7,4.5-5.5,6.4c-2.7,3.1-8,7.4-15.9,13
		l72.1,69.2c0.5-1.1,1.1-2.7,1.8-4.8l0,0c1.4,0.7,2.9,1.3,4.6,1.7l0,0c0.7,1.8,5.4,8.4,14.1,19.7c3.2,4.1,6.8,8,11,11.7
		c10.2,8.8,19.5,13.4,28.1,13.7c1.3,0,2.7-0.2,4-0.8c3.3-2.8,6.1-4.6,8.2-5.3c0.9-0.5,6.1-1.9,15.6-4.1c2.7-0.9,5.4-2,8.3-3.3
		c5.9-2.8,10.9-5.9,14.8-9.4c2.9-2.4,5.7-5.1,8.4-8l9.6-11.1c1.9-1.9,3.7-3.4,5.4-4.3c2.6-1.5,5.3-2.6,8.1-3.3
		c10.8-1.2,17.3-2.4,19.5-3.4c4.9-1.8,8.8-3.9,11.6-6.4c3.9-3.7,6.3-8,7.1-13c0.5-5-0.6-8.6-3.4-11
		C1198.9,222.5,1198.8,222.4,1198.8,222.4z"/>
</g>
</svg>
