<svg xmlns="http://www.w3.org/2000/svg" viewBox="0 0 184.08 188.39"><defs><style>.cls-1{fill:#f6f9e5;}.cls-2{fill:#fff;}.cls-3{fill:#dcdcdc;}.cls-4{fill:#5ec3da;}.cls-5{fill:#a34054;}.cls-6{fill:#4e5e6e;}.cls-7{fill:#ff839c;}.cls-8{fill:#fca194;}</style></defs><title>bowl</title><g id="Calque_2" data-name="Calque 2"><g id="Calque_1-2" data-name="Calque 1"><path class="cls-1" d="M37.11,156.17l3.48,15.55a30.65,30.65,0,0,0,5.54,5.9,38.33,38.33,0,0,0,12.3,5.76A90.51,90.51,0,0,0,76,186.07a98.75,98.75,0,0,0,19.44.32q10.65-1.12,17-3.85,15.69-7.23,15.93-18.23c-.06-.28-.2-.37-.4-.27q-11.6,3.74-15,4.59a61.58,61.58,0,0,1-8.86,2.06,82.65,82.65,0,0,1-21.37,1A69,69,0,0,1,73.29,170q-10.61-2.76-18.9-5.27-5.67-1.68-17.28-8.58"/><path class="cls-2" d="M144,93a14.29,14.29,0,0,0-2.95,1.43c-.13,0-1.52,1-4.19,3A14.3,14.3,0,0,1,135,98.56a10.83,10.83,0,0,1-4.89,1.11h-.38a2.38,2.38,0,0,1-2.44-2.07,4.57,4.57,0,0,1-.08-2,8.16,8.16,0,0,1,1.31-2.89c.06-.13,0-.23-.2-.31a7.36,7.36,0,0,0-1.25-.14l-.42,0c-5.89-.22-9.54-.36-11-.44l-.63,0h-.26q-1.24-.06-5.94-.57a3.3,3.3,0,0,0-1.26.23l-.06,0Q103.85,93,101.4,99h0l-7.85-.88q-5.67-.72-11.52-1.5-1.36-.19-10.43-1.06l-2.87-.33Q55,93.32,48.05,92.49q-1.45-.21-8.48-.86c-1.53-.13-3-.23-4.41-.31-3.92-.22-7.41-.25-10.48-.12q-4.87.4-6.38,1.91l0,0a32.33,32.33,0,0,1-3.62,6.93h0l-.89.65,0,0q-10.46,7.59.66,26.89a67.84,67.84,0,0,0,9.94,14.43A60.75,60.75,0,0,0,37.52,153.4l8,10.4,2.31,1.07q6.77,3.42,25.38,6.53c1.42.21,3,.36,4.72.46a149.41,149.41,0,0,0,21.49-.8q14.27-1.22,22.57-4.45a75.3,75.3,0,0,0,19.06-11q18.22-14.38,20.39-27.3.71-8.89-8.6-16.24h0a15.38,15.38,0,0,1-.58-2.29,14.21,14.21,0,0,1-.17-3.3l.61-6.1a10.26,10.26,0,0,0-.33-2.75,6.86,6.86,0,0,0-3.08-4.4,5.81,5.81,0,0,0-2.34-.62A8.34,8.34,0,0,0,144,93Z"/><path class="cls-3" d="M8.3,105l7.86,25.58L17.3,133A53.71,53.71,0,0,0,31.59,150.7a68.79,68.79,0,0,0,23.6,12.16q7.92,3.13,32,6.19A120.54,120.54,0,0,1,64.62,162,155.53,155.53,0,0,1,50,154.54a50.49,50.49,0,0,1-7.21-4.81,121.82,121.82,0,0,1-18.37-18.88q-6.75-8.37-16.17-25.93"/><path class="cls-4" d="M87.58,80.19q30.48,1.74,53.48,7.57,24.45,6.46,25.62,12.68-1.29,5.93-26.62,9.8-23.93,3.3-54.27,1.66T32.3,104.32Q7.85,97.86,6.67,91.65,8,85.73,33.28,81.84q23.94-3.3,54.28-1.66m.14-6.67q-38-1.91-63.17,3Q.45,81.6,0,91.35q-.19,9.8,23.11,17.3,24.6,7.68,62.6,9.93,37.53,1.9,62.91-3,24.16-5,24.73-14.75.3-9.8-22.91-17.31-24.51-7.69-62.51-10"/><path class="cls-2" d="M113.64,0a10,10,0,0,0-5.91,2,13.14,13.14,0,0,0-2.12,2.56,13.58,13.58,0,0,0-1.22,2.57,16.46,16.46,0,0,0-.67,6.42c.06,1.25.17,2.6.35,4l.84,5.08c.14.86.23,1.72.29,2.58a10.79,10.79,0,0,1,2.54-1.92c.63-.37,1.39-.78,2.27-1.23q3.31-1.59,4.28-2.13a24.75,24.75,0,0,0,3.12-2,11.92,11.92,0,0,0,4-5.42,9.36,9.36,0,0,0-1-8.38A8.8,8.8,0,0,0,113.66,0Zm-8.47,25.22c-.08.08-.12.12-.09.13l.15.56,0-.71Zm68.71,26-1.21,0-1.17,0c-.43,0-.9.06-1.4.11s-1,.13-1.59.23-1,.19-1.23.26l-.83.25q-.44.14-1.41.51c-.66.24-1.16.45-1.51.6s-.7.32-1,.49-.66.34-1,.52-.75.46-1.29.82-.94.64-1.19.84l-.74.64c-.25.22-.5.46-.76.72s-.62.62-1.06,1.09-.77.82-1,1.07l-.6.72c-.19.24-.37.49-.56.74s-.48.72-.89,1.39-.71,1.18-.9,1.57l-.38.75-.94,3,.47-.25.4-.19.4-.17.4-.15.41-.14.38-.11.4-.11.39-.1.45-.11.56-.12L156,66l.45-.06.62-.06.66,0,.68,0h.68l.36,0h.23l.62.05.7.09.71.13.53.11.56.14.68.17.62.17.83.22,1.06.27.82.21.84.21.92.23.82.19.9.2c.29.07.63.13,1,.2l.92.16.88.1.71,0,.42,0a7.36,7.36,0,0,0,1,0c.21,0,.49,0,.83-.09a8.21,8.21,0,0,0,1-.21,6.07,6.07,0,0,0,.79-.26c.2-.08.46-.22.8-.39s.6-.33.77-.44.35-.23.52-.36.38-.28.61-.47l.72-.67.55-.57.3-.38c.09-.11.24-.33.46-.65s.38-.57.49-.76.2-.37.28-.55.18-.4.29-.69.2-.64.29-1a6.32,6.32,0,0,0,.17-.87,6,6,0,0,0,0-.79,7.65,7.65,0,0,0-.08-1.05,8.27,8.27,0,0,0-.16-.85c-.06-.21-.16-.5-.3-.88a7,7,0,0,0-.41-.92,7.19,7.19,0,0,0-.39-.64,6.44,6.44,0,0,0-.38-.52c-.12-.14-.32-.35-.59-.62a8.18,8.18,0,0,0-.63-.58c-.16-.12-.31-.24-.47-.34s-.44-.27-.86-.5a10.9,10.9,0,0,0-1.16-.56,8.09,8.09,0,0,0-.89-.33c-.24-.08-.52-.15-.85-.23a10.77,10.77,0,0,0-1.14-.21c-.43-.07-.74-.11-.92-.12l-.45,0ZM149.63,16.38h-.08q-4.5.12-8.35,6.39a20.11,20.11,0,0,0-1.57,4.47q-.6,2.11-2.55,12.45a32.46,32.46,0,0,1-1,3.71,28.18,28.18,0,0,1-4.63,8.47,22.1,22.1,0,0,1-1.9,2,98.92,98.92,0,0,0-8.06,7.6q-1.17,1-10.37,13.2a35.17,35.17,0,0,1-4.51,4.45,48.28,48.28,0,0,1-12.43,8.2h0a22.4,22.4,0,0,0,2.56-5.68,22.77,22.77,0,0,0,.62-3.86l.31-7.7a9,9,0,0,1,2.57-5.48q6.75-6.49,7-7a13.86,13.86,0,0,0,2.17-3.56,15.18,15.18,0,0,0,0-12.11q-2.75-5.68-7.66-6.12h-.07q-7.28-.13-12.82,9.21a29.38,29.38,0,0,0-2.41,6.58q-.47,1-2.78,15.83a47.86,47.86,0,0,1-1.37,5.4,22.13,22.13,0,0,1-5.09,9.06,10.17,10.17,0,0,1-6.2,3.47h-.35a3.41,3.41,0,0,1-.94-.18h0A8.26,8.26,0,0,1,69,82.77,8,8,0,0,1,70,79a34.82,34.82,0,0,1,2.48-4.25h0c1.28-1.16,2-1.86,2.2-2.09a13.66,13.66,0,0,0,1.09-1.37A8.24,8.24,0,0,0,77.1,68a6.32,6.32,0,0,0-1-4.93,5.49,5.49,0,0,0-4.19-2.42h-.05a7.87,7.87,0,0,0-1.31,0c-4.7.44-7.29.65-7.74.62h0l-.92,0h0a.5.5,0,0,1,0-.13,2.65,2.65,0,0,1,.53-1.93l4-5.48a5.42,5.42,0,0,0,.86-2.16,15.8,15.8,0,0,0-.44-5.43,68.63,68.63,0,0,0-3.07-9.28,10,10,0,0,1-.3-3,6.77,6.77,0,0,1,.67-2.64c2.71-4.92,4-7.44,3.94-7.57a6.44,6.44,0,0,0,.46-2.88q-1.26-8.47-9.67-9.38h-.11q-5.28-.28-10.52,5.35-4,4.89-6,14.28a75.9,75.9,0,0,0-1.4,16.6q0,7,3.48,27.33a13.57,13.57,0,0,1-.52,5.09,1.29,1.29,0,0,1-1,.41c-.58,0-1.19-.58-1.81-1.63l-1.78-3.6q-2.94-7.45-4.53-10.61a29.76,29.76,0,0,0-3.43-5.57,6.22,6.22,0,0,0-4.37-2.56,5.57,5.57,0,0,0-2.26.38c-1.65.87-2.94,3.4-3.89,7.59a33,33,0,0,0-.44,5.17q-.11.35.22,10.42c0,1.88-.1,3.63-.27,5.24Q20,89.2,17.36,97.76l61.74,6.39a24.11,24.11,0,0,0-1-3h0a15,15,0,0,0,2.87-.92h0q1.58.91,14.42,4.26a52.47,52.47,0,0,0,9.86,1.55q12.49.65,19-4a7.17,7.17,0,0,0,1.68-1.92,15.71,15.71,0,0,1,2-5.72q.39-.92,6.06-8a44,44,0,0,0,2.77-4.79,37.43,37.43,0,0,0,3.63-10.26,63.78,63.78,0,0,0,1.08-7.1l.44-9.11a15.94,15.94,0,0,1,1-4.15,20.56,20.56,0,0,1,2.69-4.7q7.2-7.08,8.23-9.13a23.15,23.15,0,0,0,3.25-7.59,14,14,0,0,0-1.47-9.06q-2.48-3.91-5.84-4.11Z"/><path class="cls-1" d="M113.64,0a10,10,0,0,0-5.91,2,13.14,13.14,0,0,0-2.12,2.56,13.58,13.58,0,0,0-1.22,2.57,16.46,16.46,0,0,0-.67,6.42c.06,1.25.17,2.6.35,4l.84,5.08c.14.86.23,1.72.29,2.58q.18-.2.39-.39h0q.21-2.43.58-7.42.14-1.57.48-3.75a24.79,24.79,0,0,1,2.08-6.83,8.5,8.5,0,0,1,5.66-4.59,6.88,6.88,0,0,1,1.63-.1,8.41,8.41,0,0,1,3.87,1.26A8.63,8.63,0,0,0,113.66,0Z"/><path class="cls-1" d="M48.2,16.79q-4,4.89-6,14.28a75.9,75.9,0,0,0-1.4,16.6,120.56,120.56,0,0,0,1.46,14.6l-.1-4.91-.29-6.44a52.79,52.79,0,0,1,.57-7.81,57,57,0,0,1,6.7-20,15.86,15.86,0,0,1,10.18-8.61,10.79,10.79,0,0,1,2.12-.09A12.44,12.44,0,0,1,67,16.2q-2.4-4.12-8.14-4.75h-.11Q53.44,11.16,48.2,16.79Z"/><path class="cls-1" d="M70.57,60.68l-1.42.13h0c.29,0,.57.07.86.12,2.09.4,3.46,1,4.09,1.8a8.46,8.46,0,0,1,2.08,4.91A6.94,6.94,0,0,1,75.9,70a11.35,11.35,0,0,1-1,2.45,12.34,12.34,0,0,0,.87-1.12A8.24,8.24,0,0,0,77.1,68a6.32,6.32,0,0,0-1-4.93,5.49,5.49,0,0,0-4.19-2.42h-.05A7.87,7.87,0,0,0,70.57,60.68Z"/><path class="cls-1" d="M24.59,56.91c-1.65.87-2.94,3.4-3.89,7.59a28.85,28.85,0,0,0-.38,3.42,8.89,8.89,0,0,1,.52-1.61,15,15,0,0,1,4.29-5.59,6.4,6.4,0,0,1,4.7-1.52l.7.06a6.33,6.33,0,0,1,1.22.51c-.17-.23-.35-.46-.53-.68a6.22,6.22,0,0,0-4.37-2.56A5.57,5.57,0,0,0,24.59,56.91Z"/><path class="cls-1" d="M88.77,45.07a29.38,29.38,0,0,0-2.41,6.58q-.47,1-2.78,15.83c-.17.86-.35,1.67-.54,2.44a23.32,23.32,0,0,0,4.24-6.05q.84-1.35,4.08-12.1a22.56,22.56,0,0,1,1.17-2.72,15.46,15.46,0,0,1,4.54-5.48A7.53,7.53,0,0,1,100.64,42a5.61,5.61,0,0,1,.58,0,6.19,6.19,0,0,1,3.27,1.24,11.49,11.49,0,0,1,3.2,3.42,12.41,12.41,0,0,1,.84,2.09,16.69,16.69,0,0,1,.54,2.94c0,.1.08.18.22.23a4.36,4.36,0,0,0,.82,0h0a15.27,15.27,0,0,0-.79-9.9q-2.75-5.68-7.66-6.12h-.07Q94.32,35.73,88.77,45.07Z"/><path class="cls-1" d="M149.63,16.38h-.08q-4.5.12-8.35,6.39a20.11,20.11,0,0,0-1.57,4.47q-.6,2.11-2.55,12.45a32.46,32.46,0,0,1-1,3.71,28.18,28.18,0,0,1-4.63,8.47,22.1,22.1,0,0,1-1.9,2,98.92,98.92,0,0,0-8.06,7.6,78.88,78.88,0,0,0-5.22,6.43,60.1,60.1,0,0,0,7.55-4.44,36.34,36.34,0,0,0,8.87-8.58,48.66,48.66,0,0,0,5.37-9.13,42.39,42.39,0,0,0,1.58-4.3q3-11.07,3.48-12,2.05-5.22,3.87-6.68a5.27,5.27,0,0,1,2.83-.74,5,5,0,0,1,3.25,1.61,9.72,9.72,0,0,1,1.91,3,27,27,0,0,1,1.47,5.25,17.37,17.37,0,0,0,.64-2.33,14,14,0,0,0-1.47-9.06q-2.48-3.91-5.84-4.11Z"/><path class="cls-1" d="M173.88,51.19l-1.21,0-1.17,0c-.43,0-.9.06-1.4.11s-1,.13-1.59.23-1,.19-1.23.26l-.83.25q-.44.14-1.41.51c-.66.24-1.16.45-1.51.6s-.7.32-1,.49-.66.34-1,.52-.75.46-1.29.82-.94.64-1.19.84l-.74.64c-.25.22-.5.46-.76.72s-.62.62-1.06,1.09-.77.82-1,1.07l-.6.72c-.19.24-.37.49-.56.74s-.48.72-.89,1.39-.71,1.18-.9,1.57l-.38.75-.94,3,.47-.25.27-.13h0a39,39,0,0,1,5.76-6.89,21.22,21.22,0,0,1,10-5.4,19.08,19.08,0,0,1,5.25-.36A14.12,14.12,0,0,1,178.55,56a13.33,13.33,0,0,1,3.61,2.66,13.76,13.76,0,0,1,1.46,2.07c.09.15.19.31.29.49q.12-.54.15-.81a6,6,0,0,0,0-.79,7.65,7.65,0,0,0-.08-1.05,8.27,8.27,0,0,0-.16-.85c-.06-.21-.16-.5-.3-.88a7,7,0,0,0-.41-.92,7.19,7.19,0,0,0-.39-.64,6.44,6.44,0,0,0-.38-.52c-.12-.14-.32-.35-.59-.62a8.18,8.18,0,0,0-.63-.58c-.16-.12-.31-.24-.47-.34s-.44-.27-.86-.5a10.9,10.9,0,0,0-1.16-.56,8.09,8.09,0,0,0-.89-.33c-.24-.08-.52-.15-.85-.23a10.77,10.77,0,0,0-1.14-.21c-.43-.07-.74-.11-.92-.12l-.45,0Z"/><path class="cls-5" d="M138.69,150.71Z"/><path class="cls-4" d="M85.47,174.38c-.43,0-.82,0-1.16,0a2.47,2.47,0,0,1-.29-.06h.48l.33,0,.64,0ZM38.83,161.21a81.2,81.2,0,0,0,10.92,5.85,108.32,108.32,0,0,0,25.52,6.48h0l.82.17c1.24.23,2.16.38,2.75.43.36.05,1.12.11,2.3.18h.13q.52,0,1.2,0l1,0h0l.43,0h.38l.19,0c1,0,1.9,0,2.84,0H88a111.27,111.27,0,0,0,30.23-4.21,83.34,83.34,0,0,0,8.42-3.34h0l-.12.22h0l-.27.44a23.05,23.05,0,0,1-7,7.57,35.45,35.45,0,0,1-5,2.91h0a38.87,38.87,0,0,1-10.49,3.19,53,53,0,0,1-8,.68q-5.77.13-11.25,0h-.06l-.41,0H84l-.91,0h-.12l-1.46-.1L80,181.62h-.07l-1,0q-5.48-.6-11.21-1.44a52.73,52.73,0,0,1-7.83-1.66,36.87,36.87,0,0,1-14.62-8,23,23,0,0,1-6-8.37c-.14-.3-.27-.61-.4-.93Zm127.48-58.08a111.52,111.52,0,0,1-12.18,29.6,87.34,87.34,0,0,1-14.62,18,70.36,70.36,0,0,1-23.68,13.18q-11.68,3.47-29.07,4h0l-1-.05-3.9-.25-1.49-.13h0l-.12,0-1.64-.15h0Q63.1,165.18,52.69,161a70.26,70.26,0,0,1-22.37-15.31,88,88,0,0,1-12.9-19.29A111.57,111.57,0,0,1,8,95.81,3.39,3.39,0,0,0,5,93.6H4.86c-2.23.28-3.35,1.51-3.34,3.69a122.72,122.72,0,0,0,5.64,22.06,94.57,94.57,0,0,0,18.26,30.94q2.1,2.16,4.36,4.14h0l.48,1.76.42,1.41c.83,2.65,1.39,4.32,1.67,5,.55,1.35,1.15,2.64,1.78,3.87h0c.27.52.54,1,.83,1.53h0l.81,1.38.19.31h0l0,0h0a27.54,27.54,0,0,0,4.94,5.63,43,43,0,0,0,16.46,9.19q3.42,1.36,14.67,2.77h0l1.32.14,2,.18,3.26.35.86.08c1.1.1,2.1.18,3,.23l.84.08.27,0h1.32l1,0h0l-.1,0h0q15.39.21,19.64-.91a43,43,0,0,0,17.47-7.07,28.09,28.09,0,0,0,6.81-6.49h0c.36-.43.64-.78.83-1.06.67-.87,1.75-2.48,3.26-4.83q1.14-1.75,4.1-7.56h0a73.83,73.83,0,0,0,6.06-4.66,94.66,94.66,0,0,0,21-29.13,122.31,122.31,0,0,0,7.64-21.45c.21-2.16-.78-3.49-3-4h-.16A3.38,3.38,0,0,0,166.31,103.13Z"/><path class="cls-6" d="M99.19,128.82a5.77,5.77,0,0,0-4.91,2.06A9.6,9.6,0,0,0,92,136.81a10.5,10.5,0,0,0,1.65,6.35,6.47,6.47,0,0,0,4.66,3.05,5.82,5.82,0,0,0,4.91-2.05,9.63,9.63,0,0,0,2.31-5.94,10.49,10.49,0,0,0-1.64-6.35,6.47,6.47,0,0,0-4.66-3.05"/><path class="cls-2" d="M97.11,132.1a2,2,0,0,0-1.61.85,4.06,4.06,0,0,0-.8,2.19,3.89,3.89,0,0,0,.48,2.24,1.86,1.86,0,0,0,1.46,1,2,2,0,0,0,1.61-.85,4.06,4.06,0,0,0,.8-2.19,3.76,3.76,0,0,0-.48-2.25,1.81,1.81,0,0,0-1.46-1"/><path class="cls-6" d="M64.21,126.75a5.83,5.83,0,0,0-4.91,2.06A9.63,9.63,0,0,0,57,134.75a10.43,10.43,0,0,0,1.65,6.35,6.47,6.47,0,0,0,4.66,3.05,5.8,5.8,0,0,0,4.91-2.06,9.57,9.57,0,0,0,2.31-5.93,10.49,10.49,0,0,0-1.64-6.35,6.47,6.47,0,0,0-4.66-3"/><path class="cls-2" d="M62.13,130a2,2,0,0,0-1.61.85,4,4,0,0,0-.8,2.19,3.81,3.81,0,0,0,.48,2.24,1.82,1.82,0,0,0,1.46,1,2,2,0,0,0,1.61-.85,4,4,0,0,0,.8-2.19,3.81,3.81,0,0,0-.48-2.24,1.81,1.81,0,0,0-1.46-1"/><path class="cls-6" d="M74.85,145.51a7,7,0,0,0-1,.07,1.46,1.46,0,0,0-.89.6,3.11,3.11,0,0,0-.53,1.56,5.56,5.56,0,0,0,0,1.07c0,.2,0,.35.06.46a2.51,2.51,0,0,0,0,.27h0a7.2,7.2,0,0,0,1.94,3.38,7.28,7.28,0,0,0,4.67,2h.48a7.24,7.24,0,0,0,5.08-2.18,7.43,7.43,0,0,0,1.74-2.94h0a2.8,2.8,0,0,0-.27-2.61,1.85,1.85,0,0,0-.84-.59,3.08,3.08,0,0,0-.45-.12l-1.28-.23h0c-.68-.09-1.09-.14-1.23-.14h-.05l-4.54-.43-3-.21Z"/><path class="cls-7" d="M79.2,148.63a5.54,5.54,0,0,0-2.87.57,2.07,2.07,0,0,0-1.23,1.69,2.19,2.19,0,0,0,1.13,1.82,5.92,5.92,0,0,0,5.69.32,2.1,2.1,0,0,0,1.24-1.69A2.22,2.22,0,0,0,82,149.52a5.55,5.55,0,0,0-2.83-.89"/><path class="cls-8" d="M98.88,148.52a2.69,2.69,0,0,0-1.09,2.66,4.33,4.33,0,0,0,2.09,2.71,7.87,7.87,0,0,0,4.05,1.16,5.77,5.77,0,0,0,3.62-1.07,2.7,2.7,0,0,0,1.09-2.66,4.36,4.36,0,0,0-2.09-2.71,8,8,0,0,0-4-1.16,5.8,5.8,0,0,0-3.63,1.07"/><path class="cls-8" d="M61.65,146a2.66,2.66,0,0,1,.31,2.81,4.23,4.23,0,0,1-2.7,2,7.82,7.82,0,0,1-4.13,0,5.63,5.63,0,0,1-3.14-2,2.66,2.66,0,0,1-.32-2.81,4.28,4.28,0,0,1,2.7-2,7.82,7.82,0,0,1,4.13,0,5.63,5.63,0,0,1,3.14,2"/><path class="cls-1" d="M68.61,172.64l6.29,3.27,1.1,0h3.69l.87,0q1.27,0,2.4-.15a13.5,13.5,0,0,0,4.54-1.15l-4.84-.46L81.33,174l-.74-.06-1.87-.13-1.06-.11c-.69-.09-1.18-.14-1.48-.17l-1.41-.12L73,173.2l-2.52-.31-1.88-.26"/></g></g></svg>