<svg xmlns="http://www.w3.org/2000/svg" viewBox="0 0 203.71 304.97"><defs><style>.cls-1{fill:#e18b6a;}.cls-2{fill:#899daa;}.cls-3{fill:#c4ced5;}.cls-4{fill:#9baab5;}.cls-5{fill:#5f7888;}.cls-6{fill:#fcfeff;}.cls-7{fill:#ffccb8;}.cls-8{fill:#ca7351;}.cls-9{fill:#cad6de;}.cls-10{fill:#2f3537;}.cls-11{fill:#fff;}.cls-12{fill:#685b5b;}.cls-13{fill:#474043;}</style></defs><title>bucket</title><g id="Calque_2" data-name="Calque 2"><g id="Calque_1-2" data-name="Calque 1"><path class="cls-1" d="M25.06,42.92a9.56,9.56,0,0,0-6.28,2.52A10.84,10.84,0,0,0,16,52.16a12.8,12.8,0,0,0,.48,4.06A11.15,11.15,0,0,0,18,59.29a9.85,9.85,0,0,0,2.74,2.44,7.06,7.06,0,0,0,3.43.91,7.28,7.28,0,0,0,4.86-2.84,9.38,9.38,0,0,0,1.43-2.42A14.85,14.85,0,0,0,31.28,54L27.51,43.13a13.6,13.6,0,0,0-2.44-.21"/><path class="cls-1" d="M154.94,41.15l-1.72,18.73a15.11,15.11,0,0,0,3.14-1.55,14.21,14.21,0,0,0,3.07-2.58,15.21,15.21,0,0,0,2.2-3.17,10.26,10.26,0,0,0,.76-2.78,5.8,5.8,0,0,0-.33-2.45,10.56,10.56,0,0,0-1.86-2.89A10.13,10.13,0,0,0,155,41.15"/><path class="cls-2" d="M150.61,37.71q-8-9.9-24.8-11.83-7.4-.63-37.32-.26Q58.42,26.54,47,28.1a45.23,45.23,0,0,0-14.19,4.54q-4.17,2.19-8.27,7.76l8.35,16.26a119.52,119.52,0,0,0,13.3.78L73,57.58l31.72-1,39.63-.29a40.14,40.14,0,0,0,5.58-.47c3-.52,4.79-1.08,5.46-1.7.66-.41,1-1.47,1.1-3.18q.56-6.34-5.87-13.22"/><path class="cls-3" d="M33.16,58.88l-.29,15.29c0-.69,0-1.12.05-1.32L33,70.58l.06-1.72c0-.71,0-1.37,0-2,0-.25,0-1.14,0-2.65,0-.33,0-.75,0-1.28V60.54c0-.43,0-1,0-1.66h0"/><path class="cls-3" d="M33.34,54.27a.44.44,0,0,0-.48.33q-.45,2.19-1,5.87c-.08.54-.16,1.08-.23,1.61h0a1.91,1.91,0,0,0-.18,1.65h0c-.21,2.06-.33,4.08-.34,6a59.83,59.83,0,0,0,.56,7.34h0a78.15,78.15,0,0,1-3.5,17A97.06,97.06,0,0,1,23.28,106L10.57,130.66Q5,144.25,4.62,147.8q-3,10.27-2.05,61.17.59,30.36,2.54,39.34,9.25,8.5,30.26,16.27a153.07,153.07,0,0,0,49.7,7.94,195.35,195.35,0,0,0,48.29-6.5q18.12-4.71,38.26-18.47,3.21-6.54,3.07-21.55-.45-41.52-4.64-81.29Q166.2,120,153.58,107.25l-1.08-.36h0A60.39,60.39,0,0,1,145.58,89q-2.27-8.08-.5-30.81c-.18-.32-.77-.49-1.75-.53-2.51-.28-5.1-.47-7.8-.57-.61,0-1.46,0-2.54,0q-3.75,0-11.27.32l-.24,0q-4.23.18-8.21.57L92.5,60.23q-1.87.23-17.89,1.15-5.19.24-13.1.34h0l3.14-2.62q-13.71-.49-17.91-1.33a56.28,56.28,0,0,1-6.38-1.39q-2.47-.63-6-1.91a4.19,4.19,0,0,0-.94-.2Z"/><path class="cls-1" d="M192.15,122.46q-4.69.38-24.35,1.05l-8.14.58q-7.26.72-15.71,1.3l-16.11,1q-11.7,1-28.07,3.93Q90.4,132.46,88.88,135q-4,5.88-1.15,10.46,1.63,3.36,6.57,5.56a13.51,13.51,0,0,0,3.45.43c7.37.1,10.9.13,10.56.08q1.91.06,11.73-.91l16-2.1,12.66-1.35,8.44-.67,14.08-.75c1-.05,2-.13,3-.23,3.51-.37,7.08-.78,10.72-1.25.77-.08,3.19-.5,7.25-1.24q7.49-2,7.22-5.89l-.14-1.64-7.11-13"/><path class="cls-2" d="M175,254.93l-5.77-4.77q-10.86,9.45-32.57,15.72-22.7,6-54.07,6.15a86.47,86.47,0,0,1-13.48-1.23,137.17,137.17,0,0,1-18.1-4L18.45,256.09a57.79,57.79,0,0,1-11.58-5.57c-.37-.16-.61-.09-.71.22Q-.55,271,28.5,287.68a65.54,65.54,0,0,0,12.61,5.66,103.67,103.67,0,0,0,18.43,4.91,82.58,82.58,0,0,0,11.07,1.49q8.55.75,28.14,1.26,25.68.4,52-15.92,17-10.18,24.2-30.14"/><path class="cls-4" d="M145.18,57.94q-1.44,8.64-2.48,18.31-.7,6.27-1,13-.54,13.45,1.58,20.54a37.3,37.3,0,0,0,1.44,4.21,93.69,93.69,0,0,1,3.93,9.15,1.06,1.06,0,0,0,.36.46c.17.23.79.28,1.83.16l6.56-1.09c.75-.16,1.15-.53,1.19-1.1a2,2,0,0,0-.21-.91q-7.24-16.17-7.29-16.74a77.07,77.07,0,0,1-3.22-10.6,57.36,57.36,0,0,1-1-12.71,61,61,0,0,1,1.28-12l-3-10.75"/><path class="cls-4" d="M155.85,147.69q1.17,8.1,2,19.82.38,4.34.68,19.54l-.07,15.53.07,18.63q0,2.68-.09,5.34,0,2.35-1.05,17.93a66.62,66.62,0,0,1-.94,7.78c0,1,.34,1.42,1.09,1.42q12.36-3,15.89-8.25,3.14-7.59,2.85-33.66l-.12-5.79q-.45-13-.48-14.94t-.16-15.52c0-2-.08-3.89-.16-5.73q-.53-9.89-1.82-21.64l-17.66-.46"/><path class="cls-5" d="M172.5,249.37l-15.13,7.49a39.68,39.68,0,0,1-5.25,13.75,57.21,57.21,0,0,1-10.28,11.49,83.7,83.7,0,0,1-23.91,13.46q2.79.21,12.34-2.05a82.5,82.5,0,0,0,10-3.2q7.05-2.38,15.13-8.9a49.81,49.81,0,0,0,11.88-14.06q3.75-6.28,5.2-18"/><path class="cls-6" d="M40.2,60.06,30,60.89l.53,13.69q.11,4.78-.07,8.63a54.3,54.3,0,0,1-1.95,12.45,57,57,0,0,1-3.87,10.54q-.41,1.42-10,18c-.91,1.68-1.91,3.75-3,6.19a64,64,0,0,0-4.35,12.84q-3.74,20.82-4.15,31.16-.72,11.83-.3,52.85.33,10.17,2,13.15a21.13,21.13,0,0,0,3.34,5.27l4,4.35q.87.63,1-.09L12,225.75c-.16-4.81-.21-8.39-.18-10.74l1.33-45.49q.47-12.63.85-13.72a42.26,42.26,0,0,1,4.35-13.61c.66-1.28,1.41-2.57,2.23-3.85q10.58-15.42,13.17-20,6-10.18,6.08-12.17,1-2.43,1-10.19Q41,92.4,40.2,60.08"/><path class="cls-6" d="M5.41,248.94Q5.06,259.25,12,268.88a52.2,52.2,0,0,0,7.88,8.43,77,77,0,0,0,11.6,8.24l.61.35a32.09,32.09,0,0,1-3.87-3,40.81,40.81,0,0,1-3-3,34.4,34.4,0,0,1-4.71-6.66,59.63,59.63,0,0,1-6.2-19.21L5.43,249m26.71,37a45.86,45.86,0,0,0,6.79,3.5A75.49,75.49,0,0,1,32.2,286M39,289.43c3.84,1.57,3.86,1.57,0,0m2.91,1.18q8.61,3,0,0"/><path class="cls-7" d="M193.17,124.18l-27.09.88-33.36,1.62q-8.76.27-12.21.17l-7.19.22a38.78,38.78,0,0,0-10,1.59q-6.51,2.06-7.52,4.64a2.89,2.89,0,0,0,.12,1.13,43.35,43.35,0,0,1,2.62,6.9l2.07,10c.19.34.52.05,1-.84a21,21,0,0,0,1.64-3.52,55.3,55.3,0,0,0,1.94-8.28,12.57,12.57,0,0,1,.76-2.29c.22-.92,1.41-1.65,3.55-2.21a28.69,28.69,0,0,1,4.58-.87l20-1.82q9.21-.57,14.68-.78,7.19,0,20.73-.63l10.52-.6,11.61-.86c1.52-.1,3.08-.17,4.67-.23h.14l-3.23-4.15"/><path class="cls-7" d="M186.93,128.46h0"/><path class="cls-7" d="M187.91,129.26l-.42.06-.4.08.82-.14"/><path class="cls-8" d="M200.25,127.86l-11.48-5.43q3.61,5.22,1.36,9.53-1.65,3.78-8.58,6.17a38.46,38.46,0,0,1-5.3,1.1q-12.7,1.7-15.5,1.83l-11.53.72-4.94.46q-3.76.51-8.68,1l-9,.84s-4.11.29-12.32.72l-8.88.68c-1.65.1-3.17.18-4.55.23q-1.8.38-3,3.92.27,1.58,8.16,1.23,3.18-.26,5.46-.58,6.38-.9,11.89-1.89c2.12-.31,3.81-.54,5.09-.66l27.41-2.12q6.38-.5,16.22-1l4.63-.37a91.31,91.31,0,0,0,10.47-1.55q13.17-2.22,13-14.85"/><path class="cls-7" d="M23.87,42.36a7.14,7.14,0,0,0-3,.67,6.85,6.85,0,0,0-2.21,1.54,9.73,9.73,0,0,0-2,2.66,6.2,6.2,0,0,0-.85,2.57A10.74,10.74,0,0,0,16,52.87a10.44,10.44,0,0,0,1.14,2.91,9.86,9.86,0,0,0,2.36,2.7,5.48,5.48,0,0,0,2.36,1.28c.07,0,.08,0,0-.16a8.93,8.93,0,0,1-1.2-2.41A8.19,8.19,0,0,1,20.39,55,6.65,6.65,0,0,1,21,52a.44.44,0,0,1,.31-.22,1.74,1.74,0,0,1,.74,0,.14.14,0,0,0,.15-.09.17.17,0,0,0-.05-.14,4.26,4.26,0,0,1-.49-.6,1.11,1.11,0,0,1-.18-.33.28.28,0,0,1,0-.2,2.8,2.8,0,0,1,.24-.41c.93-1.24,1.86-1.81,2.78-1.73A4.62,4.62,0,0,1,28,50.46l-3.4-8.08c-.05,0-.31,0-.76,0"/><path class="cls-7" d="M20.68,48.08l-.87,3.78c.8.13,1.65.24,2.56.35.1,0,.16,0,.16-.05a1.66,1.66,0,0,0-.15-.67c-.06-.18-.19-.48-.38-.9,0-.15-.48-1-1.31-2.5"/><path class="cls-9" d="M149.71,35.45a29.34,29.34,0,0,0-8.66-4.83,49.87,49.87,0,0,0-11.62-2q-8-.72-15.88-.88c-3.07-.05-5.3-.06-6.69-.05q-11,.18-15,.36c-.8,0-2.65,0-5.56,0l-19.18-.54q-5.55-.31-11.74-.4a64.91,64.91,0,0,0-8.9.25q-7.26.84-11.05,2.84a35.28,35.28,0,0,0-10.35,8.38q-.78,1.11-.36,1.71,4.11,4.56,7.19,8.66c.16.06.23,0,.21-.11a15.37,15.37,0,0,1,.27-3.92,9.88,9.88,0,0,1,.88-2.37,10.68,10.68,0,0,1,4.36-4.23,24,24,0,0,1,7.92-2.49c1.68-.39,5.39-.6,11.11-.62.74,0,1.43,0,2.06,0L70,35.67q15.16,0,18.69.1h6.59l5.85-.15,19.46-.15,6.86-.15a77.81,77.81,0,0,1,9.16.45,28.55,28.55,0,0,1,11,3.75,27.22,27.22,0,0,1,8,8.69l-3-10.4c-.75-.66-1.72-1.45-2.91-2.35"/><path class="cls-5" d="M152.44,34.8l-13-3.7a19.14,19.14,0,0,1,5.46,5.31,4.71,4.71,0,0,1,.79,4.18Q143,47.93,134,50.13a96,96,0,0,1-16.89,2.39L78.75,54.37c-.8,0-1.61.1-2.42.18-.13,0-.19,0-.18.08a49.24,49.24,0,0,0,11.59,3.65q3.51.87,12.89,1.2,5.85,0,7-.11l21.26-1.58a127.35,127.35,0,0,0,16.22-2.26,18.11,18.11,0,0,0,6-2.61,9.46,9.46,0,0,0,3.41-4.69q2.3-6.09-2-13.41"/><path class="cls-10" d="M93,23.64l.82,0h-.51l-.27,0h0Zm-7.14,0h0Zm1.82-16a24.34,24.34,0,0,1,5.72.74,28.79,28.79,0,0,1,7.2,3.11A36.47,36.47,0,0,1,108,18.11a37,37,0,0,1,2.62,3.41c.46.64,1,1.43,1.49,2.36h-1.22c-.71,0-2.51,0-5.39,0l-6.41-.17-1.57,0H93.83l-.41,0h-.54a3.08,3.08,0,0,0-.61-.07l-2.4.06h-2l-.75,0h0l-2.61-.06a3.2,3.2,0,0,0-.63.07h-.26l-.71,0h0l-3.67,0-1.57,0-6.41.2L65.83,24h-1A34.28,34.28,0,0,1,74,12.74a27.3,27.3,0,0,1,2.26-1.59h0a31.06,31.06,0,0,1,9.14-3.32h0c.55-.06,1.11-.11,1.67-.13Zm38.7,22.43h-.11l-.33,0h-.24l.68,0Zm-.43,0q1.25,0,2,.06c2.18.13,3.37.19,3.56.19h0l1.61,0h0l.25,0a29.93,29.93,0,0,1,7.33,2.11,23.68,23.68,0,0,1,6.62,4.26,20.17,20.17,0,0,1,4.86,6.45c1.38,3.13,1.26,5.82-.33,8.09a2.56,2.56,0,0,1-.4.41v0h0l-.11.13h0A4.88,4.88,0,0,1,149.62,53h0l-.23.1a7.35,7.35,0,0,1-2,.48h0l-.42,0-1.38.08h-1.14v.07h0L141,54l-11.81.62c-1.2.07-2.61.12-4.23.16l-5,.08-10.31,0-8.69.09H94.5c-.36,0-.68,0-1,.05-1.16,0-2,.07-2.53.07h-.94l-1.16,0H88.5l-.86,0L86,54.93h0q-3.5.09-8.61.1H76L67.25,55H57c-2.51,0-4.19,0-5,0-1.62,0-3-.08-4.23-.14l-12.3-.59h0c0-.4,0-.8,0-1.21a15.28,15.28,0,0,0-3.77-9.8,12.64,12.64,0,0,0-4.72-3.32,23.16,23.16,0,0,1,2.55-2.74,24,24,0,0,1,6.59-4.29,30.53,30.53,0,0,1,7.33-2.15h.08c1.44-.13,2.37-.2,2.79-.2s.6,0,.73,0h.09l2.8,0h3.62q2.5.06,5.91.24l4.68.16h0c.15,0,.69,0,1.61,0,1.17,0,3,0,5.38,0l7.51-.23,2.34,0,7.37,0h-.62q.57,0,1.47-.06h.44l.89,0h0l-2.14.06h0l7.38,0,2.34,0,7.51.2c2.41,0,4.2,0,5.37,0q1.4,0,1.62,0h0l2.15-.07h0l2.83,0h0l1,0,1-.07,2.61-.27h0l1.16,0c.63,0,1.47-.08,2.53-.16Zm33.86,14.48a7.8,7.8,0,0,1,1.84,5.91,8.45,8.45,0,0,1-4,6.16,12,12,0,0,1-3.05,1.34l.46-.22h0l0-.1h0a10.49,10.49,0,0,0,2.81-2.86A12.62,12.62,0,0,0,160,48a17.37,17.37,0,0,0-.27-3.39ZM23,46.07a5.16,5.16,0,0,1,3.86,2.06A7.48,7.48,0,0,1,28.24,51a3.77,3.77,0,0,0-1.2-.27h-.13a3.48,3.48,0,0,0-3,1.79,3.44,3.44,0,0,0,.19,3.63l1.61,2.21h0l0,.73h0a4.06,4.06,0,0,1-2,.62,5.19,5.19,0,0,1-3.87-2A8.19,8.19,0,0,1,18.11,53a7.58,7.58,0,0,1,1.22-4.76,4.66,4.66,0,0,1,3.57-2.16ZM88.06,61.71h.7l-.31,0-.33,0h-.06Zm61.3,3.71,1.56,2.14,37.21,51,1.46-.11-1.13.08-24.1,1.86q-3.54-5.26-8.87-12.87a32.3,32.3,0,0,1-3.65-8q-1.64-4.91-.93-31.92h0l-1.56-2.14Zm-5.15-4.69q-1.05,31.89.55,38.76A34.17,34.17,0,0,0,149,110q.79,1.68,7.24,11h0l-65,5a4.4,4.4,0,0,0-1.16.4h0a8.11,8.11,0,0,0-4.14,2.71l-49.62-68h0l11.14.54q4,.18,9.39.2h10.3c4.64,0,8.21.07,10.73.06H80c2.47,0,4.24,0,5.31-.08l3-.09h.39l3,.07q1.61,0,5.31.06H99.1c2.52,0,6.09,0,10.73-.11l10.3,0q5.37,0,9.38-.24l14.7-.77Zm45.43,64.57a5,5,0,0,1,3.84,2.15,10.58,10.58,0,0,1,1.82,8,9,9,0,0,1-2.25,4.43,8.06,8.06,0,0,1-1.66,1.19h0l-3.11.28-.69.06-1.12.1-11.65,1-6.92.61-66.24,5.81a22.87,22.87,0,0,0,1.1-7.5,22,22,0,0,0-2.28-9.22h0l63.88-4.93,4.27-.33h0l21-1.62ZM92.07,133q3.36,1.71,3.76,8.2a14.43,14.43,0,0,1-.62,5.34A5.22,5.22,0,0,1,93,149.66h-.09a6,6,0,0,1-2.74-3.26h0a3.46,3.46,0,0,0,5-4.66l-4.86-6.66h0A5.5,5.5,0,0,1,92,133ZM31.91,66.93l1,1.4,49.71,68.09h0a25.27,25.27,0,0,0-.42,4.88,21.07,21.07,0,0,0,3.36,11.09c2,2.81,4.42,4.22,7.27,4.21h0a8,8,0,0,0,1-.07L169,149.94h0c.07.57.13,1.16.19,1.76q1.78,16.56,1.31,71.91,0,13-.51,22h0a4.19,4.19,0,0,0-.75.16,99.91,99.91,0,0,1-16.63,10,108.39,108.39,0,0,1-19.3,6.55q-9.09,2.33-15.81,3.59-8.4,1.36-14.3,2h0l.36,0h0c-1.44.15-3.16.32-5.16.48l-1.82.12h0c1.37-.09,2.72-.21,4.07-.35l2.52-.27h-.14q-4.32.45-8.59.65l-2.27.09H91.11l-4.62-.06h0l-2-.1-2.75-.21-3.55-.33-4.53-.37-2.77-.2-1.61-.06h0q-4-.54-9-1.32-6.72-1.25-15.83-3.51a108.41,108.41,0,0,1-19.32-6.47,99,99,0,0,1-16.68-9.93l-.13,0h0L8.18,246,8,245.8l-.16-.18-.15-.17h0q-.5-8.83-.58-21.45-.74-55.35,1-71.91,1-10.54,3.68-16a67.1,67.1,0,0,1,4.33-7.8q11-15.76,12.05-18a34.16,34.16,0,0,0,4.16-10.56q1.38-6,.62-31.41h0ZM169.37,254.14a61.73,61.73,0,0,1-.94,6.33q-4,15.52-20.75,24.35Q123.2,297.15,92,298.13H91l-.85,0H88.1q-32.47-.46-57.84-13.1-16.8-8.74-20.87-24.26-.53-2.44-.93-6h0l.16-.11h0c2.3,1.57,4.93,3.19,7.86,4.84q10.8,6,26.45,9.82,13.28,3.24,18.12,3.91c3.13.45,6,.84,8.47,1.17h0c.84.14,1.52.26,2,.36l.52.07,2.25.3,3,.33,2.18.22,3.22.24,2.87.13.93,0h2.89l1.74-.07L93,276l1.49-.08,2-.1,1.34-.1c2.24-.22,3.36-.33,3.36-.35,1.42-.21,2.68-.42,3.79-.62h0q4.89-.6,11.76-1.63,4.84-.69,18.11-4,15.63-3.89,26.4-9.95,4.53-2.58,8.07-5ZM92.14,304.92h0c-1,0-2.08,0-3.12,0h.17l2.79,0h.16ZM87.78,0a28.49,28.49,0,0,0-8.64,1.36h0A28,28,0,0,0,72.48,4a30.84,30.84,0,0,0-9.88,7.85,30,30,0,0,0-6.5,11.6h0l-.29,0-.51,0-1.46,0-1.71,0h-.44l-.25,0h0c-.76,0-1.42-.06-2-.06h-.66a38.56,38.56,0,0,0-18.62,4.83Q22.13,33,18.7,40h0a11.35,11.35,0,0,0-4.11,3,14.66,14.66,0,0,0-3.39,9.78A15.29,15.29,0,0,0,15,62.64a11.48,11.48,0,0,0,8.59,4A11.68,11.68,0,0,0,26,66.4h0q.91,28.34-.73,33.37a33,33,0,0,1-3.62,8Q6.93,129,6,132.1,2.94,137.64,1.48,149-.57,164.64.22,223.77q.15,28.32,2.48,38.76,5.85,20.78,28.17,30.58,25.21,11.31,55,11.83h0l-.49-.07h0l1,0,1.64.06h.64l-2.82,0h.16c.9,0,1.8,0,2.7,0H89l2.8-.06.91-.06h0a3.4,3.4,0,0,1-.57.08h0q29.79-.66,55-12.07,22.26-9.92,28-30.72,2.27-10.44,2.29-38.77.51-57.71-1.5-74h0L190.6,148h0l6.16-.54h0a9,9,0,0,0,2.92-2.57h0a8.29,8.29,0,0,0,.48-.68,20.09,20.09,0,0,0,2.76-11c0-.55-.06-1.09-.11-1.62h0a3.54,3.54,0,0,0,.41-.58,3.47,3.47,0,0,0-.1-3.63L200.66,124a20.56,20.56,0,0,0-1.06-1.82,12.89,12.89,0,0,0-1.67-1.93l0,0-40.7-55.75h0a17.56,17.56,0,0,0,5.63-3,15.41,15.41,0,0,0,5.64-10.17,14.74,14.74,0,0,0-3.21-10.85,17.21,17.21,0,0,0-11-6.43h0a33.75,33.75,0,0,0-7.61-6.18,38.58,38.58,0,0,0-18.65-4.74h-.66c-.93,0-2.12.06-3.59.17h0l-.51,0-1.11.07-1.12.1-.26,0h0a30.09,30.09,0,0,0-6.61-11.76,30.83,30.83,0,0,0-9.92-7.8,29.45,29.45,0,0,0-11-3.38h0A33.15,33.15,0,0,0,87.79,0Z"/><path class="cls-11" d="M108.29,160.66a2.88,2.88,0,0,0-2.41,1.75,7.18,7.18,0,0,0-.61,1.4q-.08.16-.39,1.26h0c-.29.79-.63,1.69-1,2.71l-.67,1.84,0,.07h0q-2.25,4.4-5.11,5.62a6.69,6.69,0,0,1-3,.53h-.14c-.47,0-1,0-1.72-.1-3-.36-4.64-.54-4.87-.54h0c-.6,0-1.22-.07-1.86-.08s-1.43,0-2.18,0a26.9,26.9,0,0,0-6.18,1,16.66,16.66,0,0,0-3.31,1.34h0a11.68,11.68,0,0,1-3.24-3,11.26,11.26,0,0,1-1.87-3.42,9.63,9.63,0,0,1-.32-1.68,29.27,29.27,0,0,0-.2-3,4.69,4.69,0,0,0-.38-1.27,2.76,2.76,0,0,0-2.53-1.83h-.15a6,6,0,0,0-4.07,2.8,21.13,21.13,0,0,0-3.46,7.55c-.05.21-.09.41-.13.61h0A29.41,29.41,0,0,0,52,172.09a12.91,12.91,0,0,0-2.43-.27,11.18,11.18,0,0,0-4.59.92,8.29,8.29,0,0,0-4.36,4.76v0a11.45,11.45,0,0,0-.21,6.9,18.09,18.09,0,0,0,3.8,7.39A29.67,29.67,0,0,0,53.92,200h0a58.22,58.22,0,0,0-.84,6.31A43.77,43.77,0,0,0,53,212q.25,4.25.87,8.32c.07.51.16,1,.26,1.56h0l-.12.54a19.22,19.22,0,0,0-.35,3.45,20,20,0,0,0,.4,3.89,18.42,18.42,0,0,0,3.18,7,25.79,25.79,0,0,0,6.16,5.81h0l0-.12h0q7.25,5.4,18.23,6.87h0a49.91,49.91,0,0,0,6.33.46c1.54,0,3.08,0,4.63-.15a99.25,99.25,0,0,0,14.9-2.37q9.77-2.31,14.68-7.63a22.4,22.4,0,0,0,5.69-16.14,16.8,16.8,0,0,0-2.07-7h0c-.14-1.2-.38-2.85-.7-5-.27-1.93-.62-3.89-1-5.88s-.79-3.64-1.16-5.12h0a72.69,72.69,0,0,0,6-5.43q5.22-5.79,6.77-10.9t-.79-8.39q-2.65-3.63-8.46-3.93h0a27.75,27.75,0,0,0-8.74,1.53h0c-.18-.88-.41-1.77-.68-2.68q-3.43-9.37-8.69-10Z"/><path class="cls-7" d="M66.18,166c.3-.06.54.23.7.89a4.68,4.68,0,0,1,.09.8,19.57,19.57,0,0,0,.07,2.41,11.15,11.15,0,0,0,.51,2.17,9.52,9.52,0,0,0,1.77,3.17,16.31,16.31,0,0,0,3.57,3.22,24.29,24.29,0,0,0,5,2.19l-11.61,5.77c-.18-.18-.84-.95-2-2.3L61,180.74a10.26,10.26,0,0,1-.43-3.52,15.62,15.62,0,0,1,1.71-7.1c1.17-2.42,2.46-3.78,3.88-4.1"/><path class="cls-12" d="M45.62,175.77a5.32,5.32,0,0,0-2.77,4.71,14.34,14.34,0,0,0,2.37,8,29.55,29.55,0,0,0,7.16,7.4,28.12,28.12,0,0,0,8.43,4.09l8.07-12.39a35.83,35.83,0,0,0-5.49-6.76,26.39,26.39,0,0,0-6.16-4.31,17.11,17.11,0,0,0-6.39-1.77,10.39,10.39,0,0,0-5.18,1"/><path class="cls-7" d="M51.9,181.87h0l-.31.05-.3.06-.3.09a1.1,1.1,0,0,0-.28.15,1.44,1.44,0,0,0-.27.22,3,3,0,0,0-.21.26A1.91,1.91,0,0,0,50,183c0,.1-.07.19-.1.29s0,.2,0,.29,0,.19,0,.28,0,.18,0,.29,0,.22,0,.33,0,.21.05.32,0,.21.08.32a3.37,3.37,0,0,0,.1.34q.06.18.12.33l.12.3.14.3.17.35.17.3a2.32,2.32,0,0,0,.14.23,2.56,2.56,0,0,0,.16.25l.19.28.2.28a2.7,2.7,0,0,0,.18.25l.22.28.26.33.27.32.25.29.26.29.29.31.24.25.24.25.27.27.28.27.26.23.21.19.29.24.33.27.26.21.28.21.29.21.26.18.25.16.26.17.27.16.23.14.25.15.25.15.25.15.23.13.23.14.23.14.12.07.33,0,.22-.43c.07-.11.13-.23.2-.35l.17-.29c0-.08.1-.18.19-.33s.16-.26.23-.37l.21-.32.22-.32.23-.32.21-.29.18-.23.19-.26.22-.28.19-.25.22-.26.24-.3c.09-.11.16-.2.23-.27l.18-.22.2-.22.2-.22.18-.2c.06-.06.13-.14.22-.22a2.72,2.72,0,0,1,.24-.24l.23-.23a.22.22,0,0,0,0-.27,1.28,1.28,0,0,0-.16-.28l-.23-.28-.23-.27-.24-.27-.24-.26-.22-.24-.22-.24-.22-.23-.26-.25-.26-.24-.27-.24-.28-.24-.29-.23a2.37,2.37,0,0,0-.3-.23l-.29-.21-.3-.21c-.1-.08-.21-.15-.3-.21a3.28,3.28,0,0,0-.31-.2l-.34-.2L59,183.1l-.38-.19-.42-.19-.43-.18-.47-.18-.37-.13-.36-.11a2.93,2.93,0,0,0-.37-.1l-.36-.09-.35-.07-.38-.06-.37-.05-.4,0H53.4l-.47,0-.38,0-.36.05Z"/><path class="cls-11" d="M89.44,177.83q-20.53.36-28.6,13.65-4.12,6.71-3.44,15.94,1.41,14.88,1.33,15.88.54.67,3.81.75h.08a22.81,22.81,0,0,0,3.65-.37Q74.13,222,80.81,221q4-.54,10.44-.86c4.69-.17,8.74-.24,12.12-.2l2.07,0h0l.21,5.24a50.2,50.2,0,0,0,6.32.53,20.92,20.92,0,0,0,5.15-.49c3.91-.75,5.83-2,5.78-3.62,0-.24-.08-.9-.22-2q-1.26-8.1-2.14-15.17l-.38-2.33a28.52,28.52,0,0,0-2.18-6.85,26.81,26.81,0,0,0-5.28-7.41,39.61,39.61,0,0,0-6.55-4.82h0v0q-6.6-5.1-16.7-5.24Z"/><path class="cls-7" d="M108.4,164.22c-.3-.07-.53.23-.7.89a4.73,4.73,0,0,0-.08.8,19.69,19.69,0,0,1-.07,2.41,11.1,11.1,0,0,1-.5,2.17,9.9,9.9,0,0,1-1.77,3.17,16.08,16.08,0,0,1-3.57,3.23,25,25,0,0,1-4.95,2.2l11.61,5.75q.28-.28,2-2.31l3.23-3.6a10,10,0,0,0,.43-3.52,15.48,15.48,0,0,0-1.72-7.1c-1.17-2.41-2.47-3.78-3.88-4.09"/><path class="cls-13" d="M103.18,196.13a3,3,0,0,0-2.4,1.46,6.51,6.51,0,0,0,.06,6.9,2.73,2.73,0,0,0,4.8,0,6.13,6.13,0,0,0,1-3.47,6.05,6.05,0,0,0-1-3.44,3,3,0,0,0-2.41-1.42"/><path class="cls-13" d="M76.63,196.63a3,3,0,0,0-2.4,1.45,6.45,6.45,0,0,0,.06,6.9,3,3,0,0,0,2.41,1.41A3,3,0,0,0,79.09,205a6.13,6.13,0,0,0,1-3.47,6.21,6.21,0,0,0-1-3.44,3,3,0,0,0-2.41-1.42"/><path class="cls-7" d="M90.83,208.37q-14.43.24-24.38,6-9.2,5.61-8.75,13.1.79,7.13,10,12.07,9.5,4.8,22.23,5A53.33,53.33,0,0,0,113,240q10.17-5,11.37-12.38.9-7.74-8.72-13.53-10-5.7-24.82-5.71"/><path class="cls-12" d="M125.5,174.54q-10.64.19-17.4,9.31a28.66,28.66,0,0,0-13.59-6.11c-.1-.05-.19,0-.29.12l-.39.94a17.44,17.44,0,0,0-.81,2.82,8,8,0,0,0,2.58,8.21,6.39,6.39,0,0,0,1.75,1l6.11,1.77a12,12,0,0,1,2,.86,14.27,14.27,0,0,1,2.39,1.75q.8.66,4,4.15a10.13,10.13,0,0,0,1.47,1.22q1.74,1.32,7,2.87c.25,0,.41-.07.46-.23,0-.6-.08-1.2-.17-1.8l-.47-2c-.17-.62-.52-1.59-1-2.9,0-.13,0-.22,0-.27q11-4.49,12.94-14.11a7.47,7.47,0,0,0-1-6q-1-1.51-5.48-1.63"/><path class="cls-7" d="M126.45,181.54a1.23,1.23,0,0,0,0-.25.89.89,0,0,0-.11-.26,1.37,1.37,0,0,0-.15-.21l-.21-.18-.24-.16-.26-.14-.29-.13-.31-.11-.3-.1-.33-.07-.36-.07-.36-.05-.36,0h-.68l-.35,0-.33,0-.28,0-.42.06-.43.08-.4.08-.43.1-.38.11-.35.1-.28.09-.29.11a2.45,2.45,0,0,0-.3.11l-.23.09-.33.14-.36.16-.32.15-.34.17-.29.15-.28.15-.29.16-.27.16-.29.18-.27.17-.24.16-.22.15-.25.18-.29.22-.3.23-.31.25-.28.23-.28.25-.26.23a1.69,1.69,0,0,0-.19.19l-.16.15c-.06,0-.12.12-.19.19l-.19.21-.17.2-.18.2-.16.21c-.06.06-.11.13-.16.19L111,186l-.08.1.86.31.22.2.23.21.26.24.33.3.37.33.3.29.23.22c.07.07.13.14.2.2l.22.22.26.28.29.31.28.32.25.29.18.21.15.17.18.23c.07.09.15.18.22.28l.17.24.15.22c.06.08.11.17.17.26l.18.3c.06.1.12.19.16.27s.08.16.13.24.09.16.13.26a.15.15,0,0,0,.23.06l.44-.23.52-.29c.16-.08.29-.16.39-.22l.39-.23.37-.22c.1-.05.2-.12.33-.2A3.89,3.89,0,0,0,120,191l.29-.17.37-.25.37-.27.32-.23.33-.27a2.91,2.91,0,0,0,.33-.26c.11-.08.2-.16.28-.23l.25-.22.28-.27.28-.28.22-.24c.08-.07.17-.18.3-.32l.25-.31.21-.27.25-.34.21-.29c.06-.1.13-.21.21-.32l.22-.36.21-.36c.07-.13.13-.24.18-.35a4.11,4.11,0,0,0,.19-.37q.1-.21.21-.48l.16-.38c0-.07.07-.19.12-.34s.1-.29.13-.42.08-.25.11-.37.06-.24.08-.34,0-.19.05-.27l0-.25a2.45,2.45,0,0,0,0-.27,1.22,1.22,0,0,0,0-.27Z"/><path class="cls-11" d="M76.38,215a5.72,5.72,0,0,0-3.32,1.16A5.4,5.4,0,0,0,71,219a3.06,3.06,0,0,0,.45,2.79,3.3,3.3,0,0,0,2.66,1.16,5.63,5.63,0,0,0,3.31-1.15,5.42,5.42,0,0,0,2-2.79,3.08,3.08,0,0,0-.45-2.8A3.32,3.32,0,0,0,76.39,215"/><path class="cls-11" d="M105.81,214.12a5.7,5.7,0,0,1,3.29,1.23,5.41,5.41,0,0,1,2,2.83,3.07,3.07,0,0,1-.51,2.78,3.32,3.32,0,0,1-2.68,1.11,5.76,5.76,0,0,1-3.3-1.23,5.43,5.43,0,0,1-2-2.84,3.08,3.08,0,0,1,.51-2.78,3.29,3.29,0,0,1,2.69-1.1"/><path class="cls-13" d="M98.33,227.21a.92.92,0,0,0-.6.23,9.54,9.54,0,0,1-3,3.08,7.05,7.05,0,0,1-1.42.65,12.27,12.27,0,0,1-2.22.35,9.93,9.93,0,0,1-4.05-.85,7.22,7.22,0,0,1-1.84-1.18,9.06,9.06,0,0,1-.82-.82,10.61,10.61,0,0,1-.82-1.07.75.75,0,0,0-.19-.17.86.86,0,0,0-1,0,.87.87,0,0,0-.19,1.13,10.71,10.71,0,0,0,2.74,2.84A11.07,11.07,0,0,0,91,233.26a12.19,12.19,0,0,0,3.16-.52,9.13,9.13,0,0,0,2.58-1.48,11.75,11.75,0,0,0,2.41-2.85.87.87,0,0,0-.78-1.2"/></g></g></svg>