<svg id="图层_1" data-name="图层 1" xmlns="http://www.w3.org/2000/svg" viewBox="0 0 312.01 34.6"><defs><style>.cls-1{fill:#eb6b11;}</style></defs><title>cashcowdefi</title><path class="cls-1" d="M32.55,24.74c-.32,1.71-.61,3.41-.87,5.09s-.52,3.53-.76,5.53H29.44A47.3,47.3,0,0,1,18.91,34.3a23.45,23.45,0,0,1-8.17-3.51,15.51,15.51,0,0,1-4.68-4.87,12.27,12.27,0,0,1-1.62-6.35A12.39,12.39,0,0,1,6,13.28,15.36,15.36,0,0,1,10.79,8.4a24.25,24.25,0,0,1,8.47-3.56A46.26,46.26,0,0,1,29.44,3.76h1.18c.15,1.2.35,2.76.61,4.68s.58,3.9,1,6H30.8q-.74,0-3.09.15a27,27,0,0,0-4.16.55,13.49,13.49,0,0,0-4.33,1.61,3.26,3.26,0,0,0,0,5.69,13.08,13.08,0,0,0,4.32,1.65,25.74,25.74,0,0,0,4.13.53c1.66.11,2.69.16,3.09.16h1.75Z" transform="translate(-4.44 -1.09)"/><path class="cls-1" d="M61,23.89V35l-4.11.24q-3.57.2-6.44.2c-1.32,0-3.06-.11-5.22-.31A20.2,20.2,0,0,1,39.94,34a9.05,9.05,0,0,1-3.76-2.56,5.55,5.55,0,0,1-1.27-3.56,5.93,5.93,0,0,1,1.2-3.75,9,9,0,0,1,4.32-2.57,22.32,22.32,0,0,1,5.16-1c1.94-.17,3.19-.27,3.73-.29a1.12,1.12,0,0,0-.36-.86,3.81,3.81,0,0,0-1.68-.57,16.17,16.17,0,0,0-1.75-.19c-.65,0-1.44-.06-2.38-.06-1.23,0-2.29,0-3.19,0s-1.69.06-2.37.07l.92-7.91h4.55a37.39,37.39,0,0,1,8.67.8,13.83,13.83,0,0,1,5.46,2.68,9.4,9.4,0,0,1,2.93,4A16.41,16.41,0,0,1,61,23.89ZM50.12,26.41v-2.5a7.49,7.49,0,0,0-.86.1,5.06,5.06,0,0,0-1.44.5,3,3,0,0,0-.9.79,2,2,0,0,0-.47,1.34,2.1,2.1,0,0,0,.45,1.43,3,3,0,0,0,1,.76,3.35,3.35,0,0,0,.84.25,5.59,5.59,0,0,0,1.15.1h.2V26.41Z" transform="translate(-4.44 -1.09)"/><path class="cls-1" d="M87.24,27.4A5.27,5.27,0,0,1,85.92,31a10.23,10.23,0,0,1-3.32,2.44,17.07,17.07,0,0,1-5.21,1.41,51.85,51.85,0,0,1-5.93.44l-4,0H65L64,27.58H69.7c.38,0,.88,0,1.48-.09a3.35,3.35,0,0,0,1.62-.37.66.66,0,0,0,.22-.46c0-.18-.14-.36-.42-.52s-.8-.4-1.54-.73c-.38-.17-.84-.37-1.36-.62s-1.07-.54-1.64-.88A5.81,5.81,0,0,1,65,18.67,5.53,5.53,0,0,1,66,15.34a9.12,9.12,0,0,1,3.74-2.67,18.63,18.63,0,0,1,5-1.36,50.58,50.58,0,0,1,5.64-.51c1.3,0,2.42,0,3.35,0h2l1.08,7.78H83.85c-.6,0-1.15,0-1.66,0s-1,.06-1.48.1a5.34,5.34,0,0,0-1.15.22.54.54,0,0,0-.44.52c0,.23.16.43.47.59s.8.39,1.44.68l1.54.71a16.48,16.48,0,0,1,1.56.82,6.54,6.54,0,0,1,2.33,2.17A5.63,5.63,0,0,1,87.24,27.4Z" transform="translate(-4.44 -1.09)"/><path class="cls-1" d="M118.78,35H107.17c0-.86,0-2.47,0-4.81s0-4,0-4.95c0-.73,0-1.22,0-1.48s0-.76,0-1.48a4.34,4.34,0,0,0-.4-2.24,1.35,1.35,0,0,0-1.22-.6,5.51,5.51,0,0,0-1.68.27c-.57.18-1,.32-1.27.43l0,14.86H91c0-1.78,0-3.76,0-5.92s0-6.08,0-11.76c0-2.49,0-5.12,0-7.87s0-5.52,0-8.29h11.61l-.05,11.47.05.05c.43-.2,1.61-.6,3.53-1.21a17.23,17.23,0,0,1,5.15-.91,7.13,7.13,0,0,1,5.49,2.13,7.91,7.91,0,0,1,2,5.6c0,1.78,0,3.18,0,4.19s0,1.91,0,2.71c0,1.48,0,3.21,0,5.21S118.78,33.89,118.78,35Z" transform="translate(-4.44 -1.09)"/><path class="cls-1" d="M144.77,26.45l-1.24,8.89h-1.32a34.28,34.28,0,0,1-8.66-.91,21,21,0,0,1-6-2.62,11.21,11.21,0,0,1-3.62-3.74,9.77,9.77,0,0,1-1.28-5A9.5,9.5,0,0,1,123.92,18a11,11,0,0,1,3.61-3.58,19.87,19.87,0,0,1,6.25-2.69,35.22,35.22,0,0,1,8.43-.89h1.15l1.2,8.89H143.5c-.38,0-1.07,0-2.05.07a18.09,18.09,0,0,0-2.93.39,8.3,8.3,0,0,0-2.77,1.06,2.12,2.12,0,0,0-1.07,1.85,2.05,2.05,0,0,0,1.06,1.79,8.67,8.67,0,0,0,2.8,1.07,19.06,19.06,0,0,0,2.87.36c1.15.07,1.85.1,2.09.1h1.27Z" transform="translate(-4.44 -1.09)"/><path class="cls-1" d="M175.38,23.11a11.91,11.91,0,0,1-4.48,9.48,12.09,12.09,0,0,1-4.43,2.35,19,19,0,0,1-10.63,0,12.62,12.62,0,0,1-4.42-2.28,12.44,12.44,0,0,1-3.34-4.27,12,12,0,0,1-1.18-5.26,12,12,0,0,1,1-5.07,12.33,12.33,0,0,1,3.09-4.1,12.88,12.88,0,0,1,4.49-2.56,17.48,17.48,0,0,1,5.59-.85,18.29,18.29,0,0,1,5.46.77,13,13,0,0,1,4.54,2.48,12.27,12.27,0,0,1,3.21,4.13A12.25,12.25,0,0,1,175.38,23.11Zm-11.45,0a8.73,8.73,0,0,0-.23-2,3.59,3.59,0,0,0-.85-1.71,2,2,0,0,0-.75-.5,2.84,2.84,0,0,0-1-.17,2.49,2.49,0,0,0-1,.16,2.39,2.39,0,0,0-.83.65,3.4,3.4,0,0,0-.75,1.61,8.69,8.69,0,0,0-.22,1.87,8.84,8.84,0,0,0,.21,2,3.56,3.56,0,0,0,.8,1.6,2,2,0,0,0,.82.59,3,3,0,0,0,1,.17,2.54,2.54,0,0,0,1-.21,1.93,1.93,0,0,0,.79-.53,3.92,3.92,0,0,0,.75-1.56A7.9,7.9,0,0,0,163.93,23.15Z" transform="translate(-4.44 -1.09)"/><path class="cls-1" d="M219.7,13q-3.16,8.13-5.1,13.72c-1.29,3.74-2.2,6.47-2.72,8.21H201.21c-.27-.95-.62-2.12-1-3.5s-1-3.44-1.88-6.19h-.23q-1.16,3.69-1.82,5.86c-.43,1.44-.82,2.72-1.16,3.83H184.43q-.75-2.43-2.64-7.95t-5.11-14l11.89-2.51,2.81,11h.23l2.73-10.18H202l2.81,10.18H205l2.73-11Z" transform="translate(-4.44 -1.09)"/><path class="cls-1" d="M248.21,35l-2.52,0L243,35a66.55,66.55,0,0,1-9.28-.53,19.57,19.57,0,0,1-5.81-1.64,12.72,12.72,0,0,1-5.13-4.23A10.67,10.67,0,0,1,221,22.54a9.56,9.56,0,0,1,1.87-5.67,12.12,12.12,0,0,1,5.84-4.11,23.91,23.91,0,0,1,3.89-1.07q2-.37,4.05-.54l-.05-10h11.61c0,.62,0,2.33,0,5.15s0,6.61,0,11.38c0,4.52,0,8.15,0,10.87S248.21,33.4,248.21,35ZM237.3,22.66v-3.2c-.44,0-.87,0-1.32.05a3.75,3.75,0,0,0-1.55.53,3.25,3.25,0,0,0-1.36,1.34,4.12,4.12,0,0,0-.51,2,5.8,5.8,0,0,0,.32,2,3.18,3.18,0,0,0,1.3,1.54,4.48,4.48,0,0,0,1.41.63,6,6,0,0,0,1.5.2h.21V22.66Z" transform="translate(-4.44 -1.09)"/><path class="cls-1" d="M279.05,24.17H263.91a2.29,2.29,0,0,0,.93,1.71,6.48,6.48,0,0,0,2.86,1.22,17.21,17.21,0,0,0,2.84.38c.91,0,1.74.06,2.51.06h2.77l1.9,0-1.09,7.64c-.58,0-1.31.09-2.17.14s-1.81.07-2.86.07a38.05,38.05,0,0,1-8.07-.8,17.51,17.51,0,0,1-6.43-2.75,11.67,11.67,0,0,1-3.54-4,10.53,10.53,0,0,1-1.23-5,12.18,12.18,0,0,1,.88-4.83,12.83,12.83,0,0,1,7.61-6.57,17.51,17.51,0,0,1,10.53-.08,10.87,10.87,0,0,1,4,2.3,10.31,10.31,0,0,1,2.88,4.5A20.32,20.32,0,0,1,279.05,24.17Zm-10.66-3.79a4.18,4.18,0,0,0-.66-2.42,2.3,2.3,0,0,0-2.06-1,2.54,2.54,0,0,0-2.09.91,4.06,4.06,0,0,0-.82,2.48Z" transform="translate(-4.44 -1.09)"/><path class="cls-1" d="M302.37,8.8H301c-.63,0-1.26,0-1.89,0a16.21,16.21,0,0,0-1.73.2,4.28,4.28,0,0,0-1.64.65,1.33,1.33,0,0,0-.74,1.06v.39h7v8.08h-6.35q0,2.63,0,8c0,3.6,0,6.17,0,7.71H284.11q0-2.73,0-8t0-7.78h-3.9V11.15h4.08V10.6a8.85,8.85,0,0,1,.86-3.87,8.38,8.38,0,0,1,2.88-3.2,13.36,13.36,0,0,1,4.08-1.79,25,25,0,0,1,6.26-.65h3.05Z" transform="translate(-4.44 -1.09)"/><path class="cls-1" d="M316.46,8.52H304.85V1.13h11.61Zm0,26.45H304.85c0-1.39,0-3,0-4.92s0-4.07,0-6.53c0-2,0-4,0-6s0-4.11,0-6.36h11.61c0,2.15,0,4,0,5.44s0,3.76,0,6.88q0,5.12,0,7.17C316.45,32,316.46,33.46,316.46,35Z" transform="translate(-4.44 -1.09)"/></svg>