<svg xmlns="http://www.w3.org/2000/svg" viewBox="0 0 336.68 420.35"><defs><style>.cls-1,.cls-2,.cls-4,.cls-6,.cls-7{fill:#fff;}.cls-1{fill-opacity:0.06;}.cls-3,.cls-5{fill:#f1f6f8;}.cls-4,.cls-5{fill-opacity:0.45;}.cls-6{fill-opacity:0.2;}.cls-7{fill-opacity:0.33;}.cls-8{fill:#5dc4d9;}.cls-9{fill:#4e5e6e;}.cls-10{fill:#fea192;}.cls-11{fill:#ff738e;}</style></defs><title>cup</title><g id="Calque_2" data-name="Calque 2"><g id="Calque_1-2" data-name="Calque 1"><path class="cls-1" d="M95.92,46.18q-40.1.43-60,10Q21.85,66.35,16,98.25,8.59,142.6,17,229.6q3,48.2,24,108.87l204.69-73.7a651.89,651.89,0,0,1,5.53-73.26q1.86-13,2.83-17.44,11.82-45.49,12-53.64,1.79-16.26-5.89-26.36Q243,71.44,202.69,60.74,157.48,47.58,96.17,46.18"/><path class="cls-2" d="M121.22,168.07h-1.94l-3.51.08-4,.11-3.68.15-3.69.18-2.87.17L99,169l-2.84.25-2.86.27-3.15.34c-1.13.13-2.19.25-3.18.38s-1.89.25-2.71.37-1.64.25-2.48.4L79,171.5l-3.6.75c-1.41.31-2.8.62-4.17.94s-2.55.6-3.57.86-2,.51-2.92.78l-3,.91-2.86.92c-.85.28-1.69.57-2.53.87l-2.44.87c-.79.28-1.63.6-2.53.94s-1.81.7-2.72,1.07-1.76.73-2.57,1.09-1.74.8-2.79,1.3-2,1-3,1.5-1.84,1-2.71,1.51-1.73,1-2.55,1.53-1.59,1-2.28,1.45-1.5,1-2.42,1.66-1.84,1.33-2.74,2-1.69,1.35-2.37,1.94-1.35,1.19-2,1.81S22,197.44,21.42,198s-1.13,1.11-1.68,1.69-1.11,1.17-1.66,1.77-1.1,1.26-1.64,2a11.73,11.73,0,0,0-1.38,2.33c-.38.84-.72,1.69-1,2.54s-.56,1.72-.79,2.63-.41,1.78-.55,2.63-.26,1.77-.35,2.79-.15,2-.17,2.87,0,1.84,0,2.79.06,1.81.11,2.59.11,1.56.17,2.35.15,1.59.24,2.39.2,1.61.3,2.43.26,1.82.44,3S13.82,237,14,238s.36,2,.55,3,.4,2.06.65,3.25.49,2.34.72,3.46.44,2.07.62,2.87.36,1.66.56,2.59l.69,3.06c.25,1.11.46,2.06.64,2.85s.36,1.64.55,2.54.41,1.91.65,3,.48,2.25.73,3.4.47,2.22.68,3.2.41,1.9.59,2.75.35,1.68.51,2.49.36,1.73.57,2.76.42,2,.6,2.94l.63,3.09c.24,1.12.47,2.25.71,3.4s.45,2.21.66,3.18l.6,2.86q.32,1.43.6,2.82l.58,2.75c.19.9.39,1.84.6,2.81s.43,2,.68,3.19.53,2.39.82,3.71.56,2.48.79,3.46.47,2,.73,3.08.54,2.14.8,3.17.53,2,.77,2.87.49,1.74.74,2.59.53,1.77.83,2.77.67,2.12,1.08,3.37.76,2.3,1,3.15.59,1.68.9,2.52.66,1.8,1.08,2.87.84,2.11,1.26,3.11.82,1.92,1.19,2.75.84,1.85,1.42,3.08,1.11,2.31,1.58,3.23,1,1.91,1.55,3,1.12,2.08,1.69,3.08,1.13,2,1.69,2.95,1.13,1.9,1.68,2.8,1.07,1.71,1.56,2.46,1,1.55,1.6,2.42,1.15,1.69,1.67,2.44,1.12,1.61,1.8,2.57,1.37,1.92,2.07,2.89,1.37,1.9,2,2.76,1.21,1.63,1.72,2.3,1.08,1.39,1.71,2.16,1.32,1.59,2.07,2.45,1.39,1.59,1.93,2.18,1.16,1.27,1.88,2,1.34,1.42,1.89,2,1.16,1.18,1.81,1.84l2.16,2.1c.78.74,1.47,1.39,2.08,1.94s1.34,1.18,2.18,1.89,1.61,1.34,2.3,1.88,1.39,1.09,2.12,1.63,1.56,1.11,2.5,1.73,1.81,1.18,2.64,1.66,1.59.92,2.31,1.31,1.56.79,2.49,1.21,1.93.84,3,1.25,2,.74,2.79,1,1.72.49,2.74.74,2,.47,3,.66,2,.36,3.23.54,2.28.31,3.31.42,2.19.19,3.47.26,2.37.13,3.26.15l2.66,0h.13c1,0,1.92,0,2.86,0l2.93-.06c1,0,2-.06,2.85-.11l2.78-.15c1-.07,1.86-.14,2.68-.23s1.61-.18,2.4-.27l2.59-.35c1-.12,1.89-.25,2.84-.39l2.84-.41,3-.47c1-.17,1.95-.34,2.78-.49s1.72-.32,2.69-.52,2-.4,3.06-.63,2.22-.47,3.46-.75l3.31-.74,2.92-.67,2.65-.63c.79-.2,1.59-.39,2.38-.6s1.7-.43,2.71-.71l3.05-.82,3-.82c1-.28,2-.53,2.89-.78s1.8-.48,2.64-.72l2.45-.68,2.52-.74,2.64-.79,2.73-.84,3-.91,3.07-.94,3.11-1,3.11-1,3-1c1-.35,1.94-.69,2.78-1l2.39-.89,2.68-1c1-.4,2.19-.86,3.48-1.39s2.33-1,3.12-1.31,1.7-.76,2.7-1.25,2-1,3-1.53,1.89-1.07,2.74-1.6,1.77-1.14,2.75-1.83,1.8-1.32,2.48-1.87,1.37-1.16,2.1-1.84a6.47,6.47,0,0,0,1.57-2.19,20,20,0,0,0,.84-2.44q.34-1.28.6-2.43c.17-.76.33-1.64.5-2.63s.34-2.09.5-3.33.3-2.41.41-3.49.2-2.12.27-3.11.16-2.36.25-4.12.16-3.4.22-4.89.1-2.8.13-3.92,0-2.52.06-4.21,0-3.34,0-5,0-3.32,0-5.06v-4.07c0-1,0-2.19,0-3.66s0-3,0-4.73,0-3.38,0-5.07,0-3.19,0-4.5,0-2.72,0-4.22,0-3.1,0-4.79,0-3,0-3.94,0-2.15,0-3.65,0-2.86,0-4.08,0-2.3,0-3.24l-10.44-40c.19-.85.37-1.67.56-2.46s.38-1.7.62-2.72.46-2,.66-2.86l.65-2.72c.22-.93.42-1.8.62-2.61s.39-1.66.61-2.55.44-1.87.67-2.92.48-2.12.73-3.23.46-2.13.67-3.07.4-1.92.61-2.93.36-1.89.47-2.64a23.2,23.2,0,0,0,.21-2.66,10.66,10.66,0,0,0-.23-2.79,11.12,11.12,0,0,0-1-2.58,20.73,20.73,0,0,0-1.46-2.46c-.52-.75-1.12-1.54-1.8-2.36s-1.37-1.6-2.08-2.33-1.5-1.51-2.39-2.35-1.76-1.61-2.63-2.34-1.79-1.46-2.78-2.21-2.07-1.5-3.24-2.28-2.28-1.48-3.32-2.1-2-1.18-2.81-1.65-1.84-1-3-1.61-2.2-1.11-3.08-1.52-1.88-.86-3-1.36-2.36-1-3.65-1.53-2.57-1-3.83-1.46-2.74-1-4.43-1.52-3-1-4.08-1.28-2.36-.69-4-1.15-3.09-.86-4.45-1.21-2.54-.66-3.55-.9l-2.94-.68-3.5-.75c-1.39-.29-2.54-.52-3.46-.69s-2.08-.38-3.51-.63-2.77-.47-4.06-.66-2.56-.39-3.85-.57l-3.27-.46c-.9-.12-1.8-.23-2.71-.33l-3.28-.35-4.13-.36-4-.3-3.35-.21-3.21-.18c-1.11-.06-2.15-.1-3.12-.14l-3.08-.11-3.59-.1-3.62-.07-3.52,0Z"/><path class="cls-3" d="M114.23,169.77q-46.45.18-76.39,9.88-28.89,10-23.91,23.87,6.21,13.83,42.49,23.67,37.46,9.66,83.94,9.79,46.45-.16,76.41-9.88,28.89-10,23.92-23.86-6.19-13.83-42.48-23.67-37.44-9.66-83.93-9.8"/><path class="cls-4" d="M53.48,106.38l-35.9,37.39c-3.13,3.19-4.82,5.38-5.06,6.55q-5.11,12.87-.45,51.49c.23,0,1.12-.89,2.66-2.81q8.55-11.3,12.93-16.33,2.61-3.21,12.05-13.78l46.56-48.44L53.49,106.39"/><path class="cls-4" d="M107.67,125.81q-10.31,11.46-18.06,19.32Q85,150,66.22,167.82q-5.1,5-12.72,13.13l-43.06,50q-2.19,4,.17,13.81l8.28,27.91,1.8,5.31a1,1,0,0,0,.77.77,4.33,4.33,0,0,0,2.87-1.11q4.35-3.61,8.08-7.33l33.93-36.2q75.22-82.95,86.76-97l-45.25-11.24"/><path class="cls-5" d="M241,362.43h-1.85l-2.82,0h-4.9c-.63,0-1.63,0-3,.07s-2.55.08-3.6.13l-2.57.12-2.34.14-2.76.16-2.79.19-4,.33-4.12.37-3.14.34c-1.12.13-2.63.32-4.54.57s-3.4.47-4.48.63-2.2.35-3.36.55-3,.55-5.59,1-4.68.91-6.36,1.27-3.35.74-5,1.12L169,370.59l-4.95,1.2q-2.58.63-5.39,1.35t-5.05,1.34q-2.25.61-4.75,1.37t-4.88,1.55q-2.37.8-4.52,1.56c-1.44.52-2.86,1-4.27,1.57s-2.73,1.05-3.95,1.54-2.46,1-3.72,1.59-2.48,1.13-3.68,1.72l-3.56,1.79c-1.17.59-2.55,1.31-4.12,2.16s-2.69,1.45-3.34,1.81l-1.78,1-1.7,1c-.59.36-1.15.7-1.68,1s-1,.65-1.48,1l-1.44,1c-.5.35-1.14.8-1.91,1.37s-1.42,1.05-1.94,1.46-1,.82-1.54,1.24-1,.85-1.48,1.3-.93.89-1.34,1.32a2.08,2.08,0,0,0-.66,1.2c0,.26.34.54,1.1.83a11.63,11.63,0,0,0,1.21.39,50.93,50.93,0,0,0,5.11,1.15q2.74.48,5.54.72c1.86.16,3.63.25,5.32.27s3.37,0,5-.07,3.3-.18,5-.34,3.35-.38,5.08-.63l5.21-.81,4.84-.8c1.48-.25,3.1-.57,4.86-1s3.49-.78,5.2-1.2,3.48-.89,5.31-1.38,3.49-1,5-1.42l4.76-1.45,6.24-1.91,5.78-1.78,4.26-1.33q2.22-.71,6.4-2.11l6-2,3.15-1.1,2.82-1,5-1.78c2.37-.85,4-1.44,5-1.8l3.23-1.19c1.18-.43,3-1.11,5.39-2s4.07-1.54,5-1.9l2.21-.9,2.74-1.16c1.25-.53,2.18-.94,2.79-1.22l.91-.42L241,362.43Z"/><path class="cls-5" d="M240.29,362.87a35.1,35.1,0,0,0-4.81-1.43,45.78,45.78,0,0,0-6.48-1.05q-3-.24-6.06-.23c-2,0-4,.08-6,.21s-4.15.32-6.38.58-5.44.79-9.61,1.59-7.25,1.45-9.26,1.91-4,1-6,1.46l-5.83,1.49q-2.82.74-7.87,2.12l-7.44,2c-1.6.43-3.14.85-4.63,1.27l-4.29,1.2c-1.37.38-3.34,1-5.93,1.78s-4.43,1.4-5.55,1.77-2.23.75-3.35,1.14-2.78,1-5,1.77-4.22,1.54-6,2.23l-4.59,1.81-3.82,1.56c-1.27.52-2.61,1.09-4,1.7l-3.67,1.61-2.71,1.19c-.76.33-2,.85-3.73,1.57l-3.61,1.52-1.92.85c-.61.27-1.39.63-2.33,1.07s-1.88.9-2.82,1.38l-2.12,1.1c-.46.25-1.07.6-1.81,1s-1.38.82-1.89,1.14-1,.68-1.56,1.06-1,.76-1.44,1.12a18.89,18.89,0,0,0-1.51,1.38,1.53,1.53,0,0,0-.4,1.81A4,4,0,0,0,88,407.33l1.11.45c.85.33,1.74.64,2.68.93a35.91,35.91,0,0,0,4.34,1,45.11,45.11,0,0,0,5.06.57q2.75.17,6.16.14t6.25-.26c1.88-.16,3.47-.33,4.76-.5s2.46-.34,3.52-.51l2.23-.37,35.3-1.58,4-1.07c1.8-.49,4.22-1.18,7.23-2.07s5.76-1.76,8.23-2.6,4.87-1.71,7.22-2.57,4.57-1.73,6.65-2.57,4.06-1.67,5.95-2.47,3.77-1.63,5.65-2.47,3.54-1.6,5-2.27,3-1.41,4.76-2.24,3.35-1.59,4.81-2.31,2.87-1.42,4.23-2.11,2.55-1.31,3.57-1.84l2.92-1.53c.92-.48,1.78-.93,2.57-1.36s1.54-.83,2.22-1.23,1.51-.91,2.49-1.57,1.74-1.2,2.29-1.61,1.06-.84,1.54-1.26,1-.89,1.54-1.42,1-1.05,1.5-1.54.85-1,1.2-1.38.64-.81.88-1.16-.08-.83-1-1.42a25.31,25.31,0,0,0-3.65-1.91C240.92,363.12,240.61,363,240.29,362.87Z"/><path class="cls-3" d="M246.32,357.4q-10.87-3.88-40.53,1.18A384.17,384.17,0,0,0,144,375.4Q112.35,387,97,398.09,82.49,409,92.39,413.26q10.8,3.94,40.5-1.11a383.29,383.29,0,0,0,61.6-16.72q31.68-11.58,47.15-22.65,14.66-10.83,4.91-15.29"/><path class="cls-3" d="M239.39,363.65q-9.58-4.72-36.83-1.95A332.43,332.43,0,0,0,145,373.55q-29.65,8.9-45.2,18.82-14.32,9.51-6,14.65,9.43,4.78,36.75,2a332.86,332.86,0,0,0,57.65-11.82q29.66-8.91,45.25-18.82,14.53-9.66,6.06-14.73"/><path class="cls-6" d="M261,131.13l-47.81.88q-2,3.38-4.45,7.51T200.83,152q-5.46,8.37-8.41,12.73t-5.94,8.69L180.57,182q-2.91,4.19-8.84,12.86t-8.8,13q-2.87,4.3-5.57,8.42t-5,7.56q-2.25,3.45-6.67,10.28t-6.85,10.53q-2.43,3.72-5.15,7.82c-1.82,2.75-3.5,5.31-5.07,7.69s-4.11,6.21-7.64,11.49-6,9-7.45,11.13l-4,6q-1.89,2.79-5.84,8.55c-2.63,3.85-4.65,6.78-6.06,8.82l-3.85,5.59q-1.75,2.55-4.9,7.19c-2.11,3.09-3.74,5.48-4.92,7.18s-2.17,3.14-3,4.35-1.89,2.77-3.2,4.72-2.43,3.66-3.38,5.14-1.86,2.93-2.73,4.32-1.58,2.56-2.16,3.52-1.19,2-1.86,3.14-1.37,2.33-2.11,3.57a8.38,8.38,0,0,0-.89,4.92,24.93,24.93,0,0,0,1,5.53c.51,1.66,1.11,3.39,1.83,5.2s1.73,4.09,3.06,6.81,2.31,4.69,3,5.9,1.22,2.25,1.73,3.14,1.07,1.84,1.69,2.85a1.28,1.28,0,0,0,1.1.51q1.88.09,6.57-2a92.12,92.12,0,0,0,10.7-5.56q4-2.49,7.12-4.77c2.11-1.51,4-3,5.81-4.41s4.31-3.66,7.63-6.72,5.92-5.53,7.78-7.41,3.84-4,5.93-6.27,4.76-5.45,8-9.46,5.91-7.37,8-10.1l5.68-7.42q2.55-3.33,5.25-6.88t7.81-10.23l7.81-10.2,4.89-6.41q2.17-2.88,5.49-7.36t5.9-8q2.58-3.52,5.26-7.29t5.12-7.37q2.44-3.6,5-7.57t4.9-7.67c1.56-2.47,3-4.69,4.24-6.64s2.66-4.16,4.22-6.62,2.78-4.44,3.7-5.94l3-4.85c1.06-1.74,2.51-4.13,4.37-7.16s3.44-5.62,4.73-7.77,2.43-4,3.39-5.65,1.94-3.31,2.93-5.06,1.94-3.46,2.85-5.12,1.89-3.47,3-5.46,2-3.65,2.7-5,1.51-2.73,2.34-4.2,1.62-2.81,2.33-4l2.2-3.78c.75-1.3,1.48-2.6,2.21-3.91s1.38-2.51,2-3.62,1.25-2.38,2-3.85,1.39-2.77,1.95-3.93,1-2.24,1.4-3.26a9.15,9.15,0,0,0,.57-3.23,30.84,30.84,0,0,0-.23-3.61c-.16-1.27-.36-2.49-.62-3.66s-.58-2.44-1-3.82-.8-2.59-1.18-3.66Z"/><path class="cls-7" d="M261.18,123.23l-39.85,1.56L109.1,268.43q-27,36.69-53.66,70.74l-5.5,7.71a4.74,4.74,0,0,0-.7,2.81q.76,5.12,9.37,19.39L67.67,382a3.16,3.16,0,0,0,3,1.28q21.54-9,49.12-38.28a409.7,409.7,0,0,0,30.34-36.27l37.45-49.51L245,180.88q4.92-7.78,12-20.09a33,33,0,0,0,2.52-6.44q2.87-9.53,1.73-30.77"/><path class="cls-8" d="M95.28,56.54q13,0,27.7,1.17,45.12,4,83.34,16,39.36,12.83,53.84,27.71l0,.06q3.44,3.39,4,6.44h0l-1.64,5.57h0q-4,5-17.55,8.82-19.59,5.2-47.26,5.2-12.94,0-27.67-1.14-45.15-3.94-83.39-16Q47.29,97.59,32.74,82.71,19.6,70,47.58,61.84,67.61,56.55,95.28,56.54ZM23,93.13h0Q42.19,112.66,92.11,127a402.56,402.56,0,0,0,105.82,14.89q37.9-.18,58.87-8.46h0q-4.2,16.23-13.35,57.45-5.69,26.23-8.14,65.35a330.1,330.1,0,0,0,0,42.21q1.64,24.92,5.78,53.4h0A86.64,86.64,0,0,0,225,350.55h-.33q-29.06.21-68.88,10.48-39,10.38-60.82,23.57a55,55,0,0,0-11.34,8.81h0Q64.38,370,55.24,351.82a283.29,283.29,0,0,1-28.91-72.68Q13.6,227.72,14.47,164.83q1.23-30.66,4.67-52.16.69-4.58,3.87-19.54ZM225.93,364.9a69.1,69.1,0,0,1,13.35,1,14.11,14.11,0,0,1,3.73,1.19l-1,1.16q-9.84,9.1-38.66,19.56Q152.49,405.17,110.51,406h-.07a69.67,69.67,0,0,1-13.3-1,16.16,16.16,0,0,1-3.79-1.18l1-1.16q9.81-9.11,38.63-19.57,50.86-17.32,92.85-18.16ZM95,42.18q-46.2.2-67.29,12.44h0a37,37,0,0,0-7.17,6.49,42.63,42.63,0,0,0-6.12,9.74,45.68,45.68,0,0,0-2.57,6.92h0q-3.45,13-6.66,30.81-3.73,22-5.13,55.29Q-1,228.86,12.46,283.1q11.7,48.7,42.48,95.95,5.73,9.52,18.8,25h0q2.57,3,5.42,6.3h0q1.14,1,2.64,2.31a28.55,28.55,0,0,0,4.37,3.29,27,27,0,0,0,4.28,1.9h0q7.89,2.51,21,2.52,29.09-.15,68.94-10.4,39.08-10.38,60.93-23.53a75.12,75.12,0,0,0,6.32-4.29h0c.62-.6,1.41-1.42,2.37-2.47a44.15,44.15,0,0,0,3.3-4,22.87,22.87,0,0,0,3-5.85,15.9,15.9,0,0,0,.78-5.83c0-1-.1-2-.23-3l-.89-5.67h0l.11,0c-.14-.83-.25-1.56-.33-2.22q-3.48-24.58-4.61-37.2-1.83-19.45-2.07-29.81-.29-13,.57-28.94,2.31-36,7.1-59.82,12-53.38,13.48-58.63L276,118.83h0q7-12.14-5.26-26.88l-.1-.11c-.44-.46-.89-.93-1.36-1.39h0Q249.93,71.16,200.39,57A402.34,402.34,0,0,0,95,42.18Z"/><path class="cls-2" d="M140.84,24.79l-.58.05c-.36,0-.75.08-1.16.13l-1.09.18c-.32.06-.67.12-1,.2s-.72.16-1.08.25-.69.17-1,.26l-.89.27-1.12.39-1,.4-.83.36c-.29.13-.6.27-.92.44s-.67.35-1,.55l-.94.56-.89.6c-.33.22-.65.46-1,.69l-.82.62-.76.61-.83.72c-.27.26-.52.48-.73.69l-.62.63-.67.74-.67.79c-.2.26-.41.52-.61.79s-.41.56-.61.85-.43.63-.69,1-.49.79-.71,1.17L118,39.83q-.27.49-.54,1c-.18.35-.36.71-.53,1.07s-.34.75-.51,1.15-.3.74-.4,1l-.29.78c-.1.26-.23.66-.41,1.22l-.39,1.28-.24.91c-.08.31-.16.65-.25,1s-.16.74-.24,1.13-.16.85-.25,1.37-.15.92-.19,1.24-.08.62-.11.9-.07.56-.09.84-.06.58-.08.88-.05.64-.07,1,0,.72,0,1.1,0,.72,0,1v.87c0,.29,0,.62,0,1s0,.76,0,1.11,0,.67.06,1,.06.63.1.94.07.63.12,1,.1.69.16,1,.13.76.22,1.2.17.83.24,1.16.17.74.3,1.23.24.89.34,1.22.19.65.29,1,.2.62.32.93.23.66.37,1l.37,1c.12.28.23.55.35.82s.25.58.39.91.3.66.46,1l.45.93c.15.29.3.59.47.9s.31.57.43.8l.45.78c.16.28.36.6.58,1s.43.7.64,1l.57.87.63.9c.25.35.48.67.71,1l.58.78.56.72.65.83.71.85c.24.29.46.55.66.77l.63.72.6.68.62.68.74.81.78.8q.38.39.72.72l.7.68.68.67c.22.22.44.44.68.66l.73.68c.25.24.51.47.78.71l.76.68.78.68.77.67c.23.19.46.4.71.6l.66.56.65.53.68.55.68.54.68.55c.21.18.43.35.65.52l.71.56.74.58c.24.19.47.37.7.53l.65.51.67.5.67.5.66.48.34.24,2.64.89c.08-.4.16-.75.22-1.05s.14-.64.22-1,.16-.76.25-1.16.17-.75.24-1,.14-.62.23-1,.19-.75.29-1.15.2-.76.28-1.09l.27-1c.08-.32.18-.65.28-1l.27-1,.3-1c.12-.35.24-.73.38-1.13s.26-.74.36-1,.2-.54.31-.81l.32-.81c.11-.28.23-.57.36-.88s.25-.6.37-.87.25-.58.41-.93.32-.71.5-1.08.33-.68.45-.92l.4-.79c.16-.3.3-.58.45-.85l.43-.83c.14-.28.29-.56.45-.86s.3-.57.44-.82.28-.53.45-.83.34-.63.52-1,.37-.66.55-1,.34-.6.49-.85l.42-.71.43-.74.43-.73.49-.83.49-.86.47-.82.52-.93.53-.94.5-.87.48-.84.46-.84.49-.91c.17-.34.33-.64.46-.91s.27-.52.39-.77l.39-.82.39-.85c.11-.26.23-.52.34-.79l.39-.95.38-1c.11-.3.2-.58.29-.83s.18-.53.26-.79.17-.55.26-.86.19-.64.28-1,.18-.68.25-1,.14-.59.19-.85.11-.52.16-.79.09-.56.14-.88.09-.61.12-.88.07-.54.09-.81,0-.55.07-.83l0-.85c0-.29,0-.62,0-1s0-.79-.05-1.18-.06-.77-.09-1.12-.08-.7-.13-1.05-.09-.69-.14-1-.1-.62-.16-.93-.13-.66-.21-1-.18-.73-.26-1-.18-.63-.28-1l-.3-.9c-.1-.29-.2-.57-.3-.83s-.21-.53-.34-.83-.24-.57-.36-.83-.26-.53-.42-.83-.31-.59-.47-.88-.34-.61-.56-1-.43-.72-.65-1.06-.44-.68-.66-1-.42-.6-.62-.86-.4-.53-.62-.81l-.62-.74-.57-.62c-.18-.2-.38-.4-.6-.61s-.43-.41-.64-.6l-.63-.57-.65-.55-.85-.67c-.35-.27-.7-.52-1-.76s-.7-.47-1.07-.7l-1-.63-.95-.51-.94-.46c-.33-.15-.67-.3-1-.45l-1.08-.41-1.06-.35c-.35-.11-.71-.22-1.07-.31s-.72-.18-1.05-.25-.67-.14-1-.2l-1-.15-1-.11-1-.05h-2.1Z"/><path class="cls-2" d="M263.44,6.48Q253.89-1.65,242.16.42A44.24,44.24,0,0,0,218.1,14Q208,24.7,201.24,42.67q-11,31.23-12.07,45A99.1,99.1,0,0,1,226.77,70,66.05,66.05,0,0,1,244,69.37q4,.41,9,1.4,15.35,3.9,18.35,4.24a48.49,48.49,0,0,0,10.32.75q13-.56,20.81-8.69,9.32-10.09,1.88-23.94c-1.55-2.68-4.18-5-7.86-7q-1.29-1.22-14.27-5.65a14.73,14.73,0,0,1-3.51-1.93A8.5,8.5,0,0,1,277,26.1q-5.11-10-7-12.48a35.84,35.84,0,0,0-6.49-7.1"/><path class="cls-2" d="M327.94,105.64q-13.38-17-38-16.85Q279.74,89,267.1,94a85.75,85.75,0,0,0-9.3,4.31A157.9,157.9,0,0,0,244.2,107l-3.11,1.27q14.68,2.43,22.32,10.1a37.72,37.72,0,0,1,5.68,7.35q1,1.36,7,13.91a45.75,45.75,0,0,0,2.61,4.38,31.64,31.64,0,0,0,7.4,8.46,32.11,32.11,0,0,0,21.56,6.94q19-1,27.34-19.79,2.88-6.24.79-17.4A39.54,39.54,0,0,0,328,105.74"/><path class="cls-9" d="M110.82,270.14q-5.58.66-9,6.09a21.68,21.68,0,0,0,2.45,25c3,3.1,6.33,4.5,10,4.2s6.74-2.48,9-6.1a21.72,21.72,0,0,0-2.43-24.91q-4.47-4.67-10-4.24"/><path class="cls-2" d="M116.16,275.57a3.48,3.48,0,0,0-2.64,2.21,9.42,9.42,0,0,0,1.13,9.17,3.61,3.61,0,0,0,3.11,1.57,3.52,3.52,0,0,0,2.64-2.22,8.68,8.68,0,0,0,.63-4.71,9,9,0,0,0-1.75-4.44,3.6,3.6,0,0,0-3.11-1.58"/><path class="cls-9" d="M180.46,260.31q-5.58.66-9,6.09a21.68,21.68,0,0,0,2.45,25q4.47,4.65,10.06,4.2,5.58-.68,9-6.1a21.72,21.72,0,0,0-2.43-24.91q-4.46-4.67-10.05-4.24"/><path class="cls-2" d="M185.8,265.74a3.48,3.48,0,0,0-2.64,2.21,8.68,8.68,0,0,0-.63,4.71,8.92,8.92,0,0,0,1.76,4.46,3.63,3.63,0,0,0,3.11,1.57,3.52,3.52,0,0,0,2.64-2.22,8.68,8.68,0,0,0,.63-4.71,8.86,8.86,0,0,0-1.75-4.44,3.6,3.6,0,0,0-3.11-1.58"/><path class="cls-9" d="M162.69,301.66q-3.7.24-7.43.65-2.44.26-8.29,1.09l-4.64.72h0a2.21,2.21,0,0,0-1.13,1.14,4.57,4.57,0,0,0-.37,2.22,11.92,11.92,0,0,0,.17,1.44c.08.36.19.77.33,1.24h0a2.41,2.41,0,0,0,.08.25,20.7,20.7,0,0,0,3.13,6.47q3.75,4.47,8.68,4.31c.37,0,.75-.05,1.14-.1a11.69,11.69,0,0,0,8.67-6.76,22.36,22.36,0,0,0,2-6.52,24.18,24.18,0,0,0,.27-3.49h0a3.42,3.42,0,0,0-.44-1.5,2.53,2.53,0,0,0-1.56-1,5.13,5.13,0,0,0-.59-.12Z"/><path class="cls-10" d="M208.05,291.83a13,13,0,0,0-15.08,3,7.43,7.43,0,0,0,2.38,11.94,12.95,12.95,0,0,0,15.09-2.95,7.43,7.43,0,0,0-2.36-12"/><path class="cls-10" d="M95.36,311.18a12.33,12.33,0,0,1,6.94-4,12.18,12.18,0,0,1,7.88.92,7.3,7.3,0,0,1,2.4,11.73A12.74,12.74,0,0,1,97.77,323a7.31,7.31,0,0,1-2.43-11.75"/><path class="cls-11" d="M151.84,309.46a7.58,7.58,0,0,0-4.06,2.61,4.07,4.07,0,0,0-.75,3.82,4.71,4.71,0,0,0,3,2.77,8.33,8.33,0,0,0,5,.12,7.58,7.58,0,0,0,4.07-2.6,4.1,4.1,0,0,0,.76-3.8,4.67,4.67,0,0,0-3-2.79,8.33,8.33,0,0,0-5-.13"/></g></g></svg>