<?xml version="1.0" encoding="utf-8"?>
<!-- Generator: Adobe Illustrator 23.0.1, SVG Export Plug-In . SVG Version: 6.00 Build 0)  -->
<svg version="1.1" id="Calque_1" xmlns:v="https://vecta.io/nano"
	 xmlns="http://www.w3.org/2000/svg" xmlns:xlink="http://www.w3.org/1999/xlink" x="0px" y="0px" viewBox="0 0 250 84"
	 style="enable-background:new 0 0 250 84;" xml:space="preserve">
<style type="text/css">
	.st0{fill:#F6F9E5;}
	.st1{fill:#FFFFFF;}
	.st2{fill:#DCDCDC;}
	.st3{fill:#5EC3DA;}
	.st4{fill:#A34054;}
	.st5{fill:#4E5E6E;}
	.st6{fill:#FF839C;}
	.st7{fill:#FCA194;}
</style>
<g>
	<g>
		<path class="st0" d="M146.8,66.5c-3.1,1.8-5.3,3-6.8,3.4c-2.2,0.7-4.7,1.4-7.5,2.1c-1.4,0.3-2.7,0.6-3.8,0.7
			c-2.8,0.2-5.6,0.1-8.5-0.4c-0.8-0.1-2-0.4-3.5-0.8c-0.9-0.2-2.9-0.8-5.9-1.8c-0.1,0-0.1,0-0.2,0.1c0.1,2.9,2.2,5.3,6.3,7.2
			c1.7,0.7,3.9,1.2,6.7,1.5c2,0.2,4.6,0.2,7.7-0.1c2.7-0.2,5.1-0.6,6.9-1.1c1.9-0.6,3.6-1.3,4.9-2.3c0.9-0.8,1.7-1.6,2.2-2.3
			L146.8,66.5"/>
	</g>
	<g>
		<path class="st1" d="M103.3,41.4c-0.3,0-0.6,0.1-0.9,0.2c-0.6,0.3-1,0.9-1.2,1.7c-0.1,0.3-0.1,0.7-0.1,1.1l0.2,2.4
			c0,0.5,0,0.9-0.1,1.3c-0.1,0.3-0.1,0.6-0.2,0.9l0,0c-2.5,1.9-3.6,4.1-3.4,6.4c0.6,3.4,3.3,7,8.1,10.8c2.6,2,5.1,3.4,7.5,4.4
			c2.2,0.9,5.2,1.4,8.9,1.8c3.5,0.3,6.3,0.4,8.5,0.3c0.7,0,1.3-0.1,1.9-0.2c4.9-0.8,8.3-1.7,10.1-2.6l0.9-0.4l3.2-4.1
			c2.1-1.3,3.8-2.8,5.2-4.5c1.5-1.7,2.8-3.6,3.9-5.7c2.9-5.1,3-8.6,0.3-10.7l0,0l-0.4-0.3l0,0c-0.7-1-1.2-1.9-1.4-2.7l0,0
			c-0.4-0.4-1.2-0.6-2.5-0.8c-1.2-0.1-2.6,0-4.1,0c-0.6,0-1.1,0.1-1.7,0.1c-1.9,0.2-3,0.3-3.4,0.3c-1.8,0.2-4.6,0.6-8.2,1.1
			l-1.1,0.1c-2.4,0.2-3.8,0.4-4.1,0.4c-1.5,0.2-3.1,0.4-4.6,0.6l-3.1,0.4l0,0c-0.6-1.6-1.5-2.6-2.4-3l0,0c-0.2-0.1-0.3-0.1-0.5-0.1
			c-1.2,0.1-2,0.2-2.3,0.2c0,0-0.1,0-0.1,0c0,0-0.1,0-0.3,0c-0.6,0-2,0.1-4.3,0.2c-0.1,0-0.1,0-0.2,0c-0.2,0-0.4,0-0.5,0.1
			c-0.1,0-0.1,0.1-0.1,0.1c0.3,0.5,0.5,0.9,0.5,1.1c0,0.2,0,0.5,0,0.8c-0.1,0.5-0.4,0.8-1,0.8c0,0-0.1,0-0.2,0
			c-0.6,0-1.2-0.1-1.9-0.4c-0.3-0.1-0.5-0.3-0.8-0.4c-1.1-0.8-1.6-1.2-1.7-1.2c-0.4-0.3-0.8-0.5-1.2-0.6
			C104,41.4,103.6,41.4,103.3,41.4z"/>
	</g>
	<g>
		<path class="st2" d="M158.2,46.2c-2.5,4.6-4.6,8.1-6.4,10.3c-1.8,2.4-4.2,4.9-7.3,7.5c-1,0.8-1.9,1.4-2.9,1.9
			c-2,1.2-3.9,2.1-5.8,2.9c-2.8,1.2-5.7,2.1-8.9,2.8c6.4-0.8,10.6-1.6,12.7-2.5c3.3-0.9,6.4-2.5,9.3-4.8c2.3-1.9,4.2-4.2,5.7-7
			l0.5-1L158.2,46.2"/>
	</g>
	<g>
		<path class="st3" d="M126.8,36.5c8-0.4,15.2-0.2,21.5,0.7c6.7,1,10.2,2.3,10.5,3.9c-0.3,1.6-3.7,3.3-10.2,5
			c-6.1,1.5-13.1,2.5-21.2,3c-8,0.4-15.2,0.2-21.5-0.7c-6.7-1-10.2-2.3-10.5-3.9c0.3-1.6,3.7-3.3,10.1-5
			C111.7,37.9,118.7,36.9,126.8,36.5 M126.6,33.8c-10,0.6-18.3,1.9-24.8,4c-6.1,2-9.2,4.3-9.1,6.9c0.1,2.6,3.4,4.5,9.8,5.8
			c6.7,1.3,15,1.7,24.9,1.2c10-0.6,18.3-1.9,24.8-3.9c6.2-2,9.2-4.3,9.2-6.9c-0.1-2.6-3.4-4.5-9.7-5.9
			C145.1,33.7,136.8,33.3,126.6,33.8"/>
	</g>
	<g>
		<path class="st1" d="M116.4,4.7c-1.1,0.1-2,0.6-2.7,1.6c-0.7,1-0.8,2.2-0.4,3.3c0.3,0.9,0.8,1.6,1.6,2.1c0.2,0.2,0.6,0.4,1.2,0.8
			c0.3,0.1,0.8,0.4,1.7,0.8c0.3,0.2,0.6,0.3,0.9,0.5c0.4,0.2,0.8,0.5,1,0.8c0-0.3,0.1-0.7,0.1-1l0.3-2c0.1-0.6,0.1-1.1,0.1-1.6
			c0.1-1,0-1.9-0.3-2.5c-0.1-0.3-0.3-0.6-0.5-1c-0.3-0.5-0.6-0.8-0.8-1C118,4.9,117.2,4.7,116.4,4.7L116.4,4.7z M119.8,14.7l0,0.3
			L119.8,14.7C119.8,14.7,119.8,14.7,119.8,14.7L119.8,14.7z M92.4,25c-0.1,0-0.1,0-0.2,0c-0.1,0-0.2,0-0.4,0
			c-0.2,0-0.3,0.1-0.5,0.1c-0.1,0-0.2,0.1-0.3,0.1c-0.1,0-0.2,0.1-0.4,0.1c-0.1,0.1-0.3,0.1-0.5,0.2c-0.2,0.1-0.3,0.2-0.3,0.2
			c-0.1,0-0.1,0.1-0.2,0.1c-0.1,0-0.1,0.1-0.3,0.2c-0.1,0.1-0.2,0.2-0.2,0.2c0,0.1-0.1,0.1-0.2,0.2c-0.1,0.1-0.1,0.2-0.2,0.3
			c-0.1,0.1-0.1,0.2-0.2,0.4c-0.1,0.1-0.1,0.3-0.1,0.3c0,0.1,0,0.2-0.1,0.3s0,0.3,0,0.4c0,0.1,0,0.2,0,0.3c0,0.1,0,0.2,0.1,0.3
			c0,0.2,0.1,0.3,0.1,0.4c0,0.1,0.1,0.2,0.1,0.3c0,0.1,0.1,0.1,0.1,0.2c0,0.1,0.1,0.2,0.2,0.3c0.1,0.1,0.1,0.2,0.2,0.3
			c0,0,0.1,0.1,0.1,0.1c0,0.1,0.1,0.1,0.2,0.2c0.1,0.1,0.2,0.2,0.3,0.3c0.1,0.1,0.2,0.1,0.2,0.2c0.1,0.1,0.1,0.1,0.2,0.1
			c0.1,0,0.2,0.1,0.3,0.2c0.1,0.1,0.2,0.1,0.3,0.2c0.1,0,0.2,0.1,0.3,0.1c0.1,0,0.3,0.1,0.4,0.1c0.1,0,0.2,0,0.3,0
			c0.1,0,0.2,0,0.4,0c0.1,0,0.1,0,0.2,0c0.1,0,0.2,0,0.3,0c0.1,0,0.3,0,0.3,0c0.1,0,0.2,0,0.4-0.1c0.1,0,0.3-0.1,0.4-0.1
			c0.1,0,0.2-0.1,0.4-0.1c0.1,0,0.2-0.1,0.3-0.1c0.1,0,0.2-0.1,0.4-0.1c0.1,0,0.3-0.1,0.3-0.1c0.1,0,0.2,0,0.3-0.1
			c0.1,0,0.3-0.1,0.4-0.1c0.1,0,0.2-0.1,0.3-0.1c0.1,0,0.2,0,0.2-0.1c0.1,0,0.2,0,0.3-0.1c0.1,0,0.2,0,0.2-0.1c0,0,0.1,0,0.2,0
			c0.1,0,0.2,0,0.3-0.1c0.1,0,0.2,0,0.3,0c0.1,0,0.2,0,0.2,0c0,0,0.1,0,0.1,0c0,0,0.1,0,0.1,0c0.1,0,0.2,0,0.3,0c0.1,0,0.2,0,0.3,0
			c0.1,0,0.2,0,0.3,0c0.1,0,0.2,0,0.2,0c0.1,0,0.1,0,0.2,0c0.1,0,0.1,0,0.2,0c0.1,0,0.1,0,0.2,0c0.1,0,0.1,0,0.2,0c0,0,0.1,0,0.2,0
			c0.1,0,0.1,0,0.2,0c0,0,0.1,0,0.2,0c0.1,0,0.1,0,0.2,0.1c0.1,0,0.1,0,0.2,0.1c0,0,0.1,0,0.2,0.1c0.1,0,0.1,0.1,0.2,0.1
			c0,0,0.1,0.1,0.2,0.1l-0.4-1.2c0,0-0.1-0.1-0.1-0.3c-0.1-0.2-0.2-0.4-0.4-0.6c-0.2-0.3-0.3-0.4-0.4-0.5c-0.1-0.1-0.1-0.2-0.2-0.3
			c-0.1-0.1-0.2-0.2-0.2-0.3c-0.1-0.1-0.2-0.2-0.4-0.4c-0.2-0.2-0.3-0.3-0.4-0.4c-0.1-0.1-0.2-0.2-0.3-0.3c-0.1-0.1-0.2-0.2-0.3-0.3
			c-0.1-0.1-0.3-0.2-0.5-0.3c-0.2-0.1-0.4-0.2-0.5-0.3c-0.1-0.1-0.3-0.1-0.4-0.2c-0.1-0.1-0.3-0.1-0.4-0.2c-0.1-0.1-0.3-0.1-0.6-0.2
			c-0.3-0.1-0.4-0.2-0.6-0.2c-0.1,0-0.2-0.1-0.3-0.1c-0.1,0-0.3-0.1-0.5-0.1c-0.2,0-0.4-0.1-0.6-0.1c-0.2,0-0.4,0-0.6,0
			c-0.2,0-0.3,0-0.5,0c-0.1,0-0.3,0-0.5,0C92.5,25,92.4,25,92.4,25z M102.1,11.2c-0.9,0-1.7,0.6-2.3,1.6c-0.6,1.1-0.8,2.3-0.6,3.6
			c0.2,0.9,0.6,1.9,1.3,3c0.3,0.5,1.4,1.7,3.3,3.6c0.4,0.6,0.8,1.2,1.1,1.9c0.2,0.4,0.3,1,0.4,1.6l0.2,3.6c0.1,1,0.2,1.9,0.4,2.8
			c0.2,1.3,0.7,2.6,1.4,4.1c0.3,0.7,0.7,1.3,1.1,1.9c1.5,1.9,2.3,2.9,2.4,3.2c0.3,0.5,0.6,1.2,0.8,2.3c0.2,0.3,0.4,0.6,0.7,0.8
			c1.7,1.2,4.2,1.8,7.5,1.6c1.4-0.1,2.7-0.3,3.9-0.6c3.4-0.9,5.3-1.4,5.7-1.7l0,0c0.4,0.2,0.8,0.3,1.1,0.4l0,0
			c-0.2,0.5-0.3,0.9-0.4,1.2l24.5-2.5c-0.7-2.3-1.1-3.9-1.1-4.9c-0.1-0.6-0.1-1.3-0.1-2.1c0.1-2.7,0.1-4,0.1-4.1
			c0-0.8-0.1-1.5-0.2-2c-0.4-1.7-0.9-2.7-1.5-3c-0.3-0.1-0.6-0.2-0.9-0.2c-0.6,0-1.2,0.4-1.7,1c-0.5,0.6-0.9,1.3-1.4,2.2
			c-0.4,0.8-1,2.2-1.8,4.2l-0.7,1.4c-0.2,0.4-0.5,0.6-0.7,0.6c-0.1,0-0.3,0-0.4-0.2c-0.2-0.7-0.3-1.4-0.2-2c0.9-5.4,1.4-9,1.4-10.8
			c0-2.5-0.1-4.7-0.6-6.6c-0.5-2.5-1.3-4.4-2.4-5.7c-1.4-1.5-2.8-2.2-4.2-2.1c0,0,0,0,0,0l0,0c-2.2,0.2-3.5,1.5-3.8,3.7
			c0,0.4,0,0.7,0.2,1.1c0,0.1,0.5,1.1,1.6,3c0.2,0.3,0.2,0.7,0.3,1c0,0.5,0,0.9-0.1,1.2c-0.7,1.8-1.1,3-1.2,3.7
			c-0.2,1-0.3,1.8-0.2,2.2c0,0.2,0.1,0.5,0.3,0.9l1.6,2.2c0.2,0.3,0.3,0.6,0.2,0.8c0,0,0,0,0,0.1l0,0c-0.1,0-0.2,0-0.4,0
			c0,0,0,0,0,0c-0.2,0-1.2-0.1-3.1-0.2c-0.1,0-0.3,0-0.5,0c0,0,0,0,0,0l0,0c-0.7,0-1.2,0.4-1.7,1c-0.4,0.6-0.5,1.3-0.4,2
			c0.1,0.5,0.3,0.9,0.5,1.3c0.1,0.2,0.3,0.4,0.4,0.5c0.1,0.1,0.4,0.4,0.9,0.8l0,0c0.6,1,1,1.6,1,1.7c0.3,0.7,0.4,1.2,0.4,1.5
			c0,0.3-0.1,0.6-0.3,1l0,0c-0.1,0-0.2,0.1-0.4,0.1c0,0-0.1,0-0.1,0c-0.9-0.1-1.7-0.6-2.5-1.4c-0.9-1-1.6-2.2-2-3.6
			c-0.2-0.6-0.4-1.3-0.5-2.1c-0.6-3.9-1-6-1.1-6.3c-0.3-1.1-0.6-2-1-2.6c-1.5-2.5-3.2-3.7-5.1-3.6l0,0c-1.3,0.1-2.3,0.9-3,2.4
			c-0.7,1.6-0.7,3.2,0,4.8c0.2,0.5,0.5,1,0.9,1.4c0.1,0.1,1,1,2.8,2.8c0.3,0.3,0.6,0.7,0.7,1.1c0.2,0.4,0.3,0.8,0.3,1.1l0.1,3
			c0,0.6,0.1,1.1,0.2,1.5c0.2,0.8,0.6,1.5,1,2.2l0,0c-1.5-0.7-3.2-1.7-4.9-3.2c-0.8-0.7-1.4-1.3-1.8-1.8c-2.4-3.2-3.8-5-4.1-5.2
			c-0.3-0.4-1.4-1.4-3.2-3c-0.3-0.3-0.6-0.6-0.8-0.8c-0.8-0.9-1.4-2-1.8-3.4c-0.1-0.4-0.3-0.9-0.4-1.5c-0.5-2.7-0.8-4.4-1-4.9
			c-0.2-0.8-0.4-1.4-0.6-1.8C104.5,12.1,103.4,11.2,102.1,11.2L102.1,11.2C102.2,11.2,102.2,11.2,102.1,11.2z"/>
	</g>
	<g>
		<path class="st0" d="M116.4,4.7c-1,0.1-1.8,0.5-2.5,1.3c0.5-0.3,1-0.5,1.5-0.5c0.2,0,0.4,0,0.6,0c1,0.2,1.7,0.9,2.2,1.8
			c0.3,0.7,0.6,1.6,0.8,2.7c0.1,0.6,0.2,1.1,0.2,1.5c0.1,1.3,0.2,2.3,0.2,2.9l0,0c0.1,0.1,0.1,0.1,0.2,0.2c0-0.3,0.1-0.7,0.1-1
			l0.3-2c0.1-0.6,0.1-1.1,0.1-1.6c0.1-1,0-1.9-0.3-2.5c-0.1-0.3-0.3-0.6-0.5-1c-0.3-0.5-0.6-0.8-0.8-1C118,4.9,117.2,4.7,116.4,4.7
			L116.4,4.7z"/>
	</g>
	<g>
		<path class="st0" d="M138.2,9.2C138.2,9.2,138.2,9.2,138.2,9.2L138.2,9.2c-1.6,0.2-2.6,0.8-3.3,1.9c0.7-0.4,1.5-0.7,2.2-0.7
			c0.3,0,0.6,0,0.8,0c1.8,0.5,3.1,1.6,4,3.4c1.3,2.4,2.2,5,2.7,7.9c0.2,1.2,0.2,2.2,0.2,3.1l-0.1,2.6l0,1.9c0.4-2.7,0.6-4.6,0.6-5.8
			c0-2.5-0.1-4.7-0.6-6.6c-0.5-2.5-1.3-4.4-2.4-5.7C141,9.9,139.6,9.1,138.2,9.2z"/>
	</g>
	<g>
		<path class="st0" d="M133,28.7C133,28.7,133,28.7,133,28.7L133,28.7c-0.7,0-1.2,0.4-1.7,1c-0.4,0.6-0.5,1.3-0.4,2
			c0.1,0.5,0.3,0.9,0.5,1.3c0.1,0.2,0.2,0.3,0.3,0.4c-0.2-0.3-0.3-0.7-0.4-1c-0.1-0.3-0.1-0.7-0.1-0.9c0.1-0.9,0.4-1.5,0.8-1.9
			c0.3-0.3,0.8-0.6,1.6-0.7c0.1,0,0.2,0,0.3,0l0,0c-0.2,0-0.4,0-0.6-0.1C133.4,28.7,133.2,28.7,133,28.7z"/>
	</g>
	<g>
		<path class="st0" d="M150.8,27.1c-0.6,0-1.2,0.4-1.7,1c-0.1,0.1-0.1,0.2-0.2,0.3c0.2-0.1,0.3-0.2,0.5-0.2c0.1,0,0.2,0,0.3,0
			c0.7,0,1.3,0.2,1.9,0.6c0.8,0.6,1.3,1.4,1.7,2.2c0.1,0.1,0.1,0.3,0.2,0.6c0-0.5-0.1-1-0.1-1.4c-0.4-1.7-0.9-2.7-1.5-3
			C151.4,27.1,151.1,27.1,150.8,27.1z"/>
	</g>
	<g>
		<path class="st0" d="M121.2,18.9L121.2,18.9c-1.3,0.1-2.3,0.9-3.1,2.4c-0.5,1.3-0.6,2.6-0.3,3.9l0,0c0.1,0,0.2,0,0.3,0
			c0.1,0,0.1-0.1,0.1-0.1c0.1-0.5,0.1-0.9,0.2-1.2c0.1-0.4,0.2-0.6,0.3-0.8c0.3-0.5,0.7-0.9,1.3-1.4c0.4-0.3,0.9-0.5,1.3-0.5
			c0.1,0,0.2,0,0.2,0c0.4,0,0.8,0.2,1.4,0.6c0.6,0.4,1.2,1.1,1.8,2.2c0.1,0.2,0.3,0.6,0.5,1.1c0.9,2.8,1.4,4.4,1.6,4.8
			c0.3,0.7,0.8,1.5,1.7,2.4c-0.1-0.3-0.1-0.6-0.2-1c-0.6-3.9-1-6-1.1-6.3c-0.3-1.1-0.6-2-1-2.6C124.8,20.1,123.1,18.9,121.2,18.9z"
			/>
	</g>
	<g>
		<path class="st0" d="M102.1,11.2c-0.9,0-1.7,0.6-2.3,1.6c-0.6,1.1-0.8,2.3-0.6,3.6c0.1,0.3,0.1,0.6,0.3,0.9
			c0.1-0.6,0.3-1.3,0.6-2.1c0.2-0.4,0.4-0.8,0.8-1.2c0.4-0.4,0.8-0.6,1.3-0.6c0.4,0,0.7,0.1,1.1,0.3c0.5,0.4,1,1.3,1.5,2.6
			c0.1,0.2,0.6,1.8,1.4,4.8c0.2,0.7,0.4,1.2,0.6,1.7c0.7,1.4,1.4,2.6,2.1,3.6c1.2,1.5,2.3,2.6,3.5,3.4c1.1,0.7,2.1,1.3,3,1.8
			c-1.2-1.5-1.9-2.4-2.1-2.5c-0.3-0.4-1.4-1.4-3.2-3c-0.3-0.3-0.6-0.6-0.8-0.8c-0.8-0.9-1.4-2-1.8-3.4c-0.1-0.4-0.3-0.9-0.4-1.5
			c-0.5-2.7-0.8-4.4-1-4.9c-0.2-0.8-0.4-1.4-0.6-1.8C104.5,12.1,103.4,11.2,102.1,11.2L102.1,11.2C102.2,11.2,102.2,11.2,102.1,11.2
			z"/>
	</g>
	<g>
		<path class="st0" d="M92.4,25c-0.1,0-0.1,0-0.2,0c-0.1,0-0.2,0-0.4,0c-0.2,0-0.3,0.1-0.5,0.1c-0.1,0-0.2,0.1-0.3,0.1
			c-0.1,0-0.2,0.1-0.4,0.1c-0.1,0.1-0.3,0.1-0.5,0.2c-0.2,0.1-0.3,0.2-0.3,0.2c-0.1,0-0.1,0.1-0.2,0.1c-0.1,0-0.1,0.1-0.3,0.2
			c-0.1,0.1-0.2,0.2-0.2,0.2c0,0.1-0.1,0.1-0.2,0.2c-0.1,0.1-0.1,0.2-0.2,0.3c-0.1,0.1-0.1,0.2-0.2,0.4c-0.1,0.1-0.1,0.3-0.1,0.3
			c0,0.1,0,0.2-0.1,0.3s0,0.3,0,0.4c0,0.1,0,0.2,0,0.3c0,0.1,0,0.2,0.1,0.3c0-0.1,0.1-0.1,0.1-0.2c0.2-0.4,0.4-0.7,0.6-0.8
			c0.4-0.4,0.9-0.8,1.4-1.1c0.6-0.3,1.4-0.5,2.2-0.6c0.8,0,1.5,0,2.1,0.1c1.6,0.4,2.9,1.1,4,2.1c0.9,0.8,1.7,1.8,2.3,2.7l0,0
			c0,0,0.1,0,0.1,0.1c0,0,0.1,0.1,0.2,0.1l-0.4-1.2c0,0-0.1-0.1-0.1-0.3c-0.1-0.2-0.2-0.4-0.4-0.6c-0.2-0.3-0.3-0.4-0.4-0.5
			c-0.1-0.1-0.1-0.2-0.2-0.3c-0.1-0.1-0.2-0.2-0.2-0.3c-0.1-0.1-0.2-0.2-0.4-0.4c-0.2-0.2-0.3-0.3-0.4-0.4c-0.1-0.1-0.2-0.2-0.3-0.3
			c-0.1-0.1-0.2-0.2-0.3-0.3c-0.1-0.1-0.3-0.2-0.5-0.3c-0.2-0.1-0.4-0.2-0.5-0.3c-0.1-0.1-0.3-0.1-0.4-0.2c-0.1-0.1-0.3-0.1-0.4-0.2
			c-0.1-0.1-0.3-0.1-0.6-0.2c-0.3-0.1-0.4-0.2-0.6-0.2c-0.1,0-0.2-0.1-0.3-0.1c-0.1,0-0.3-0.1-0.5-0.1c-0.2,0-0.4-0.1-0.6-0.1
			c-0.2,0-0.4,0-0.6,0c-0.2,0-0.3,0-0.5,0c-0.1,0-0.3,0-0.5,0C92.5,25,92.4,25,92.4,25z"/>
	</g>
	<g>
		<path class="st4" d="M106.5,64.4L106.5,64.4L106.5,64.4C106.5,64.4,106.5,64.4,106.5,64.4z"/>
	</g>
	<g>
		<path class="st3" d="M127.6,73.8l0.3,0l0.1,0l0.2,0l0,0c0,0-0.1,0-0.1,0C127.9,73.8,127.8,73.8,127.6,73.8L127.6,73.8z
			 M146.1,68.5c-0.1,0.1-0.1,0.2-0.2,0.4c-0.5,1.2-1.3,2.3-2.4,3.3c-1.6,1.4-3.5,2.5-5.8,3.2c-0.7,0.2-1.8,0.5-3.1,0.7
			c-1.5,0.2-3,0.4-4.4,0.6c-0.2,0-0.4,0-0.4,0c0,0,0,0,0,0l-0.6,0c-0.2,0-0.4,0-0.6,0c0,0,0,0,0,0c-0.1,0-0.2,0-0.4,0c0,0,0,0,0,0
			c0,0-0.1,0-0.2,0c0,0,0,0,0,0c-1.4,0-2.9,0-4.5,0c-1.4,0-2.4-0.1-3.2-0.3c-1.5-0.2-2.9-0.7-4.2-1.3h0c-0.7-0.3-1.4-0.7-2-1.2
			c-1.2-0.8-2.1-1.8-2.8-3c0-0.1-0.1-0.1-0.1-0.2l0,0c0,0,0-0.1-0.1-0.1l0,0c1.1,0.5,2.2,0.9,3.3,1.3c3.7,1.1,7.7,1.6,12,1.7l0,0
			c0.1,0,0.1,0,0.2,0l0.1,0l0,0c0.4,0,0.7,0,1.1,0c0,0,0.1,0,0.1,0l0,0c0.1,0,0.1,0,0.1,0c0.1,0,0.1,0,0.2,0l0,0l0.4,0
			c0.2,0,0.3,0,0.5,0c0,0,0,0,0.1,0c0.5,0,0.8-0.1,0.9-0.1c0.2,0,0.6-0.1,1.1-0.2c0.1,0,0.2,0,0.3-0.1l0,0c3.6-0.5,7-1.3,10.1-2.6
			C143.3,70.2,144.7,69.4,146.1,68.5L146.1,68.5z M94.3,44.8L94.3,44.8c-0.9,0.2-1.3,0.7-1.2,1.6c0.7,2.9,1.8,5.7,3,8.5
			c1.9,4.2,4.7,8,8.3,11.5c0.8,0.7,1.6,1.3,2.4,1.8l0,0c0.8,1.5,1.3,2.5,1.6,3c0.6,0.9,1,1.6,1.3,1.9c0.1,0.1,0.2,0.3,0.3,0.4l0,0
			c0.8,1,1.7,1.9,2.7,2.6c2,1.4,4.3,2.4,6.9,2.8c1.1,0.3,3.7,0.4,7.8,0.4l0,0c0,0,0,0,0,0l0,0c0.2,0,0.3,0,0.4,0c0.2,0,0.3,0,0.5,0
			c0,0,0.1,0,0.1,0l0.3,0c0.4,0,0.8-0.1,1.2-0.1l0.3,0l1.3-0.1c0.3,0,0.6-0.1,0.8-0.1c0.2,0,0.3,0,0.5-0.1l0,0
			c3-0.4,4.9-0.7,5.8-1.1c2.5-0.8,4.7-2,6.5-3.6c0.7-0.6,1.4-1.4,2-2.2l0,0c0,0,0,0,0,0c0,0,0,0,0,0l0.1-0.1
			c0.1-0.2,0.2-0.4,0.3-0.5l0,0c0.1-0.2,0.2-0.4,0.3-0.6l0,0c0.3-0.5,0.5-1,0.7-1.5c0.1-0.3,0.3-0.9,0.7-2l0.2-0.6l0.2-0.7l0,0
			c0.6-0.5,1.2-1.1,1.7-1.6c3.3-3.8,5.7-7.9,7.2-12.3c1-2.9,1.8-5.8,2.2-8.7c0-0.9-0.4-1.3-1.3-1.5l-0.1,0c-0.6,0.1-1,0.4-1.2,0.9
			c-0.8,4.6-2,8.7-3.7,12.1c-1.6,3.1-3.3,5.7-5.1,7.6c-2.4,2.5-5.4,4.5-8.9,6.1c-2.7,1.1-6.2,1.9-10.3,2.5l0,0c0,0,0,0,0,0
			c-0.4,0-0.6,0.1-0.6,0.1c0,0,0,0,0,0l0,0l-0.6,0.1l-1.5,0.1l-0.4,0l0,0c-4.6-0.1-8.4-0.7-11.5-1.6c-3.6-1.2-6.7-2.9-9.4-5.2
			c-2-1.8-3.9-4.2-5.8-7.1c-2-3.3-3.6-7.2-4.8-11.7C95.4,45.1,94.9,44.8,94.3,44.8z"/>
	</g>
	<g>
		<path class="st5" d="M122.2,55.7c-0.7,0.1-1.3,0.5-1.8,1.2c-0.5,0.7-0.7,1.6-0.7,2.5c0.1,0.9,0.4,1.7,0.9,2.3
			c0.6,0.6,1.2,0.9,1.9,0.8c0.7-0.1,1.3-0.5,1.8-1.2c0.5-0.7,0.7-1.6,0.7-2.5c-0.1-0.9-0.4-1.7-0.9-2.4
			C123.6,55.9,122.9,55.7,122.2,55.7"/>
	</g>
	<g>
		<path class="st1" d="M123,57c-0.2,0-0.4,0.1-0.6,0.4c-0.1,0.3-0.2,0.5-0.2,0.9c0,0.3,0.1,0.6,0.3,0.9c0.2,0.2,0.4,0.3,0.6,0.3
			c0.2,0,0.4-0.1,0.6-0.4c0.1-0.3,0.2-0.5,0.2-0.9c0-0.3-0.1-0.6-0.3-0.9C123.4,57.1,123.2,57,123,57"/>
	</g>
	<g>
		<path class="st5" d="M136,54.9c-0.7,0.1-1.3,0.5-1.8,1.2c-0.5,0.7-0.7,1.6-0.7,2.5c0.1,0.9,0.4,1.7,0.9,2.3
			c0.6,0.6,1.2,0.9,1.9,0.8c0.7-0.1,1.3-0.5,1.8-1.2c0.5-0.7,0.7-1.6,0.7-2.5c-0.1-0.9-0.4-1.7-0.9-2.4
			C137.4,55.1,136.8,54.8,136,54.9"/>
	</g>
	<g>
		<path class="st1" d="M136.8,56.2c-0.2,0-0.4,0.1-0.6,0.4c-0.1,0.3-0.2,0.5-0.2,0.9c0,0.3,0.1,0.6,0.3,0.9c0.2,0.2,0.4,0.3,0.6,0.3
			c0.2,0,0.4-0.1,0.6-0.4c0.1-0.3,0.2-0.5,0.2-0.9c0-0.3-0.1-0.6-0.3-0.9C137.3,56.3,137.1,56.2,136.8,56.2"/>
	</g>
	<g>
		<path class="st5" d="M131.8,62.3l-1.2,0.1l-1.8,0.2c0,0,0,0,0,0c-0.1,0-0.2,0-0.5,0.1l0,0c-0.1,0-0.3,0.1-0.5,0.1
			c0,0-0.1,0-0.2,0.1c-0.1,0-0.2,0.1-0.3,0.2c-0.2,0.2-0.2,0.6-0.1,1l0,0c0.1,0.4,0.4,0.8,0.7,1.2c0.6,0.6,1.2,0.8,2,0.9
			c0.1,0,0.1,0,0.2,0c0.7,0,1.3-0.3,1.8-0.8c0.4-0.4,0.6-0.8,0.8-1.3l0,0c0,0,0-0.1,0-0.1c0,0,0-0.1,0-0.2c0-0.2,0-0.3,0-0.4
			c0-0.3-0.1-0.5-0.2-0.6c-0.1-0.1-0.2-0.2-0.4-0.2C132.2,62.3,132,62.3,131.8,62.3L131.8,62.3z"/>
	</g>
	<g>
		<path class="st6" d="M130.1,63.6c-0.4,0-0.8,0.1-1.1,0.3c-0.3,0.2-0.4,0.5-0.4,0.7c0,0.3,0.2,0.5,0.5,0.7c0.3,0.2,0.7,0.2,1.1,0.2
			c0.4,0,0.8-0.1,1.1-0.3c0.3-0.2,0.4-0.5,0.4-0.7c0-0.3-0.2-0.5-0.5-0.7C130.9,63.6,130.5,63.5,130.1,63.6"/>
	</g>
	<g>
		<path class="st7" d="M122.3,63.5c-0.4-0.3-0.8-0.4-1.4-0.4c-0.6,0-1.1,0.2-1.6,0.5c-0.5,0.3-0.7,0.7-0.8,1.1
			c-0.1,0.4,0.1,0.8,0.4,1.1c0.4,0.3,0.8,0.4,1.4,0.4c0.6,0,1.1-0.2,1.6-0.5c0.5-0.3,0.7-0.7,0.8-1.1
			C122.8,64.2,122.6,63.8,122.3,63.5"/>
	</g>
	<g>
		<path class="st7" d="M137,62.5c0.3-0.4,0.7-0.6,1.2-0.8c0.6-0.1,1.1-0.1,1.6,0c0.5,0.2,0.9,0.4,1.1,0.8c0.2,0.4,0.1,0.7-0.1,1.1
			c-0.3,0.4-0.7,0.6-1.2,0.8c-0.6,0.1-1.1,0.1-1.6,0c-0.5-0.2-0.9-0.4-1.1-0.8C136.7,63.3,136.8,62.9,137,62.5"/>
	</g>
	<g>
		<path class="st0" d="M134.3,73.1l-0.7,0.1l-1,0.1l-0.7,0.1c-0.3,0-0.5,0-0.6,0c-0.1,0-0.3,0-0.6,0.1c-0.2,0-0.4,0-0.4,0
			c-0.1,0-0.4,0-0.7,0.1l-0.3,0l-0.5,0l-1.9,0.2c0.4,0.2,1,0.4,1.8,0.5c0.3,0,0.6,0.1,1,0.1c0.1,0,0.2,0,0.3,0c0.7,0,1.1,0,1.2,0
			c0.1,0,0.1,0,0.2,0l0.4,0L134.3,73.1"/>
	</g>
</g>
</svg>
